<?xml version="1.0" standalone="no"?><!DOCTYPE svg PUBLIC "-//W3C//DTD SVG 1.1//EN" "http://www.w3.org/Graphics/SVG/1.1/DTD/svg11.dtd" ><svg xmlns="http://www.w3.org/2000/svg"><metadata></metadata><defs><font id="1.000;Aa;AaXiaoliwo (Non-Commercial Use);2016" horiz-adv-x="1000"><font-face font-family="AaXiaoliwo (Non-Commercial Use)" font-weight="400" font-stretch="normal" units-per-em="1000" panose-1="2 1 6 0 1 1 1 1 1 1" ascent="937" descent="-272" x-height="1" bbox="24 -135 978 838" underline-thickness="50" underline-position="-100" unicode-range="U+0027-ff5e" /><missing-glyph horiz-adv-x="262"  /><glyph glyph-name="uniFF0C" unicode="&#xff0c;" d="M268 159 q65 -12 71 -80 q0 -42 -23.5 -95.5 q-23.5 -53.5 -69.5 -58.5 q-13 -1 -15 11 q2 25 16.5 56.5 q14.5 31.5 16.5 47.5 q-3 11 -23 29 q-20 18 -23 51 q9 38 50 39 Z" /><glyph glyph-name="uniFF5E" unicode="&#xff5e;" d="M404 461 q52 -7 99.5 -56 q47.5 -49 77.5 -56 q31 4 60 32.5 q29 28.5 60 32.5 q35 -3 37 -39 q-2 -41 -38.5 -68.5 q-36.5 -27.5 -76.5 -28.5 q-48 2 -87.5 35.5 q-39.5 33.5 -66.5 70.5 q-17 20 -47 19 q-49 -6 -93 -46.5 q-44 -40.5 -54 -46.5 q-15 8 -13 28 q3 50 48 85.5 q45 35.5 94 37.5 Z" /><glyph glyph-name="quotesingle" unicode="&#39;" d="M114 742 q11 -2 18 -11 q19 -22 16 -51 q2 -88 3 -175 q4 -27 -14 -40 q-43 4 -53 45.5 q-10 41.5 -8 76.5 q-1 26 7 87 q8 61 31 68 Z" /><glyph glyph-name="comma" unicode="," d="M99 142 q65 -12 71 -80 q0 -42 -23.5 -95.5 q-23.5 -53.5 -69.5 -58.5 q-13 -1 -15 11 q2 25 16.5 56.5 q14.5 31.5 16.5 47.5 q-3 11 -23 29 q-20 18 -23 51 q9 38 50 39 Z" /><glyph glyph-name="period" unicode="." d="M77 103 q14 16 33 19 q30 -2 61.5 -33 q31.5 -31 33.5 -61 q-11 -37 -51 -44 q-34 1 -62.5 26 q-28.5 25 -30.5 60 q2 24 20 38 l-4 -5 Z" /><glyph glyph-name="zero" unicode="0" d="M273 699 q80 -5 132 -68 l-1 0 q45 -62 67 -144.5 q22 -82.5 22 -158.5 q1 -57 -15 -113 q-20 -71 -77.5 -140.5 q-57.5 -69.5 -134.5 -74.5 q-105 3 -162.5 70.5 q-57.5 67.5 -58.5 169.5 q-1 152 42.5 251.5 q43.5 99.5 148.5 207.5 l37 0 ZM283 638 q-18 -2 -33 -22.5 q-15 -20.5 -24 -35.5 q-64 -98 -87.5 -182.5 q-23.5 -84.5 -22.5 -201.5 q-2 -54 15 -88.5 q17 -34.5 79 -35.5 q64 3 113 51.5 q49 48.5 72 105.5 q26 73 21 150 q4 77 -18.5 164 q-22.5 87 -114.5 95 Z" /><glyph glyph-name="one" unicode="1" d="M194 715 q27 -3 34 -30.5 q7 -27.5 6 -50.5 q-3 -127 -27.5 -266.5 q-24.5 -139.5 -28.5 -273.5 q1 -15 -2.5 -50.5 q-3.5 -35.5 -19.5 -39.5 q-28 3 -46 32.5 q-18 29.5 -19 56.5 q3 86 37.5 318.5 q34.5 232.5 58.5 299.5 l7 4 Z" /><glyph glyph-name="two" unicode="2" d="M268 705 q83 -3 134 -61.5 q51 -58.5 53 -139.5 q-14 -126 -112.5 -244.5 q-98.5 -118.5 -112.5 -142.5 q6 -14 22 -11 q102 13 203 25 q53 -6 65 -56 q-1 -12 -12 -19 q-35 -14 -188.5 -31.5 q-153.5 -17.5 -207.5 -19.5 q-17 1 -41.5 19 q-24.5 18 -26.5 36 q21 32 171 189.5 q150 157.5 171 283.5 q11 107 -92 114 q-38 1 -74 -12 q-39 -17 -73 -60.5 q-34 -43.5 -36 -86.5 q1 -10 -7 -14 q-14 2 -22 24.5 q-8 22.5 -8 35.5 q4 73 63.5 121 q59.5 48 130.5 50 Z" /><glyph glyph-name="three" unicode="3" d="M288 721 q66 -2 107.5 -49 q41.5 -47 42.5 -112 q-2 -66 -40.5 -124.5 q-38.5 -58.5 -83.5 -104.5 q53 -23 100 -68 q47 -45 50 -106 q-3 -66 -57.5 -108.5 q-54.5 -42.5 -117.5 -44.5 q-24 1 -55.5 21.5 q-31.5 20.5 -37.5 44.5 l7 4 q22 -3 43 -5 q49 2 99.5 42.5 q50.5 40.5 54.5 90.5 q-8 64 -83 68.5 q-75 4.5 -125 0.5 q-28 23 -45 55 q33 22 65 43 q55 37 108 102.5 q53 65.5 57 133.5 q2 54 -48 61 q-96 -3 -165.5 -70 q-69.5 -67 -86.5 -160 q-10 6 -14 31 q-4 25 -4 37 q4 84 75 149 q71 65 154 68 Z" /><glyph glyph-name="four" unicode="4" d="M243 722 l16 11 q25 -10 25 -37 q-11 -60 -87 -206.5 q-76 -146.5 -87 -222.5 q3 -9 14 -8 q49 5 97 21 q80 18 88 36 q8 18 9 96 q3 34 15 136 q12 102 18 121 q4 5 9 6 q26 -3 32 -31 q6 -28 5 -49 q-3 -129 -11 -256 l5 -2 q34 2 66 18 q32 16 63 18 q46 -5 57 -47 q-1 -5 -3 -10 q-18 -14 -76 -33 q-58 -19 -85 -26 l1 0 l-39 -10 q-1 -37 -8 -142 q-7 -105 -14 -129 l-8 -4 q-27 2 -39.5 30 q-12.5 28 -12.5 52 q4 78 8 155 q0 9 -9 9 q-76 -13 -153 -26 q-53 -1 -86 39 l1 0 q-15 19 -16 43 q7 75 80 235 q73 160 125 212 l0 1 Z" /><glyph glyph-name="five" unicode="5" d="M101 731 q19 -2 22 -23 q3 -21 2 -37 q158 3 316 8 q36 -16 46 -50 q0 -8 -5 -13 l0 1 q-22 -6 -62.5 -7.5 q-40.5 -1.5 -65.5 -1.5 q-107 6 -214 11 q-6 0 -13 -2 q-5 -17 -6 -58 q-1 -41 -1 -61 q2 -85 3 -169 q40 2 80 3 q37 0 84.5 -9.5 q47.5 -9.5 78.5 -28.5 l0 1 q36 -30 41 -77 q-5 -57 -67 -133 q-62 -76 -116 -95 l1 0 l-7 -1 q-22 1 -49 20.5 q-27 19.5 -29 42.5 q11 9 29 5 q34 8 95 81 q61 73 68 109 l0 18 q-111 -3 -222 -4 q-44 33 -54.5 56.5 q-10.5 23.5 -8.5 79.5 q-1 52 8.5 185 q9.5 133 45.5 149 Z" /><glyph glyph-name="six" unicode="6" d="M302 738 q24 -3 32 -24 q-5 -19 -21 -32 q-51 -59 -87 -128 q-15 -30 -44.5 -101.5 q-29.5 -71.5 -32.5 -99.5 q3 -14 32.5 -17 q29.5 -3 42.5 -2 q64 0 148.5 -22 q84.5 -22 92.5 -97 q-6 -76 -79.5 -143 q-73.5 -67 -148.5 -71 q-79 3 -135 58 q-64 65 -53 156 q2 124 61 277.5 q59 153.5 157 230.5 q15 13 35 15 ZM232 266 q-50 3 -80 -9.5 q-30 -12.5 -31 -70.5 l0 -31 q-8 -79 68 -85 q61 3 125 56.5 q64 53.5 69 115.5 q-1 5 -3 10 q-19 9 -71 11.5 q-52 2.5 -77 2.5 Z" /><glyph glyph-name="seven" unicode="7" d="M376 696 q32 0 63 -19.5 q31 -19.5 33 -53.5 q-1 -23 -15 -60.5 q-14 -37.5 -24 -60.5 q-73 -182 -122 -374 l-30 -114 q-10 -7 -24 -7 q-12 5 -31 19 q-19 14 -21 27 q4 35 36 152 q32 117 47 161 q6 16 45 118.5 q39 102.5 44 128.5 q-3 7 -24.5 7.5 q-21.5 0.5 -30.5 0.5 q-98 -1 -196 -2 q-22 -1 -53 5 q-31 6 -34 33 q8 15 73.5 21 q65.5 6 92.5 6 q86 8 171 12 Z" /><glyph glyph-name="eight" unicode="8" d="M294 711 q76 -1 137 -45.5 q61 -44.5 65 -124.5 q3 -23 22 -36.5 q19 -13.5 22 -36.5 q0 -3 -2 -7 q-36 -33 -72 -66 l0 1 q-19 -17 -63 -55 q-44 -38 -53 -51 q45 -34 87.5 -61.5 q42.5 -27.5 45.5 -93.5 q-2 -59 -47 -98.5 q-45 -39.5 -103 -40.5 q-49 3 -121.5 44 q-72.5 41 -79.5 91 q9 66 53 118 l-1 0 q15 16 19 36 l-1 3 q-56 29 -104 76 q-48 47 -51 113 q5 90 81.5 160 q76.5 70 165.5 74 ZM344 651 q-82 -3 -155.5 -64 q-73.5 -61 -78.5 -145 q3 -70 71 -93 q30 -17 60 -24 q26 10 113.5 86.5 q87.5 76.5 98.5 99.5 q2 61 -19.5 100 q-21.5 39 -89.5 40 ZM313 245 q-27 -6 -66 -59.5 q-39 -53.5 -43 -82.5 q4 -22 38.5 -31 q34.5 -9 54.5 -9 q40 2 78.5 34 q38.5 32 41.5 73 q-3 32 -38.5 53 q-35.5 21 -65.5 22 Z" /><glyph glyph-name="nine" unicode="9" d="M271 706 q122 3 203 -89 q43 -32 51 -82 q-4 -64 -43 -261.5 q-39 -197.5 -59 -265.5 q-5 -4 -11 -4 q-54 9 -60 65 q4 77 28.5 151.5 q24.5 74.5 28.5 150.5 l-6 3 q-31 -7 -81 -47.5 q-50 -40.5 -125 -46.5 q-57 1 -102 39 q-45 38 -48 96 q1 70 31 133 q26 51 80 102.5 q54 51.5 113 55.5 ZM327 648 q-84 -6 -142 -85.5 q-58 -79.5 -61 -159.5 l0 -55 q18 -2 36 -2 q63 9 169.5 101 q106.5 92 117.5 153 q-5 24 -51 36 q-46 12 -69 12 Z" /><glyph glyph-name="asciicircum" unicode="^" d="M257 711 q60 -14 120.5 -133 q60.5 -119 83.5 -178 l0 1 q1 -6 1 -13 q2 -17 -13 -22 q-42 15 -88 119 q-46 104 -70 120 q-39 -40 -74 -128 q-35 -88 -60 -125 q-5 -2 -10 -3 q-20 2 -40 22 q-20 20 -22 40 q7 47 72.5 166 q65.5 119 99.5 134 Z" /><glyph glyph-name="uni300A" unicode="&#x300a;" d="M590 599 q8 8 18 9 q28 -8 28 -40 l-1 -12 l0 1 q-23 -50 -83.5 -149 q-60.5 -99 -67.5 -131 q17 -24 133 -82.5 q116 -58.5 133 -105.5 q-2 -5 -8 -6 q-36 8 -135.5 63.5 q-99.5 55.5 -121.5 68.5 q-24 11 -48 28 q-24 17 -26 46 q7 53 74 157.5 q67 104.5 106 151.5 l-1 1 ZM588 601 l2 -2 l-1 -1 l-1 3 ZM817 573 q27 -6 34 -31 q-8 -47 -67.5 -124 q-59.5 -77 -68.5 -103 q12 -28 98.5 -71 q86.5 -43 98.5 -84 q-2 -9 -11 -7 q-47 7 -150.5 75.5 q-103.5 68.5 -115.5 110.5 q9 26 82 121.5 q73 95.5 100 112.5 Z" /><glyph glyph-name="uni300B" unicode="&#x300b;" d="M408 598 q39 -47 106 -151.5 q67 -104.5 74 -157.5 q-2 -28 -26.5 -45 q-24.5 -17 -47.5 -29 q-22 -13 -121.5 -68.5 q-99.5 -55.5 -135.5 -63.5 q-5 2 -8 6 q17 46 133 105 q116 59 133 83 q-7 32 -67.5 131 q-60.5 99 -83.5 149 l0 -1 l-1 12 q0 32 28 40 q11 -1 18 -9 l-1 -1 ZM411 601 l-1 -3 l-1 1 l2 2 ZM364 339 q-12 -42 -115.5 -110.5 q-103.5 -68.5 -150.5 -75.5 q-9 -2 -11 7 q12 41 98.5 84 q86.5 43 98.5 71 q-8 24 -67.5 102.5 q-59.5 78.5 -68.5 124.5 q7 25 34 31 q26 -18 99.5 -113.5 q73.5 -95.5 82.5 -120.5 Z" /><glyph glyph-name="uni6309" unicode="&#x6309;" d="M240 722 q27 -9 25.5 -74 q-1.5 -65 17.5 -74 q34 3 68 5 q18 1 41 -6.5 q23 -7.5 25 -28.5 q-6 -21 -59 -29 q-53 -8 -77 -10 q1 -14 10.5 -86 q9.5 -72 27.5 -82 q46 8 92 15 q29 1 26 -29 q-7 -28 -59.5 -39.5 q-52.5 -11.5 -60.5 -25.5 l1 -5 q17 -98 14 -198 q1 -20 -4.5 -44.5 q-5.5 -24.5 -29.5 -26.5 q-23 2 -50.5 26.5 q-27.5 24.5 -29.5 48.5 q1 5 4 11 q22 -11 38 -29 q6 26 6 53 q0 21 -2.5 83 q-2.5 62 -7.5 73 q-1 2 -3 2 q-3 0 -5 -1 q-55 -6 -110 -13 q-15 0 -36 7.5 q-21 7.5 -23 24.5 q8 16 75 26 q67 10 93 24 q-6 79 -20 156 q1 23 -17 30 q-35 -1 -106.5 8.5 q-71.5 9.5 -79.5 46.5 q0 3 2 6 q16 5 90.5 5 q74.5 0 100.5 0 q-2 23 -3 45 q-1 18 3.5 59 q4.5 41 22.5 46 ZM642 777 q25 -1 47 -23 q22 -22 23 -47 q-4 -41 -39 -55 q-65 9 -72 75 q1 43 41 50 ZM858 621 q67 -4 82 -67 q-3 -50 -46 -118.5 q-43 -68.5 -94 -75.5 l-7 3 q-4 5 -4 11 q5 36 40 96.5 q35 60.5 41 89.5 l-5 4 q-51 -6 -189 -53.5 q-138 -47.5 -166 -75.5 q-4 -12 -2.5 -46.5 q1.5 -34.5 2.5 -51.5 q3 -19 -11 -27 q-34 3 -46.5 35.5 q-12.5 32.5 -11.5 60.5 q-1 32 0.5 112.5 q1.5 80.5 24.5 90.5 q24 -4 33 -42.5 q9 -38.5 9 -60.5 q77 31 173.5 71 q96.5 40 176.5 44 ZM667 384 q22 -2 34 -26 q12 -24 12 -44 q-2 -41 -14 -80 l21 0 q26 2 29 17.5 q3 15.5 21 17.5 q23 -10 41 -21 q39 7 78 14 q39 -6 50 -43 q-1 -5 -3 -10 q-23 -15 -74.5 -22 q-51.5 -7 -62.5 -21 q-10 -36 -13 -74 l5 -1 q27 4 53 8 q41 -8 48 -50 q-6 -17 -59 -21 q-53 -4 -75 -3 q-13 -28 -36 -64.5 q-23 -36.5 -55 -39.5 q-45 9 -58 53 q1 5 6 7 q6 -4 14 -4 q9 2 22 19.5 q13 17.5 18 26.5 q-27 13 -52.5 30 q-25.5 17 -27.5 51 q4 33 9 65 q-27 1 -85.5 6 q-58.5 5 -65.5 33 q5 16 47 18.5 q42 2.5 59 1.5 l67 1 q18 56 31 113 q3 22 9 37 q4 3 7 5 ZM726 169 q-6 3 -14 2 l-32 0 q-15 -36 -19 -74 q3 -14 19 -12 q23 3 33 33.5 q10 30.5 13 50.5 Z" /><glyph glyph-name="uni5427" unicode="&#x5427;" d="M233 542 q78 -4 110 -63 q32 -59 31 -130 q2 -88 -33 -167 q-18 -31 -57.5 -66 q-39.5 -35 -76.5 -38 q-98 -3 -137.5 25.5 q-39.5 28.5 -38.5 129.5 q0 46 10 145.5 q10 99.5 23 136.5 q3 11 14 13 q25 -12 43 -40 q46 48 112 54 ZM263 480 q-96 -8 -118.5 -97.5 q-22.5 -89.5 -18.5 -169.5 q-1 -33 2 -66 l-1 0 q6 -5 14 -4 q91 11 132 96 q37 95 27 199 q3 41 -37 42 ZM787 596 q95 -3 127.5 -65.5 q32.5 -62.5 30.5 -146.5 q5 -40 -30 -51 q-39 9 -49 46 q4 37 7 73 q2 46 -7.5 64 q-9.5 18 -59.5 17 q-13 0 -44.5 -2 q-31.5 -2 -36.5 -11 q28 -31 33 -53.5 q5 -22.5 4 -63.5 l0 -68 q23 1 52 -5.5 q29 -6.5 32 -34.5 q-6 -21 -58.5 -30 q-52.5 -9 -76.5 -9 q-42 5 -48 46 q0 8 5 14 l-1 0 q21 33 28.5 98.5 q7.5 65.5 6.5 106.5 q-55 -17 -114 -17 q-19 -1 -44.5 5 q-25.5 6 -27.5 28 q3 9 26 14.5 q23 5.5 33 6.5 q105 31 212 38 ZM588 403 q37 -8 34 -50 q-2 -63 -15.5 -125.5 q-13.5 -62.5 -15.5 -126.5 q-2 -23 19 -32 q21 -8 76 -11.5 q55 -3.5 82 -3.5 q74 3 118 62 q9 13 20 24 q31 -22 38 -60 q-5 -45 -59.5 -65 q-54.5 -20 -93.5 -20 q-85 -4 -171.5 23 q-86.5 27 -93.5 129 q1 41 20.5 142.5 q19.5 101.5 41.5 113.5 Z" /><glyph glyph-name="uni767D" unicode="&#x767d;" d="M488 732 q35 -6 41 -41 q-9 -41 -92.5 -106 q-83.5 -65 -126.5 -72 q-21 0 -25 20 q10 32 91 110.5 q81 78.5 112 88.5 ZM249 531 q24 -2 27 -25 q-5 -75 -10 -150 q-1 -22 4.5 -77 q5.5 -55 22.5 -62 q144 15 287 29 q42 -4 54 -43 q-12 -23 -105.5 -33 q-93.5 -10 -130.5 -10 q-47 5 -95 10 q10 -57 31.5 -83.5 q21.5 -26.5 79.5 -38.5 q62 -14 125 -15 q97 -5 141 81 q27 55 43.5 134.5 q16.5 79.5 16.5 140.5 q0 24 -2 48 q-77 -5 -186 -29.5 q-109 -24.5 -181 -52.5 q-12 -5 -35.5 -17.5 q-23.5 -12.5 -32.5 -13.5 q-23 5 -24 29 q21 53 189 99 q168 46 237 49 q55 -3 82 -45 q27 -42 27 -93 q-1 -71 -27 -180 q-26 -109 -69 -164 q-54 -52 -131 -50 q-64 0 -162.5 24.5 q-98.5 24.5 -142.5 69.5 q-19 29 -48 126.5 q-29 97.5 -36 137.5 q-3 26 -3 51 q-1 31 10.5 88.5 q11.5 57.5 43.5 64.5 Z" /><glyph glyph-name="uni4E0D" unicode="&#x4e0d;" d="M158 666 q24 -8 39 -32 q189 2 378 2 q96 -5 187 12 q14 4 27 5 q21 -1 43 -21 q22 -20 24 -41 q-4 -8 -40 -11 q-36 -3 -51 -3 q-92 -2 -185 -2 l-201 0 q-46 -3 -148 1 q-102 4 -114 58 q10 28 41 32 ZM559 537 q24 -8 31 -31 q-4 -31 -34.5 -74 q-30.5 -43 -34.5 -62 q9 -75 30 -150 q30 -113 40 -228 q4 -16 -11 -20 q-70 18 -81 156 q-11 138 -32 184 q-22 -13 -104 -92 q-82 -79 -125 -90 q-16 1 -34 18.5 q-18 17.5 -20 33.5 q12 36 50 50 q99 59 187.5 165.5 q88.5 106.5 137.5 139.5 ZM777 331 q73 -9 75 -84 q7 -53 -41 -62 q-29 3 -59 37 q-30 34 -32 63 q6 49 57 46 Z" /><glyph glyph-name="uni8F66" unicode="&#x8f66;" d="M437 808 q40 -11 39 -57 q-4 -52 -15 -103 l6 -1 q56 2 111 17 q55 15 111 17 q17 -1 37 -17.5 q20 -16.5 22 -33.5 q-4 -8 -32.5 -15 q-28.5 -7 -38.5 -8 q-119 -18 -239 -27 q-44 -132 -74 -269 l20 0 q55 1 109 15 q18 8 17.5 40 q-0.5 32 -1.5 51 q0 7 2 14 q4 2 8 2 q34 -3 42 -35 q8 -32 9 -60 q33 2 66 3 q22 0 46 -10.5 q24 -10.5 26 -35.5 l-3 -7 q-12 -5 -57.5 -11 q-45.5 -6 -64.5 -8 q0 -20 4.5 -77 q4.5 -57 7.5 -70 l4 -1 q18 1 61.5 12.5 q43.5 11.5 59.5 19.5 q13 8 28 24.5 q15 16.5 25 18.5 q35 -14 39 -55 q-9 -45 -92.5 -65 q-83.5 -20 -127.5 -26 l0 -29 q1 -20 -3 -69.5 q-4 -49.5 -24 -55.5 q-45 11 -46 59 q1 41 6 83 q-87 -2 -174 -3 q-28 -1 -65.5 7 q-37.5 8 -41.5 42 q3 26 28 31 q16 -2 19 -14.5 q3 -12.5 32 -14.5 q101 7 201 24 q0 13 -2 73.5 q-2 60.5 -7 72.5 q-1 2 -4 2 q-49 -4 -98 -9 q-42 0 -76.5 21 q-34.5 21 -36.5 66 q4 63 29 124 q25 61 29 115 q-3 6 -26 7.5 q-23 1.5 -32 1.5 q-26 1 -67.5 10.5 q-41.5 9.5 -45.5 38.5 q7 6 18 5 q40 -1 79 -3 q49 1 98 8 q6 26 23.5 91.5 q17.5 65.5 31.5 73.5 Z" /><glyph glyph-name="uni9519" unicode="&#x9519;" d="M149 767 q40 -14 38 -62 q-2 -54 -15.5 -106 q-13.5 -52 -15.5 -106 l6 -4 q47 7 119 48 q72 41 88 47 q12 -1 28 -15.5 q16 -14.5 17 -26.5 q-11 -39 -108 -80 q-97 -41 -142 -44 q-29 1 -56 21.5 q-27 20.5 -29 50.5 q2 39 22 125.5 q20 86.5 33 129.5 q1 16 15 22 ZM716 709 q28 -5 35 -43.5 q7 -38.5 23 -43.5 q39 -5 47 -43 q-4 -15 -32.5 -17.5 q-28.5 -2.5 -32.5 -14.5 q-2 -35 -17 -69 q-15 -34 -17 -68 q8 -2 16 -3 q64 -1 125 15 q12 5 24 6 q40 -10 51 -48 l-1 -5 q-14 -18 -85.5 -22.5 q-71.5 -4.5 -100.5 -3.5 q-22 0 -76.5 -2 q-54.5 -2 -68.5 -9 q-12 -8 -27 -3 q-63 -9 -127 -19 q-46 0 -60 39 q12 22 41 16 q56 4 110 21 l0 155 q-17 0 -38.5 9.5 q-21.5 9.5 -23.5 28.5 q3 7 29 11 q26 4 37 4 q0 16 3.5 52 q3.5 36 17.5 40 q29 -3 33.5 -36.5 q4.5 -33.5 3.5 -54.5 q46 4 91 10 q0 15 4.5 54 q4.5 39 15.5 44 ZM605 547 l0 -147 l45 10 q22 68 38 137 l-83 0 ZM326 393 q34 -5 43 -35 q-4 -15 -40 -31.5 q-36 -16.5 -53 -21.5 l0 -39 q0 -19 5 -39 q33 23 66 34 q34 -6 39 -40 q-4 -26 -42.5 -45 q-38.5 -19 -62.5 -28 l0 -31 q-1 -13 1.5 -47.5 q2.5 -34.5 15.5 -38.5 q36 5 61 42.5 q25 37.5 42 42.5 q25 -15 25 -49 q-12 -88 -102 -95 q-63 3 -84 48.5 q-21 45.5 -23 100.5 q-48 -20 -99 -23 q-43 0 -55 38 q5 13 21 11 q21 4 64.5 19.5 q43.5 15.5 59.5 27.5 q9 12 11.5 42.5 q2.5 30.5 2.5 47.5 l-7 0 q-27 -1 -63.5 6.5 q-36.5 7.5 -40.5 39.5 q12 16 37 8 q47 3 94 27.5 q47 24.5 84 27.5 ZM743 284 q60 -3 93 -52.5 q33 -49.5 34 -105.5 q-1 -60 -43 -126.5 q-42 -66.5 -107 -72.5 q-34 2 -62 20 q-75 43 -85 95 q-10 52 -6 131 q-1 17 3 48 q4 31 23 34 q27 -10 34 -41 q42 64 116 70 ZM774 227 q-35 -1 -69 -25.5 q-34 -24.5 -36 -61.5 q0 -9 7 -16 q10 -4 58.5 -5 q48.5 -1 66.5 -1 q4 23 4 47 q1 18 -4 39 q-5 21 -27 23 ZM663 -11 l20 0 q21 2 52.5 24.5 q31.5 22.5 34.5 42.5 q-2 7 -19 9 q-17 2 -24 2 q-32 3 -64 10 l0 -88 Z" /><glyph glyph-name="uni6234" unicode="&#x6234;" d="M337 830 q4 5 10 5 q21 -2 30 -25.5 q9 -23.5 11 -42.5 q-1 -17 8 -27 q58 15 112 30 q12 -1 30.5 -15.5 q18.5 -14.5 20.5 -25.5 q-6 -19 -54 -30 q-48 -11 -69 -13 q-39 3 -41 -34 l0 -43 q128 14 254 39 q-7 26 -14 51 q3 10 14 7 q38 -11 51 -53 q41 5 82 6 q45 -1 57 -42 l-4 -8 l0 1 q-11 -5 -57.5 -9.5 q-46.5 -4.5 -65.5 -6.5 l-1 -6 q4 -107 28 -211 q1 -10 8 -16 q13 4 37 35.5 q24 31.5 49 35.5 q27 -7 36 -32 q-6 -29 -51.5 -76 q-45.5 -47 -52.5 -71 q1 -15 13 -43 q12 -28 29 -28 l-1 0 q6 2 12 2 q21 -15 20 -47 q1 -22 -21 -24 q-31 3 -60.5 39.5 q-29.5 36.5 -42.5 63.5 q-10 -13 -31 -31 q-21 -18 -37 -20 q-36 6 -49 38 q6 15 21 27 l-1 0 q18 18 37 32 l0 -1 q22 16 39 36 q-8 146 -46 288 q-73 -5 -146 -22 q-190 -37 -383 -45 q-14 0 -34 8.5 q-20 8.5 -22 23.5 q12 16 35 15 q116 9 231 30 q4 25 3 50 l0 25 q-32 -1 -65 -3 q-20 0 -47 8 q-27 8 -30 31 q15 15 41 14 q51 4 101 13 l-1 39 q-2 32 8 59 l-1 -1 ZM884 804 q17 -1 35.5 -19.5 q18.5 -18.5 19.5 -35.5 q-6 -40 -46 -49 q-19 2 -37 21.5 q-18 19.5 -19 38.5 q6 41 47 44 ZM447 498 q124 -3 128 -127 q-1 -59 -26 -83.5 q-25 -24.5 -64 -59.5 q8 -25 11 -52 q17 5 35 5 q34 -7 44 -39 q-4 -14 -35 -20 q-31 -6 -45 -6 l0 -23 q-1 -7 5 -11 q12 2 24 4 q38 -1 49 -35 q-14 -27 -123.5 -41.5 q-109.5 -14.5 -153.5 -14.5 q-20 -1 -57.5 5 q-37.5 6 -41.5 28 q7 18 64.5 21.5 q57.5 3.5 81.5 6.5 l-2 3 l1 0 q-13 21 -8 27.5 q5 6.5 -33 5.5 q-42 -1 -56 33 q4 14 37.5 21.5 q33.5 7.5 48.5 10.5 l0 55 l-14 0 q-7 1 -13 -2 q-4 -9 -14 -8 q-45 4 -55 51.5 q-10 47.5 -8 84.5 l0 70 q-1 21 5.5 48 q6.5 27 31.5 30 q17 -2 24 -18 q79 20 159 30 ZM506 441 q-31 1 -62 2 q-30 5 -28 -26 q-2 -12 8 -19 q33 9 68 11 q11 -2 21 -5 l2 2 q-1 18 -9 35 ZM365 428 q-20 -3 -46.5 -12 q-26.5 -9 -29.5 -33 l0 -13 q32 14 67 15 q11 19 9 43 ZM365 428 l1 0 l-1 0 ZM507 349 q-45 0 -91 -11 q-6 -20 -4 -44 q0 -10 4 -19 q23 2 51 25.5 q28 23.5 40 42.5 l0 6 ZM360 330 q-15 -3 -39.5 -8 q-24.5 -5 -27.5 -24 q1 -17 7 -33 l68 0 q-10 32 -8 65 ZM430 216 q-25 0 -48 -7 q6 -15 6 -31 l7 -15 l1 1 q12 3 25 2 q18 4 13 25 q1 14 -4 25 ZM432 112 q-18 -3 -37 -7 l0 -45 q46 5 37 52 ZM502 -9 q46 -8 55 -54 q-6 -35 -42 -38 q-43 7 -51 51 q4 35 38 41 ZM332 -41 q40 -7 51 -44 q-1 -13 -9 -25 l0 1 q-9 -24 -35 -26 q-50 11 -56 65 q13 30 49 29 Z" /><glyph glyph-name="uni7684" unicode="&#x7684;" d="M237 661 q59 -10 61 -73 q3 -49 -40 -61 q-23 2 -44.5 27 q-21.5 25 -22.5 48 q0 50 46 59 ZM582 661 q39 -6 39.5 -58.5 q0.5 -52.5 -2.5 -83.5 q-1 -11 6 -16 q26 1 70 10.5 q44 9.5 87 10.5 q71 -2 106 -49 q35 -47 35 -114 l0 -29 q5 -128 -54 -242 q-10 -21 -26.5 -44.5 q-16.5 -23.5 -41.5 -25.5 q-21 2 -43.5 24.5 q-22.5 22.5 -24.5 43.5 q0 4 2 7 q19 -12 34 -20 q18 8 44.5 71 q26.5 63 33.5 89 q17 93 11 188 q0 56 -60 47 q-47 1 -115.5 -10.5 q-68.5 -11.5 -97.5 -49.5 q-7 -17 -23 -23 q-30 9 -31 44 q13 89 36 177 q1 9 5 29.5 q4 20.5 10 23.5 ZM93 459 q22 -2 29 -24.5 q7 -22.5 6 -41.5 q-3 -27 8 -46 q40 28 73 49.5 q33 21.5 88 22.5 q71 -3 104.5 -58.5 q33.5 -55.5 33.5 -120.5 q-4 -50 -52.5 -110.5 q-48.5 -60.5 -98.5 -66.5 q-29 2 -60 23 q-31 21 -53 40 q2 -23 3 -47 q4 -15 -11 -16 q-59 15 -74 145 q-15 130 -13 191 q-1 11 1.5 34 q2.5 23 15.5 26 ZM317 369 q-39 -1 -94.5 -30.5 q-55.5 -29.5 -60.5 -70.5 l2 -5 q106 5 210 27 l1 8 q6 66 -58 71 ZM204 212 q-22 3 -44 8 l-4 -8 q-1 -11 10 -10 q17 -5 31 -39 q14 -34 54 -39 q23 4 60 38 q37 34 42 57 l-8 3 q-70 -5 -141 -10 ZM595 305 q32 -1 61.5 -26.5 q29.5 -25.5 31.5 -58.5 q-3 -43 -47 -46 q-76 14 -76 96 q-3 34 30 35 Z" /><glyph glyph-name="uni7B49" unicode="&#x7b49;" d="M616 833 q20 -3 30.5 -24 q10.5 -21 21.5 -24 q68 4 136 8 q39 2 51 -30 q-8 -30 -75 -29 q-67 1 -97 3 q-20 3 -35 -7 q-11 -21 -21 -75 q-10 -54 -27 -61 q-37 11 -45 48 q2 29 23 100 q21 71 38 91 ZM288 828 q29 -9 33 -40 q-5 -21 -14 -41 q8 -2 16 -2 q87 8 174 15 q45 -1 56 -42 l-3 -7 q-17 -10 -73.5 -13 q-56.5 -3 -81.5 -3 q-58 4 -116 8 q-23 -21 -50 -79 q-27 -58 -46 -65 q-35 9 -44 43 q6 39 62.5 115 q56.5 76 86.5 111 ZM747 678 q46 -3 52 -47 q0 -29 -29 -32 q-48 8 -61 53 q9 25 38 26 ZM376 641 q17 -2 36 -22.5 q19 -20.5 21 -37.5 q-6 -34 -41 -39 q-54 6 -63 59 q12 33 47 40 ZM510 547 q24 -4 36.5 -32.5 q12.5 -28.5 22.5 -32.5 q44 10 87 19 q39 -6 50 -44 q0 -4 -2 -8 q-17 -16 -65.5 -22 q-48.5 -6 -73.5 -6 q-2 -51 -2 -102 q87 17 175 24 q45 -1 57 -42 l-4 -10 q-18 -8 -79 -14.5 q-61 -6.5 -84 -15.5 l0 -1 q1 -12 8.5 -37 q7.5 -25 13.5 -36 q37 11 73 17 q36 -7 44 -42 q-5 -13 -44.5 -26 q-39.5 -13 -56.5 -18 q3 -39 -2 -139 q-5 -100 -54 -112 q-19 1 -47 18 q-28 17 -31 36 l1 3 l4 0 q15 -2 29 -4 q29 7 34 70 q5 63 4 91 q1 11 -2 21 q-69 -16 -139 -22 q-18 0 -44 8.5 q-26 8.5 -29 28.5 q6 6 14 8 q31 7 107.5 21 q76.5 14 85.5 31 q-2 40 -17 79 q-118 -18 -237 -17 q-20 -1 -56 4 q-36 5 -40 28 l3 7 q21 8 115.5 17 q94.5 9 127.5 10 q8 33 6 66 l0 44 q-20 0 -40 -1 q-20 -1 -53 4.5 q-33 5.5 -37 29.5 q6 14 56.5 19.5 q50.5 5.5 70.5 5.5 l0 12 q0 10 2 34.5 q2 24.5 12 27.5 ZM420 35 q61 -9 73 -68 q1 -25 -23 -27 q-23 2 -49.5 24.5 q-26.5 22.5 -28.5 45.5 q3 25 28 25 Z" /><glyph glyph-name="uni70B9" unicode="&#x70b9;" d="M460 784 q35 -6 38 -57 q3 -51 1 -81 q-2 -16 4 -31 q89 14 177 24 q52 -1 66 -47 q-4 -14 -39 -18 q-35 -4 -50 -4 q-78 -1 -153 -24 q2 -79 8 -159 q48 4 95 7 q48 0 96.5 -25 q48.5 -25 52.5 -78 q-4 -33 -43.5 -62 q-39.5 -29 -68.5 -44 q27 -23 40 -49 q-7 -20 -65 -27 q-58 -7 -82 -7 q-53 4 -67 52 q14 30 111 80 q97 50 111 90 q-2 9 -22.5 12 q-20.5 3 -29.5 3 q-47 0 -109 -14 q-62 -14 -102 -37 q-41 -20 -39 -65 q4 -48 7 -96 q3 -20 -13 -27 q-6 1 -12 3 q-35 16 -45.5 67 q-10.5 51 -15.5 87 q-16 73 -19 148 q-5 32 19 44 q20 -6 31.5 -58.5 q11.5 -52.5 15.5 -75.5 l2 -1 q15 5 26 15 q42 27 88 46 q-33 36 -36.5 90 q-3.5 54 -1.5 102 q-1 35 0.5 121 q1.5 86 23.5 96 ZM793 72 q79 -8 92 -85 q-8 -40 -49 -45 q-77 9 -89 85 q1 45 46 45 ZM152 50 q70 -7 82 -76 q3 -50 -46 -54 q-71 10 -82 81 q-2 49 46 49 ZM577 33 q24 -1 48.5 -19.5 q24.5 -18.5 26.5 -42.5 q-2 -29 -31 -31 q-26 1 -52.5 21 q-26.5 20 -28.5 47 q7 27 37 25 ZM378 23 q23 -2 44 -24 q21 -22 22 -45 q0 -21 -19 -25 q-27 1 -55.5 19.5 q-28.5 18.5 -30.5 46.5 q11 24 39 28 Z" /><glyph glyph-name="uni8033" unicode="&#x8033;" d="M815 686 q-1 -8 -8 -12 q-29 -6 -191 -12.5 q-162 -6.5 -205 -8.5 q18 -21 17 -50 q-5 -57 -11 -114 q6 -2 11 -3 q89 3 177 11 l0 17 q-1 21 3 73 q4 52 25 58 q30 -5 36.5 -51 q6.5 -46 5.5 -72 q4 -166 -13 -331 q81 8 161 10 q47 1 59 -41 q-12 -26 -105.5 -31.5 q-93.5 -5.5 -120.5 -4.5 q-2 -33 -14.5 -111 q-12.5 -78 -41.5 -87 q-46 6 -55 52 q2 26 18 62.5 q16 36.5 18 73.5 q-59 8 -119 6 q-13 0 -36.5 -1 q-23.5 -1 -33.5 -9 q-2 -6 -8 -8 l-21 7 q-42 8 -119 12.5 q-77 4.5 -92 45.5 q10 10 76 13.5 q66 3.5 93 3.5 q4 107 15.5 233 q11.5 126 42.5 226 l1 4 q-4 8 -34 10 q-30 2 -42 2 q-30 -1 -87 7 q-57 8 -63 40 l1 3 q193 8 386 19 q77 7 154 6 q30 2 73 -4 q43 -6 47 -44 ZM605 423 q-1 15 -17 12 q-89 0 -178 -5 q0 -43 -8 -85 l196 0 q6 39 7 78 ZM397 297 q-1 -58 -7 -116 q28 0 103.5 3.5 q75.5 3.5 93.5 6.5 l10 91 q-100 5 -200 15 Z" /><glyph glyph-name="uni5206" unicode="&#x5206;" d="M579 737 q27 -2 57.5 -26.5 q30.5 -24.5 50.5 -43.5 q94 -84 202 -150 q19 -11 47.5 -32 q28.5 -21 31.5 -43 q-2 -12 -14 -10 q-13 0 -40 6 q-27 6 -30 18 q-2 9 -22.5 24 q-20.5 15 -30.5 21 q-91 63 -172 137 q-13 13 -36.5 33.5 q-23.5 20.5 -40.5 22.5 q-12 -1 -25 -2 q-21 -2 -28 14 q2 12 20 21.5 q18 9.5 30 9.5 ZM376 701 q31 -12 38 -44 q-4 -15 -41 -54.5 q-37 -39.5 -53 -55.5 q-108 -113 -205 -236 q-11 -20 -33 -26 q-14 1 -31 17.5 q-17 16.5 -19 30.5 q14 40 130.5 166.5 q116.5 126.5 163.5 166.5 q24 19 50 35 ZM423 370 q21 -2 21.5 -19.5 q0.5 -17.5 9.5 -20.5 q86 14 171 27 q54 -2 74 -40 q20 -38 19 -87 q-1 -50 -26.5 -168 q-25.5 -118 -66.5 -132 q-45 5 -81.5 57.5 q-36.5 52.5 -38.5 96.5 q0 7 5 12 q37 -47 75 -93 q57 128 62 267 q5 21 -15 23 q-85 -12 -171 -24 q-25 0 -55.5 14 q-30.5 14 -33.5 42 q11 38 51 45 ZM472 261 q33 -10 32 -48 q-11 -123 -94 -218 q-51 16 -61 65 q0 13 9.5 36 q9.5 23 24.5 20 q21 10 43.5 73 q22.5 63 45.5 72 Z" /><glyph glyph-name="uni544A" unicode="&#x544a;" d="M558 781 q39 -13 32 -61 q-1 -81 -7 -162 q74 20 151 27 q38 -1 49 -35 q-7 -26 -70 -41.5 q-63 -15.5 -91 -19.5 q-32 -4 -41 -11.5 q-9 -7.5 -11 -40.5 q-5 -40 -11 -80 q130 14 261 24 q46 -2 59 -43 q-12 -26 -110.5 -35.5 q-98.5 -9.5 -137.5 -11.5 q-168 -15 -337 -15 q-26 -1 -89 4 q-63 5 -71 29 q5 17 45.5 19 q40.5 2 57.5 1 q107 2 214 18 q16 1 31 6 q3 10 7.5 54 q4.5 44 4.5 60 q-75 -6 -150 -12 q-42 0 -82.5 21 q-40.5 21 -43.5 68 q0 29 14.5 97.5 q14.5 68.5 38.5 76.5 q38 -12 46 -53 q-11 -69 -23 -139 l30 0 q92 5 183 21 q-1 38 9.5 130.5 q10.5 92.5 41.5 103.5 ZM604 218 q67 -2 119 -46.5 q52 -44.5 55 -112.5 q-4 -60 -57.5 -100 q-53.5 -40 -111.5 -41 q-47 2 -82 18.5 q-35 16.5 -63 20.5 q-6 -25 -25 -33 q-20 2 -38 21.5 q-18 19.5 -19 39.5 q2 95 63.5 162.5 q61.5 67.5 158.5 70.5 ZM629 159 q-58 -1 -107 -40 q-49 -39 -52 -100 q4 -22 40.5 -32 q36.5 -10 56.5 -10 q43 2 94 34.5 q51 32.5 55 78.5 q-8 75 -87 69 Z" /><glyph glyph-name="uni7ED9" unicode="&#x7ed9;" d="M347 734 q22 -2 30 -20 q-15 -26 -121 -108.5 q-106 -82.5 -121 -165.5 q2 -25 28 -22 q103 3 190 56 q28 -15 36 -43 q-9 -31 -75.5 -104 q-66.5 -73 -76.5 -112 l4 -4 q33 9 66 16 q30 -2 39 -29 q-4 -24 -44 -39 q-40 -15 -63 -15 q-28 1 -53.5 23 q-25.5 22 -27.5 51 q2 37 25 70 q23 33 40 65 q-52 7 -99 29.5 q-47 22.5 -50 82.5 q9 75 104 168 q95 93 169 101 ZM385 118 q12 3 16 -7 q-4 -40 -49.5 -70 q-45.5 -30 -84.5 -31 q-16 0 -39 10.5 q-23 10.5 -25 27.5 q16 13 40 15 q30 8 73.5 30 q43.5 22 68.5 25 ZM658 754 q29 -11 29 -44 q-1 -26 -13 -49 q-28 -59 -80 -135 q-52 -76 -94 -130 q-10 -15 -23 -25 q-35 5 -43 38 q7 35 68 123 q61 88 89 128 q25 42 52 82 q5 10 15 12 ZM645 558 q32 -4 60 -21 q82 -35 172 -47 q26 -3 51 -9 q33 -12 43 -43 q-5 -13 -20 -11 q-53 1 -116.5 18 q-63.5 17 -110.5 40 q-17 8 -52 29 q-35 21 -39 37 q4 7 12 7 ZM784 379 q12 -1 31 -14.5 q19 -13.5 21 -25.5 q-9 -19 -80.5 -23.5 q-71.5 -4.5 -99.5 -3.5 q-24 -1 -57.5 5.5 q-33.5 6.5 -36.5 34.5 q4 5 10 6 q49 10 100 12 q55 8 112 9 ZM549 241 q22 -5 24.5 -39 q2.5 -34 10.5 -39 q11 4 42 33 q31 29 87 33 q58 -2 98 -44 q40 -42 42 -100 q-2 -52 -40.5 -77.5 q-38.5 -25.5 -86.5 -25.5 q-71 2 -133 37 q1 -17 2 -35 q4 -26 -17 -35 q-43 5 -53 58.5 q-10 53.5 -8 90.5 q-1 26 3.5 81.5 q4.5 55.5 28.5 61.5 ZM738 175 q-44 -2 -86.5 -38 q-42.5 -36 -45.5 -81 q14 -21 44 -17 q50 -3 92 10 q42 13 45 73 q4 54 -49 53 Z" /><glyph glyph-name="uni4F55" unicode="&#x4f55;" d="M287 649 q34 -10 39 -46 q-7 -37 -63 -127 q-56 -90 -82 -134 q89 -38 100.5 -117.5 q11.5 -79.5 6.5 -164.5 q1 -14 -2 -50 q-3 -36 -15 -41 q-55 13 -56 73 q3 53 5 105 q1 20 -2.5 69.5 q-3.5 49.5 -17.5 55.5 q-32 -2 -56 -18 q-24 -16 -38 -18 q-16 1 -33.5 18.5 q-17.5 17.5 -19.5 33.5 q11 26 97.5 169.5 q86.5 143.5 112.5 178.5 q10 12 24 13 ZM863 741 q45 -6 58 -47 q-3 -14 -28 -20.5 q-25 -6.5 -38 -8.5 q-89 -20 -201.5 -42 q-112.5 -22 -200.5 -24 q-21 -1 -46 5.5 q-25 6.5 -27 31.5 q2 11 22 13.5 q20 2.5 30 1.5 q110 6 215.5 45 q105.5 39 215.5 45 ZM847 523 q41 -11 53 -104.5 q12 -93.5 11 -136.5 q0 -61 -28 -205.5 q-28 -144.5 -81 -161.5 q-35 3 -92 43.5 q-57 40.5 -63 75.5 q0 14 11 18 q9 -4 41 -35.5 q32 -31.5 62 -37.5 q42 34 63 170.5 q21 136.5 21 198.5 q-4 77 -9 153 q-3 16 11 22 ZM537 448 q36 2 69 -8 q74 -34 84 -115 q-3 -54 -49.5 -108.5 q-46.5 -54.5 -101.5 -58.5 q-45 7 -82 34 q-1 -16 -2.5 -38.5 q-1.5 -22.5 -20.5 -24.5 q-31 11 -51 42 l3 106 q0 25 5 86 q5 61 24 69 q17 -3 33 -6 q42 11 89 22 ZM619 387 q-26 1 -52 2 q-97 1 -107 -92 l0 -33 l19 1 q19 3 28 -10 q-2 -15 -6 -28 q6 -5 14 -5 q32 5 67.5 52 q35.5 47 38.5 80 q0 17 -2 33 Z" /><glyph glyph-name="uni56DE" unicode="&#x56de;" d="M422 450 q12 -1 20 -8 q31 -11 64 -5 q62 -1 115 -42 q53 -41 56 -105 q0 -37 -29 -60 l0 1 q-9 -5 -11 -14 q5 -8 11 -22 q-14 -21 -59 -27 q-45 -6 -71 -5 q-79 1 -90.5 41 q-11.5 40 -11.5 106 q-6 58 -7 116 q-2 19 13 24 ZM544 380 q-28 -1 -55 -11 l-1 -84 q0 -8 2 -24.5 q2 -16.5 11 -18.5 q27 2 66.5 26.5 q39.5 24.5 43.5 50.5 q-3 62 -67 61 ZM591 678 q36 0 86 -1 q50 -1 83 -10 q119 -43 145 -165.5 q26 -122.5 21 -235.5 q3 -65 -11.5 -167.5 q-14.5 -102.5 -88.5 -113.5 q-68 6 -137 12 q-7 -1 -12 -4 q-40 -17 -106.5 -22.5 q-66.5 -5.5 -112.5 -4.5 q-25 -1 -84.5 4 q-59.5 5 -66.5 30 q6 14 53 17 q47 3 66 3 q76 -1 150 15 l-1 5 q14 9 35 8 q66 -3 132 -7 q29 -2 56 5 q37 25 45.5 124 q8.5 99 7.5 147 q0 51 -10.5 147 q-10.5 96 -36.5 133 q-20 18 -62 22 q-42 4 -68 3 q-112 8 -221 -10 q-65 -14 -122 -48 q-11 -9 -25 -10 q-11 0 -12 11 q2 16 22 37 q20 21 34 30 q46 27 116.5 37 q70.5 10 124.5 9 ZM197 616 q12 -3 20 -13 q0 -33 -4 -64 q-9 -109 -7 -220 q3 -159 6 -316 q4 -24 -14 -33 q-27 6 -48 27 q-11 16 -13 67 q-2 51 -1 73 q-3 84 3.5 270.5 q6.5 186.5 57.5 208.5 Z" /><glyph glyph-name="uni4F1A" unicode="&#x4f1a;" d="M483 772 q19 0 22 -18 q-3 -20 -29.5 -51.5 q-26.5 -31.5 -42.5 -48.5 l1 0 q-133 -155 -253 -321 q-12 -18 -48 -65.5 q-36 -47.5 -48 -53.5 q-36 5 -46 39 q22 74 198.5 283.5 q176.5 209.5 245.5 235.5 ZM632 689 q28 -3 67.5 -30.5 q39.5 -27.5 63.5 -46.5 q70 -51 152 -80 q15 -5 38 -17.5 q23 -12.5 25 -29.5 q-6 -16 -25 -16 q-58 4 -131.5 51.5 q-73.5 47.5 -118.5 86.5 q-33 34 -78 49 q-23 1 -36 16 q16 20 43 17 ZM645 422 q10 -2 23 -17 q13 -15 14 -25 q-11 -31 -100.5 -48 q-89.5 -17 -126.5 -17 q-26 -1 -64.5 10 q-38.5 11 -42.5 40 q4 10 36 10.5 q32 0.5 44 -0.5 q93 2 180 36 q18 9 37 11 ZM637 248 q44 -6 55 -47 q-7 -16 -66 -28.5 q-59 -12.5 -83 -15.5 q-34 4 -45 -26 q-24 -69 -43 -138 l4 -1 q42 6 131.5 59.5 q89.5 53.5 132.5 83.5 q22 -2 36 -24.5 q14 -22.5 14 -43.5 q1 -24 -4.5 -84.5 q-5.5 -60.5 -23.5 -67.5 q-39 8 -46 47 q2 29 4 59 q1 7 -2 14 q-49 -24 -112 -63 q-63 -39 -114 -43 q-77 0 -89 72 q2 29 18.5 69.5 q16.5 40.5 30.5 68.5 q-29 1 -87.5 10 q-58.5 9 -65.5 39 q3 15 31 15.5 q28 0.5 40 -0.5 q60 0 138.5 10.5 q78.5 10.5 133.5 31.5 q6 2 12 3 Z" /><glyph glyph-name="uni673A" unicode="&#x673a;" d="M258 721 q5 4 11 5 q34 -8 42 -75.5 q8 -67.5 10 -100.5 q49 5 98 6 q37 -3 46 -38 q-7 -24 -65.5 -25.5 q-58.5 -1.5 -82.5 0.5 q9 -146 8 -292 l-1 -223 q1 -13 -12 -13 q-30 11 -52 39 l0 191 q7 152 -14 301 q-41 10 -120 13 q-79 3 -88 53 q2 12 15 11 q6 0 12 -2 q94 -15 190 -19 l0 56 q-1 57 3 113 ZM776 499 q86 -6 95 -91 q-1 -48 -13 -94 q-17 -87 -17 -178 q0 -14 2 -47 q2 -33 11 -38 q9 15 24.5 44 q15.5 29 30.5 32 q15 -3 21.5 -26.5 q6.5 -23.5 6.5 -37.5 q0 -27 -12.5 -52.5 q-12.5 -25.5 -42.5 -27.5 q-65 5 -87.5 69.5 q-22.5 64.5 -21.5 120.5 q14 125 28 249 q1 14 -13 12 q-45 -2 -101.5 -26 q-56.5 -24 -92.5 -53 q6 -50 7 -100 q0 -35 -8.5 -117 q-8.5 -82 -26.5 -92 q-16 1 -34.5 17 q-18.5 16 -20.5 32 l1 11 q21 150 24 303 q40 6 104 45 q64 39 136 45 ZM420 357 q59 -13 60 -77 q0 -15 -5 -40.5 q-5 -25.5 -22 -28.5 q-64 15 -65 86 q0 16 6.5 37 q6.5 21 25.5 23 ZM165 325 q31 -9 25 -45 q-2 -43 -35.5 -121.5 q-33.5 -78.5 -75.5 -87.5 q-36 8 -49 42 q5 21 24 34 q40 46 62 102 q6 13 22 42.5 q16 29.5 27 33.5 Z" /><glyph glyph-name="uni7ECF" unicode="&#x7ecf;" d="M353 726 q19 -2 27 -16 q-16 -23 -126 -114 q-110 -91 -126 -178 q-2 -31 28 -29 q110 1 204 59 q25 -16 33 -41 q-10 -29 -78.5 -109 q-68.5 -80 -79.5 -123 q3 -5 8 -6 q34 8 67 15 q17 1 29 -10 l0 1 q9 -6 10 -17 q-4 -25 -44.5 -39 q-40.5 -14 -64.5 -14 q-28 1 -53 24 q-25 23 -27 51 q3 33 27.5 73.5 q24.5 40.5 39.5 72.5 q-22 7 -84.5 22.5 q-62.5 15.5 -70.5 95.5 q9 79 106 176 q97 97 175 106 ZM393 69 q9 2 12 -6 q-4 -40 -48 -69.5 q-44 -29.5 -82 -30.5 q-15 0 -39 9.5 q-24 9.5 -27 24.5 q15 8 91.5 38 q76.5 30 92.5 34 ZM760 608 q-12 -56 -113 -178 q-101 -122 -153 -136 q-12 2 -29 17.5 q-17 15.5 -19 27.5 q14 15 111.5 121 q97.5 106 112.5 173 l-1 2 q-31 11 -73 9.5 q-42 -1.5 -72 16.5 l0 -1 q-7 5 -8 13 q3 10 24.5 12 q21.5 2 30.5 2 q47 2 114.5 -11 q67.5 -13 74.5 -68 ZM530 684 l-1 0 l0 4 l1 -4 ZM831 445 q19 -1 41.5 -18.5 q22.5 -17.5 24.5 -36.5 q0 -41 -41 -42 q-36 2 -61 26 l0 -1 q-12 13 -12 30 q7 40 48 42 ZM821 259 q49 -3 61 -47 q-6 -13 -51.5 -20.5 q-45.5 -7.5 -63.5 -10.5 q0 -64 3 -129 q34 2 68 3 q49 5 63 -36 q-8 -27 -74 -36 q-66 -9 -95 -8 q-35 -1 -90.5 11 q-55.5 12 -61.5 55 q3 9 13 8 q40 -5 79 -11 q35 10 29 50 l0 80 q-43 -11 -86 -15 q-16 0 -36.5 11.5 q-20.5 11.5 -22.5 28.5 q18 17 123 40.5 q105 23.5 142 25.5 Z" /><glyph glyph-name="uni4E86" unicode="&#x4e86;" d="M570 711 q73 7 129 -35 q19 -15 23 -38 q-8 -33 -72.5 -106 q-64.5 -73 -93.5 -111 q66 -140 59 -296 q0 -28 -12.5 -97.5 q-12.5 -69.5 -33.5 -78.5 q-43 9 -122 87 q-79 78 -89 120 l3 3 q24 -9 80.5 -63.5 q56.5 -54.5 78.5 -63.5 q10 11 17.5 61.5 q7.5 50.5 7.5 69.5 q0 45 -7.5 129 q-7.5 84 -20.5 122 q-9 23 -10 47 q4 46 47.5 95.5 q43.5 49.5 74.5 85.5 q-103 4 -206 0 q-68 -6 -121 35 q-9 8 -13 18 q5 9 45 11 q40 2 56 2 q90 2 180 3 Z" /><glyph glyph-name="uni4EEC" unicode="&#x4eec;" d="M790 663 q77 2 128.5 -29.5 q51.5 -31.5 53.5 -116.5 q-1 -94 -50.5 -304 q-49.5 -210 -133.5 -235 q-46 7 -115.5 75 q-69.5 68 -78.5 115 l2 4 q22 -12 74 -68.5 q52 -56.5 85 -64.5 q65 25 107 230.5 q42 205.5 44 289.5 q0 58 -57 52 l-35 -1 q-47 -2 -92 -17 q-45 -15 -87 -17 q-15 3 -19 18 q7 37 73 53 q66 16 101 16 ZM271 649 q25 -6 32 -30 q-3 -17 -30 -53 q-27 -36 -41 -52 q-42 -46 -54 -70 q-12 -24 -11 -88 q-1 -55 -2 -111 q0 -15 1.5 -53 q1.5 -38 11.5 -43 q9 1 18 2 q18 -3 17 -22 q5 -36 -26 -46 q-51 14 -70 67 q-10 33 -10.5 81 q-0.5 48 0.5 84 q0 18 -1 36 q-14 -18 -35 -26 q-31 8 -42 39 q13 36 112.5 153 q99.5 117 129.5 132 ZM446 631 q59 -7 66 -67 q-1 -22 -18 -45 q-17 -23 -40 -25 q-24 2 -43.5 26.5 q-19.5 24.5 -20.5 47.5 q-1 59 56 63 ZM374 423 q24 -7 27.5 -62 q3.5 -55 2.5 -77 q-7 -59 21 -106 q11 -10 9 -25 q7 -21 -14 -21 q-47 7 -60.5 71 q-13.5 64 -12.5 105 q-1 20 3.5 65 q4.5 45 23.5 50 Z" /><glyph glyph-name="uni7C73" unicode="&#x7c73;" d="M487 694 q42 -10 50.5 -90.5 q8.5 -80.5 6.5 -117.5 q-2 -78 -5 -154 q21 2 74 9.5 q53 7.5 63 16.5 q-16 28 -29 57 q28 -11 63 -37 q35 -26 38 -58 q-10 -31 -92.5 -44.5 q-82.5 -13.5 -117.5 -16.5 q-6 -145 -11 -290 q-10 -2 -20 -2 q-30 9 -51 36 l8 247 q-44 -1 -88 -2 q-40 -2 -118 7.5 q-78 9.5 -87 54.5 q-1 8 6 10 q48 -5 95 -11 q98 2 195 14 q4 167 10 333 q-1 24 10 38 ZM704 663 q27 -2 51.5 -31 q24.5 -29 26.5 -55 q-6 -31 -39 -33 q-24 2 -52.5 24.5 q-28.5 22.5 -31.5 47.5 q11 36 45 47 ZM230 655 q34 -2 60 -28.5 q26 -26.5 27 -60.5 q-3 -59 -61 -68 q-75 11 -85 87 q4 58 59 70 ZM772 173 q25 -2 45.5 -29 q20.5 -27 21.5 -51 q-2 -52 -49 -65 q-71 14 -77 90 q2 17 22 35.5 q20 18.5 37 19.5 ZM221 131 q72 -8 81 -80 q0 -36 -34 -46 q-27 2 -53 29.5 q-26 27.5 -28 54.5 q-4 39 34 42 Z" /><glyph glyph-name="uni9762" unicode="&#x9762;" d="M582 732 q28 1 66.5 -6.5 q38.5 -7.5 42.5 -42.5 q-6 -15 -55.5 -15.5 q-49.5 -0.5 -68.5 0.5 l-116 0 q-10 -106 -66 -195 q-8 -8 -14 -18 q14 14 30 20 q9 -2 18 -4 q61 2 121 18.5 q60 16.5 122 18.5 l29 0 q132 -11 175 -139 q43 -128 39 -243 q2 -52 -16 -86.5 q-18 -34.5 -76 -35.5 q-50 3 -65 46 l5 9 q38 14 62 20.5 q24 6.5 25 63.5 q-1 51 -15 139 q-14 88 -34 132 q-22 47 -75 39 q-16 0 -52.5 -0.5 q-36.5 -0.5 -47.5 -5.5 q14 -137 23 -275 q6 -73 -22 -138 q31 -4 61 -2 q24 1 58.5 -4.5 q34.5 -5.5 38.5 -34.5 q-6 -19 -55.5 -23 q-49.5 -4 -68.5 -3 q-245 -15 -482 46 q-4 -21 -20 -29 q-55 9 -66.5 88 q-11.5 79 -9.5 126 q-2 40 2 139 q4 99 40 111 q9 0 15 -8 q9 -28 8.5 -165 q-0.5 -137 11.5 -197 q5 -28 33 -34 q91 -25 187 -20 l17 0 q-39 58 -31 128 q6 121 17 242 l-1 0 q-23 -1 -83.5 -12 q-60.5 -11 -79.5 -19 q-8 -5 -17 -6 q-12 1 -13 14 q7 41 53 50 q46 9 53 25 q7 15 56 94 q49 79 56 123 q-3 6 -27.5 7.5 q-24.5 1.5 -33.5 1.5 q-31 -1 -103.5 6 q-72.5 7 -81.5 34 q2 5 6 9 q27 4 199 7.5 q172 3.5 226 3.5 ZM556 436 q-57 -13 -114 -25 q-6 -41 -7 -82 q47 4 93 8 q21 -1 41 -6 q-3 54 -13 105 ZM573 279 l-146 -2 l-1 -80 q-2 -21 9 -34 q34 2 66.5 19 q32.5 17 67.5 19 q5 17 4 37 l0 41 ZM567 134 q-68 -12 -137 -28 q1 -41 5 -82 q68 -1 134 6 l20 3 q4 0 5 2 l-1 0 l-4 0 q-25 11 -33 34 q9 30 17 60 l-6 5 Z" /><glyph glyph-name="uni82D7" unicode="&#x82d7;" d="M349 793 q39 -4 45 -48.5 q6 -44.5 4 -75.5 q80 11 161 15 q3 19 12 56 q9 37 27 41 q34 -12 43 -48 q-1 -23 -4 -46 q108 12 218 13 q53 0 65 -49 q-7 -13 -25 -11 q-137 -15 -275 -15 q-8 -42 -25 -118.5 q-17 -76.5 -61 -85.5 q-20 1 -30 16 q10 91 40 181 q-73 -7 -146 -12 q1 -56 1 -112 q3 -24 -11 -38 q-10 2 -26.5 17 q-16.5 15 -24.5 23 q-1 55 -5 110 q-67 2 -135 2 q-23 -1 -65 4.5 q-42 5.5 -47 32.5 q7 15 60.5 17.5 q53.5 2.5 75.5 2.5 l110 3 q0 24 -1 47 q-1 13 2 43.5 q3 30.5 17 34.5 ZM582 402 q105 -4 149 -77.5 q44 -73.5 43 -169.5 q3 -80 -23 -165.5 q-26 -85.5 -120 -92.5 q-97 1 -156.5 24 q-59.5 23 -144.5 58 q12 -37 16 -76 q2 -13 -10 -15 q-40 5 -55 52.5 q-15 47.5 -21 81.5 q-4 16 -15 44 q-11 28 -12 41 q6 45 12 91 q-1 20 4 60.5 q5 40.5 26 45.5 q10 -2 20 -5 q13 6 100 51.5 q87 45.5 187 51.5 ZM603 341 q-14 0 -47.5 -4.5 q-33.5 -4.5 -38.5 -15.5 q22 -51 15 -106 q47 9 95 9 q38 -3 75 -7 q3 9 4 17 q5 108 -103 107 ZM468 273 q2 21 -6 35 q-14 -2 -51 -23 q-37 -21 -52 -31 q-45 -19 -52 -66 q0 -12 5 -24 q79 20 156 42 l0 67 ZM706 164 q-89 0 -175 -18 q2 -74 3 -148 q3 -19 -10 -29 q-49 6 -54.5 66.5 q-5.5 60.5 -2.5 99.5 q-29 -7 -87.5 -21.5 q-58.5 -14.5 -65.5 -39.5 q1 -21 6 -41 q62 -31 117 -51 q55 -20 126 -21 q46 -4 85 17 q29 24 43.5 73 q14.5 49 14.5 86 l0 27 Z" /><glyph glyph-name="uni79D2" unicode="&#x79d2;" d="M365 668 q40 -4 46 -45 q-2 -16 -25.5 -24.5 q-23.5 -8.5 -38.5 -12.5 q1 -83 5 -167 q45 18 92 23 q40 -9 49 -49 q-7 -19 -63 -34 q-56 -15 -80 -20 l0 -52 q1 -49 -1 -170.5 q-2 -121.5 -13 -157.5 q-3 -9 -12 -11 q-37 14 -43 56 q5 130 9 260 q0 26 -4 51 q-39 -12 -90 -30.5 q-51 -18.5 -89 -20.5 q-49 4 -57 52 l4 7 q123 23 235 79 q6 84 8 167 q-40 -6 -81 -8 q-31 -1 -83.5 10.5 q-52.5 11.5 -58.5 49.5 q2 4 6 4 q39 9 82 8 q68 0 132 18 q35 14 71 17 ZM433 251 q24 -2 37.5 -28.5 q13.5 -26.5 13.5 -48.5 q0 -17 -8.5 -43 q-8.5 -26 -27.5 -29 q-21 2 -38 25.5 q-17 23.5 -18 43.5 q1 16 13.5 46.5 q12.5 30.5 27.5 33.5 ZM198 242 q24 -10 24 -40 q-2 -34 -26.5 -116 q-24.5 -82 -51.5 -92 q-36 13 -42 52 q5 28 42.5 107 q37.5 79 53.5 89 ZM765 654 q28 -6 27 -37 q-7 -108 -14 -217 q1 -106 3 -212 q-6 -2 -13 -2 q-37 6 -45 62 q-8 56 -6 88 q-1 55 6.5 179 q7.5 124 41.5 139 ZM894 555 q37 -5 45.5 -53 q8.5 -48 6.5 -79 q0 -9 -3 -19 l-5 -2 q-25 4 -49 39.5 q-24 35.5 -26 60.5 q1 10 11.5 30.5 q10.5 20.5 19.5 22.5 ZM601 534 q40 -12 37 -58 q-1 -23 -11 -82 q-10 -59 -18 -77 l0 -3 q6 -12 11 -25 q-4 -30 -28 -50 q-42 17 -52 57 q2 39 20.5 113 q18.5 74 29.5 119 q4 6 11 6 ZM881 329 q41 -11 41 -56 q-5 -70 -76 -176 q-71 -106 -142 -117 q-21 0 -47.5 14.5 q-26.5 14.5 -29.5 36.5 q11 16 36 7 q80 10 131.5 111.5 q51.5 101.5 76.5 171.5 q3 7 10 8 Z" /><glyph glyph-name="uni90A3" unicode="&#x90a3;" d="M340 667 q96 3 159.5 -34 q63.5 -37 65.5 -143 q1 -85 -21 -167 q-16 -56 -58.5 -164 q-42.5 -108 -76.5 -146 q-17 -15 -40 -15 q-76 14 -125 79 l0 -9 q1 -10 -2 -30 q-3 -20 -15 -22 q-43 10 -48 54 q3 47 6 93 q-10 13 -31 8 q-47 -1 -65 42 q23 27 53 39 q12 -5 11 -18 q4 -2 8 -2 q15 -1 29 6 q6 9 11 57 q5 48 5 65 q-8 14 -61.5 19 q-53.5 5 -61.5 45 q4 9 33.5 11 q29.5 2 40.5 2 q32 0 63 -2 l0 9 q-1 18 3 53.5 q4 35.5 23 39.5 q34 -4 36.5 -43 q2.5 -39 0.5 -66 l36 1 q22 0 46.5 -11.5 q24.5 -11.5 26.5 -36.5 q-5 -16 -50 -14 q-45 2 -63 3 q-8 -51 -12 -103 l2 -3 q19 3 43 15.5 q24 12.5 26 14.5 q12 -2 26 -21 q14 -19 15 -32 q-5 -25 -50 -33.5 q-45 -8.5 -66 -22.5 q-12 -23 -11 -53 q-1 -14 4 -26 q8 -11 33.5 -26 q25.5 -15 39.5 -16 q26 4 46 41 q20 37 29 60 q84 162 95 341 q2 66 -18 82.5 q-20 16.5 -84 13.5 q-115 -8 -230 -17 q-25 -1 -57 6.5 q-32 7.5 -35 37.5 q7 11 22 9 q122 15 243 29 ZM778 644 q45 1 85.5 -20.5 q40.5 -21.5 43.5 -71.5 q-11 -67 -44 -131 q29 -25 59 -58 q30 -33 32 -73 q-3 -42 -42 -92.5 q-39 -50.5 -82 -55.5 q-97 7 -99 105 q-1 16 6 24 q6 -4 19 -32 q13 -28 31 -32 q30 4 63.5 44 q33.5 40 36.5 69 q-5 34 -43 59 q-38 25 -43 70 q3 33 20.5 71.5 q17.5 38.5 20.5 54.5 q-5 12 -48 11 q-43 -1 -61 -2 q-19 -1 -43 5 q-24 6 -26 29 q5 17 50 22 q45 5 64 4 ZM688 530 q36 -13 42 -53 q-1 -78 -15.5 -305 q-14.5 -227 -24.5 -262 q-5 -4 -11 -5 q-29 2 -36 28.5 q-7 26.5 -6 50.5 q0 83 11 278.5 q11 195.5 27 254.5 q3 11 13 13 Z" /><glyph glyph-name="uni4F60" unicode="&#x4f60;" d="M280 658 q34 -10 39 -46 q-7 -37 -63 -127 q-56 -90 -82 -134 q89 -38 100.5 -117.5 q11.5 -79.5 6.5 -164.5 q1 -14 -2 -50 q-3 -36 -15 -41 q-55 13 -56 73 q3 53 5 105 q1 20 -2.5 69.5 q-3.5 49.5 -17.5 55.5 q-32 -2 -56 -18 q-24 -16 -38 -18 q-16 1 -33.5 18.5 q-17.5 17.5 -19.5 33.5 q11 26 97.5 169.5 q86.5 143.5 112.5 178.5 q10 12 24 13 ZM521 721 q22 -8 21.5 -72.5 q-0.5 -64.5 -2.5 -91.5 q-3 -21 9 -32 q27 3 55 11 q59 11 120 11 q50 1 116.5 -22.5 q66.5 -23.5 72.5 -79.5 q-4 -21 -42 -48 q-38 -27 -59 -29 q-19 7 -32 25 q9 14 31.5 42.5 q22.5 28.5 25.5 37.5 q-4 10 -39 13 q-35 3 -48 3 q-53 -2 -105 -16 q-52 -14 -104 -16 q-60 9 -65 71 q0 40 11 101 q11 61 34 92 ZM690 319 q37 -9 45 -87 q8 -78 6 -116 q1 -31 -6 -96.5 q-7 -65.5 -40 -73.5 q-27 2 -52 30 q-25 28 -27 55 q0 5 4 7 q19 -14 36 -23 q17 8 21.5 77 q4.5 69 3.5 96 q0 32 -1 63 q0 10 1 37.5 q1 27.5 9 30.5 ZM527 283 q36 -9 29 -50 q-1 -63 -11 -126 q-2 -24 -11.5 -81.5 q-9.5 -57.5 -22.5 -64.5 q-40 11 -48 53 q2 34 22.5 138 q20.5 104 31.5 127 q4 4 10 4 ZM852 251 q38 -2 59 -35 q21 -33 21 -68 q6 -47 -35 -59 q-38 3 -56 38 q-18 35 -18 69 q-5 42 29 55 Z" /><glyph glyph-name="uni5E74" unicode="&#x5e74;" d="M279 796 q27 -1 34 -25 q-3 -28 -28.5 -84 q-25.5 -56 -32.5 -106 q139 12 275 43 q99 29 200 39 q12 -1 28 -17 q16 -16 18 -28 q-14 -30 -120 -44.5 q-106 -14.5 -129 -27.5 q5 -2 10 -5 q34 -26 35.5 -61.5 q1.5 -35.5 20.5 -39.5 q43 9 86 18 q45 -7 57 -49 q0 -3 -2 -7 q-17 -13 -72 -24 q-55 -11 -81 -15 q1 -75 -8 -149 q130 32 262 42 q12 -1 30 -16.5 q18 -15.5 20 -26.5 q-15 -27 -135.5 -42 q-120.5 -15 -169.5 -29 q-17 -23 -14 -124.5 q3 -101.5 -24 -115.5 q-31 2 -41.5 27.5 q-10.5 25.5 -9.5 52.5 q1 74 6 148 q-135 -35 -275 -31 q-23 -1 -61 8 q-38 9 -42 37 q4 11 36 13 q32 2 46 1 q58 -1 115 10 q3 79 17 156 q-17 -5 -34 -5 q-15 0 -37.5 9.5 q-22.5 9.5 -24.5 25.5 q7 13 64 25.5 q57 12.5 80 16.5 l132 26 q2 53 3 106 q2 11 -7 18 l-4 -1 q-90 -24 -184 -28 q-40 -1 -85.5 17.5 q-45.5 18.5 -49.5 63.5 q2 37 31 113 q29 76 65 85 ZM508 347 q-19 0 -59 -6.5 q-40 -6.5 -56 -13.5 q-9 -62 -10 -125 q-2 -13 7 -19 q15 1 55 8 q40 7 52 12 q9 72 11 144 Z" /><glyph glyph-name="uni8D77" unicode="&#x8d77;" d="M278 767 q27 -4 38.5 -40 q11.5 -36 11.5 -61 q-2 -19 7 -30 q34 2 66.5 19 q32.5 17 67.5 19 q35 -7 49 -43 q-9 -22 -77.5 -40.5 q-68.5 -18.5 -97.5 -25.5 q-1 -66 7 -131 q66 16 131 21 q47 -2 60 -44 q-6 -19 -28 -18 q-151 -22 -299 -57 q-44 -13 -90 -16 q-28 4 -39 29 l1 2 q95 38 192 67 q7 66 7 131 q-28 -6 -58 -7 q-34 5 -45 35 q10 14 40.5 24.5 q30.5 10.5 49.5 15.5 q-5 61 -5 121 q-3 20 11 29 ZM325 315 q14 -4 20.5 -40.5 q6.5 -36.5 9.5 -52.5 q19 10 40 30 q21 20 41 22 q10 -2 26.5 -16.5 q16.5 -14.5 18.5 -24.5 q-14 -21 -43 -28 q-43 -15 -55.5 -33.5 q-12.5 -18.5 -11.5 -63.5 l0 -49 q40 -22 97 -50.5 q57 -28.5 101 -31.5 q35 6 70 13 q25 0 25 -24 q-7 -52 -60 -54 q-57 9 -198 83.5 q-141 74.5 -158 99.5 q5 14 21 12 q19 -3 37 -7 l2 1 q-5 58 -9 118 q-1 17 4 54.5 q5 37.5 22 41.5 ZM213 207 q33 -9 30 -46 q-2 -38 -30 -125.5 q-28 -87.5 -61 -98.5 q-30 4 -37 33 q3 16 27.5 71.5 q24.5 55.5 33.5 81.5 q4 14 15 47 q11 33 22 37 ZM788 619 q74 -8 95 -89.5 q21 -81.5 19 -144.5 q7 -37 -26 -44 q-14 0 -27 8 q-19 25 -21.5 113 q-2.5 88 -26.5 100 q-83 -13 -167 -26 q-40 -2 -52 31 q24 16 99 33.5 q75 17.5 107 18.5 ZM812 358 q43 -6 54 -44 q-1 -4 -3 -9 q-17 -10 -61 -14.5 q-44 -4.5 -67 -4.5 q-16 -70 -20 -142 q2 -41 44 -35 q72 -12 64 59 q-2 19 7 30 q17 -4 34.5 -41 q17.5 -37 18.5 -56 q-12 -54 -73 -47 q-59 -1 -106.5 26 q-47.5 27 -50.5 92 q7 88 25 175 q20 -2 40 -3 q48 2 94 14 Z" /><glyph glyph-name="uni6C14" unicode="&#x6c14;" d="M273 828 q36 -14 42 -55 q-11 -52 -23 -104 q10 -6 25 -5 q130 4 258 29 q26 5 51 6 q16 -1 37 -15.5 q21 -14.5 23 -31.5 q-7 -17 -63.5 -25 q-56.5 -8 -79.5 -10 q-98 -14 -197 -15 q-45 -1 -82 15 q-37 16 -39 67 q1 22 17.5 79.5 q16.5 57.5 30.5 64.5 ZM598 493 q50 -3 65 -46 q-3 -14 -29.5 -19.5 q-26.5 -5.5 -40.5 -7.5 q-138 -25 -277 -26 q-22 -1 -46.5 6 q-24.5 7 -26.5 33 q2 9 21.5 12 q19.5 3 27.5 3 q143 19 285 43 q11 2 21 2 ZM587 313 q42 2 89 -12 q47 -14 51 -66 q-8 -36 -62.5 -121.5 q-54.5 -85.5 -62.5 -146.5 q0 -13 13 -13 q29 3 79 36 q50 33 56 61 q-9 29 -20 58 l5 3 q25 -4 54 -38.5 q29 -34.5 32 -59.5 q-7 -47 -73.5 -86.5 q-66.5 -39.5 -112.5 -41.5 q-39 1 -71 28.5 q-32 27.5 -34 67.5 q7 77 55 160.5 q48 83.5 55 102.5 q0 6 -6 5 q-168 -10 -337 -21 q-26 -1 -59.5 6.5 q-33.5 7.5 -36.5 38.5 q2 9 21.5 10 q19.5 1 28.5 0 q168 15 336 29 Z" /><glyph glyph-name="uni7403" unicode="&#x7403;" d="M897 737 q20 -1 41 -20.5 q21 -19.5 23 -39.5 q-6 -37 -44 -39 q-51 3 -59 53 q2 39 39 46 ZM697 669 q-3 19 11 29 q33 -7 39.5 -68.5 q6.5 -61.5 7.5 -92.5 q86 6 172 14 q24 -16 32 -40 q-11 -17 -94.5 -23 q-83.5 -6 -105.5 -6 q4 -108 4 -216 q1 -50 -16 -172 q-17 -122 -58 -137 q-22 2 -41.5 25.5 q-19.5 23.5 -20.5 44.5 q-1 9 7 12 q7 0 11 -6 l6 -5 q14 15 18 40 q36 132 31 269 l0 138 q-87 -1 -172 -26 q-7 -3 -15 -4 q-21 8 -26 31 q10 22 93.5 37 q83.5 15 117.5 21 l-1 135 ZM369 564 q50 3 64 -40 q-7 -13 -65 -19 q-58 -6 -82 -8 q2 -8 7 -15 q8 -20 12.5 -70 q4.5 -50 4.5 -75 q27 1 54 2 q31 -6 42 -37 q-5 -12 -43.5 -20.5 q-38.5 -8.5 -54.5 -9.5 q-3 -72 -6 -144 l4 -5 q56 8 111 16 q26 3 25 -23 q-10 -41 -95.5 -53.5 q-85.5 -12.5 -126.5 -11.5 q-24 -1 -49 7 q-25 8 -27 36 q14 28 51 25 q17 -4 34 -8 q9 2 10.5 19 q1.5 17 0.5 26 q4 50 7 99 l-4 8 q-55 -5 -111 -10 q-43 1 -55 39 q8 22 33 25 q14 -4 27 -8 q55 4 108 16 l3 72 q6 46 11 91 l-4 3 q-38 4 -122 11 q-84 7 -94 42 q15 11 38 8 q45 -1 89 -2 q102 7 203 14 ZM543 399 q28 -2 52 -29.5 q24 -27.5 26 -55.5 q-7 -37 -47 -34 q-30 1 -56.5 25 q-26.5 24 -28.5 55 q10 40 54 39 ZM902 384 q44 -11 54 -56 q-3 -34 -36 -40 q-24 1 -48 22 q-24 21 -26 46 q2 17 21.5 22.5 q19.5 5.5 34.5 5.5 ZM562 215 q41 -14 48 -54 q-1 -17 -19.5 -35.5 q-18.5 -18.5 -35.5 -19.5 q-14 2 -29.5 23 q-15.5 21 -20.5 34 q10 10 28 29.5 q18 19.5 29 22.5 ZM877 187 q23 -2 44.5 -24 q21.5 -22 23.5 -45 q-5 -29 -36 -29 q-21 1 -44 21.5 q-23 20.5 -25 42.5 q5 31 37 34 Z" /><glyph glyph-name="uni65E5" unicode="&#x65e5;" d="M568 638 q125 -15 157 -165.5 q32 -150.5 27 -257.5 q2 -68 -23 -141.5 q-25 -73.5 -104 -79.5 q-47 3 -92 22 q-45 19 -83 22 q-5 0 -9 -4 q-2 -8 -11 -7 q-20 2 -45 23 q-25 21 -27 41 q-3 26 -27.5 73 q-24.5 47 -27.5 99 q-1 13 10 20 q15 23 14.5 86.5 q-0.5 63.5 -1.5 95.5 q-1 29 6 84.5 q7 55.5 39 61.5 q32 -11 42 -47 q68 61 155 74 ZM587 576 q-51 -4 -117.5 -53.5 q-66.5 -49.5 -72.5 -101.5 q-1 -24 4.5 -69 q5.5 -45 29.5 -50 q36 1 122 15 q86 14 112 27 l1 12 q1 95 -26 186 q-8 43 -53 34 ZM672 235 q4 20 -15 24 q-22 -2 -45 -9 q-96 -18 -194 -18 q1 -30 7.5 -78.5 q6.5 -48.5 31.5 -65.5 q54 -24 112 -25 q68 4 86.5 59 q18.5 55 16.5 113 ZM344 208 q-1 24 -18 34 q-10 -7 -8 -21 q5 -29 27 -43 q2 8 2 15 q0 8 -3 16 l0 -1 Z" /><glyph glyph-name="uni5165" unicode="&#x5165;" d="M298 639 q144 -12 252 -111 q60 -54 176 -186.5 q116 -132.5 160 -198.5 q11 -14 13 -31 q-3 -17 -21 -18 q-24 2 -48 24 q-24 22 -39 40 q-127 164 -269 314 l0 -1 q-41 33 -103 63 q-62 30 -113 41 q-17 2 -45 10 q-28 8 -31 26 q3 18 28 23.5 q25 5.5 40 4.5 ZM426 429 q33 -12 37 -49 q-11 -63 -114 -195.5 q-103 -132.5 -162 -148.5 q-59 9 -71 67 q-1 16 12 22 q14 -7 26 -24 q43 26 132 139 q89 113 118 164 q6 19 22 25 Z" /><glyph glyph-name="uni50BB" unicode="&#x50bb;" d="M577 838 q17 -2 35 -20.5 q18 -18.5 20 -35.5 q-1 -16 -18.5 -38 q-17.5 -22 -33.5 -24 q-27 0 -54 4 q2 29 3.5 69.5 q1.5 40.5 47.5 44.5 ZM806 736 q75 -3 84 -76 q-1 -45 -9 -88 q-10 -119 -52 -202.5 q-42 -83.5 -179 -87.5 q-64 -3 -124 21 q-25 12 -52 16 q-48 12 -58.5 61 q-10.5 49 -12.5 92 q-7 58 -9 118 q-1 16 3.5 53 q4.5 37 20.5 41 q18 -4 21.5 -37.5 q3.5 -33.5 4.5 -50.5 l1 0 q48 9 166 70 q118 61 195 70 ZM832 674 q2 12 -9 14 q-19 -2 -70.5 -21 q-51.5 -19 -73.5 -28 q6 -12 11 -29 q-2 -24 -20 -63.5 q-18 -39.5 -30 -63.5 q22 -6 58.5 -19.5 q36.5 -13.5 40.5 -36.5 q-2 -11 -14 -11 q-48 6 -95 27 q-11 -6 -24 -43 q-13 -37 -35 -42 q-29 6 -34 35 q13 41 26 81 q-3 11 -24.5 25.5 q-21.5 14.5 -24.5 35.5 q0 4 2 7 l5 1 q29 -13 60 -29 q28 48 46 101 q-90 -38 -182 -72 q2 -36 12.5 -98 q10.5 -62 36.5 -84 q25 -13 65.5 -17 q40.5 -4 69.5 -4 q118 6 152.5 92 q34.5 86 43.5 185 q6 29 7 57 ZM253 574 q30 -9 29 -43 q-4 -29 -41 -70.5 q-37 -41.5 -58 -65.5 q48 -44 58 -92 q10 -48 13 -110 q1 -17 4.5 -46 q3.5 -29 10.5 -42 q8 -10 8 -23 q2 -16 -10 -24 q-68 14 -70 124.5 q-2 110.5 -19 145.5 q-32 -24 -68 -33 q-36 9 -53 44 q12 32 94 127.5 q82 95.5 102 107.5 ZM534 270 q17 0 24 -14 q-6 -28 -57 -106.5 q-51 -78.5 -68 -88.5 q-28 11 -36 41 q6 31 57 95.5 q51 64.5 80 72.5 ZM709 255 q14 -1 23 -11 q30 -14 94 -13.5 q64 0.5 71 -41.5 q-2 -18 -22 -16 q-39 -1 -104 14 q-65 15 -72 57 q0 10 10 11 ZM611 211 q28 -2 31 -29 q-2 -24 -8 -46 q38 26 82 31 q64 -10 67 -76 q-4 -42 -21 -82 q21 -4 56 -13.5 q35 -9.5 39 -32.5 q-2 -22 -26 -20 q-49 5 -96 22 q-11 -21 -30.5 -47.5 q-19.5 -26.5 -43.5 -28.5 q-43 7 -53 48 q3 11 14 5 q32 13 49 48 q-10 7 -29 20 q-19 13 -29 15 q-8 -12 -23.5 -34.5 q-15.5 -22.5 -27.5 -25.5 q-35 9 -44 43 q4 30 39 111.5 q35 81.5 54 91.5 ZM728 103 q-1 5 -7 6 q-44 -13 -81 -49 q3 -7 23.5 -16.5 q20.5 -9.5 29.5 -10.5 q8 13 21 35 q13 22 14 35 Z" /><glyph glyph-name="uni4E0A" unicode="&#x4e0a;" d="M428 687 q51 -12 57 -111.5 q6 -99.5 6 -143.5 l6 -64 q117 16 236 19 q52 -3 70 -49 l-3 -6 q-34 -12 -143 -18 q-109 -6 -156 -6 l0 -16 q1 -42 14 -100 q13 -58 22 -103 q4 -4 10 -3 q74 2 146.5 17.5 q72.5 15.5 146.5 17.5 q40 6 50 -29 q-22 -48 -206 -63.5 q-184 -15.5 -260 -14.5 q-34 -1 -126.5 4 q-92.5 5 -104.5 32 q6 20 51.5 21 q45.5 1 63.5 0 q27 0 88 3 q61 3 79 13 l-1 1 q-42 83 -53 265 q-11 182 -10 283 q-1 10 2 29.5 q3 19.5 15 21.5 Z" /><glyph glyph-name="uni751F" unicode="&#x751f;" d="M359 722 q23 -2 28 -24 q-75 -146 -147 -296 l1 0 q27 3 132.5 25.5 q105.5 22.5 129.5 30.5 q14 108 19 217 q-7 29 21 33 q34 -7 35 -64.5 q1 -57.5 -1 -85.5 q0 -42 4 -84 q43 5 84 20.5 q41 15.5 84 17.5 q17 -1 35.5 -17 q18.5 -16 20.5 -33 q-9 -11 -25 -14 q-29 -8 -108.5 -25.5 q-79.5 -17.5 -93.5 -24.5 q-5 -13 -8.5 -71.5 q-3.5 -58.5 -3.5 -80.5 l165 8 q30 -21 41 -51 q0 -7 -7 -10 q-12 -2 -93.5 -7.5 q-81.5 -5.5 -104.5 -6.5 q-6 -76 -7 -152 q112 8 216 48 q16 -2 33 -19.5 q17 -17.5 18 -33.5 q-18 -33 -162.5 -48 q-144.5 -15 -205.5 -15 q-65 -7 -117 30 q-12 9 -17 22 q5 11 50 13 q45 2 63 1 q50 -3 99 5 l-3 2 q-40 24 -40 58.5 q0 34.5 -4 76.5 q-38 -12 -77 -16 q-14 1 -33 14 q-19 13 -22 27 q15 20 64.5 31 q49.5 11 76.5 15 q4 74 4 147 q-124 -37 -252 -49 q-29 0 -58.5 16 q-29.5 16 -31.5 48 q7 56 77.5 181.5 q70.5 125.5 120.5 140.5 Z" /><glyph glyph-name="uni65F6" unicode="&#x65f6;" d="M132 575 q33 -6 35 -41 q-1 -11 6 -16 q45 8 89 15 q57 -3 82.5 -49 q25.5 -46 24.5 -97 q3 -17 20.5 -16.5 q17.5 0.5 19.5 -11.5 q-2 -13 -20 -24 q-18 -11 -25 -28 q-9 -51 -33 -119.5 q-24 -68.5 -83 -75.5 q-45 6 -87 24 q-3 -11 -4 -27.5 q-1 -16.5 -15 -18.5 q-40 4 -49 43.5 q-9 39.5 -7 73.5 q-2 60 5 205 q7 145 41 163 ZM304 473 q-19 2 -39 2 q-97 -2 -103 -98 q0 -15 2 -30 q72 4 143 16 q-3 55 -3 110 ZM289 286 q-2 6 -18 7.5 q-16 1.5 -22 1.5 l-93 -1 l0 -72 q-4 -54 52 -46 q14 -1 26 3 q12 8 32.5 49.5 q20.5 41.5 22.5 57.5 ZM709 588 q26 -3 37.5 -36 q11.5 -33 13.5 -56 q56 5 111 5 q19 0 43 -11.5 q24 -11.5 26 -32.5 l-4 -9 q-20 -11 -82.5 -13.5 q-62.5 -2.5 -91.5 -2.5 q29 -160 22 -325 q1 -27 -5.5 -73.5 q-6.5 -46.5 -38.5 -51.5 q-42 4 -66.5 51 q-24.5 47 -25.5 86 q0 3 2 6 q26 -25 48 -53 q9 6 11 47 q2 41 2 57 q-2 126 -14 252 q-73 -7 -147 -9 q-25 0 -69.5 11 q-44.5 11 -49.5 38 q2 9 19 11 q17 2 25 2 q109 7 217 12 q-1 21 -2 42 q-1 12 2 31.5 q3 19.5 17 21.5 ZM542 321 q32 -2 48 -31 q16 -29 16 -58 q4 -39 -30 -50 q-67 13 -74 82 q0 45 40 57 Z" /><glyph glyph-name="uni9996" unicode="&#x9996;" d="M642 820 q25 -2 54.5 -26.5 q29.5 -24.5 32.5 -50.5 q-7 -35 -45 -35 q-69 5 -82 70 q4 38 40 42 ZM328 788 q69 -11 80 -80 q0 -40 -40 -45 q-30 2 -54 28 q-24 26 -25 56 q2 38 39 41 ZM855 605 q39 -4 49 -40 q-17 -33 -152 -42.5 q-135 -9.5 -189 -8.5 q5 -15 5 -30 q-8 -52 -19 -102 l2 -1 q32 16 76 28 q78 -17 106.5 -164.5 q28.5 -147.5 26.5 -222.5 q4 -79 -15 -105 q-19 -26 -102 -24 q-134 -3 -192 46.5 q-58 49.5 -57 187.5 q-1 36 9 118.5 q10 82.5 43 92.5 q15 8 41 74 q26 66 29 91 q-29 8 -59 5 q-145 -8 -291 -16 q-14 -1 -34.5 3.5 q-20.5 4.5 -19.5 23.5 q71 33 330 47.5 q259 14.5 379 32.5 q16 5 34 6 ZM639 354 q-30 -7 -98.5 -56.5 q-68.5 -49.5 -78.5 -75.5 l5 -2 q41 13 100.5 21.5 q59.5 8.5 102.5 8.5 l3 4 q-2 20 -12.5 51.5 q-10.5 31.5 -21.5 48.5 ZM670 202 q-32 -10 -112.5 -17 q-80.5 -7 -94.5 -17 q-8 -24 -7 -52 q-1 -31 30 -29 q47 3 91 20.5 q44 17.5 91 19.5 q13 -3 25 -8 q2 4 2 7 q1 16 -3.5 44.5 q-4.5 28.5 -21.5 31.5 ZM695 16 q0 29 -2 57 q-82 -28 -168 -34 q-37 -1 -66 19 q1 -26 4 -56.5 q3 -30.5 30 -42.5 q22 -7 62 -8.5 q40 -1.5 64 -1.5 q82 -14 76 67 Z" /><glyph glyph-name="uni8F93" unicode="&#x8f93;" d="M212 749 q22 -4 25 -26 q-4 -38 -9 -77 l1 -9 q46 1 91 1 q37 0 44 -34 q-8 -21 -69.5 -20.5 q-61.5 0.5 -85.5 2.5 q-44 -149 -68 -303 l52 0 q41 -1 49.5 11 q8.5 12 7.5 51 q0 19 1.5 53 q1.5 34 12.5 47 l0 -1 q5 8 14 9 q31 -7 30.5 -67.5 q-0.5 -60.5 -2.5 -85.5 q18 2 36 3 q14 -1 31.5 -15 q17.5 -14 19.5 -28 q-4 -14 -35 -20.5 q-31 -6.5 -46 -6.5 l0 -42 q0 -22 1 -45 q27 14 57 17 q24 -4 22 -30 q-2 -29 -29 -42 q-27 -13 -51 -20 q2 -22 2 -45 q1 -11 -2 -38 q-3 -27 -16 -30 q-35 3 -40.5 34.5 q-5.5 31.5 -7.5 58.5 q-45 -15 -91 -18 q-38 -5 -49 26 q6 14 53.5 30.5 q47.5 16.5 66.5 22.5 l-1 0 q12 6 23 11 l0 100 q-25 0 -51 -1 q-41 -1 -81.5 14.5 q-40.5 15.5 -43.5 62.5 q4 75 31 148 q27 73 31 144 q-7 9 -52.5 14 q-45.5 5 -52.5 23 q14 20 44 16 q40 0 80 -5 q3 22 19.5 63.5 q16.5 41.5 37.5 46.5 ZM604 782 q28 -6 31 -35 q-10 -59 -98 -211.5 q-88 -152.5 -130 -171.5 q-30 11 -39 43 q6 21 23 35 l-1 0 q97 123 166 266 q6 13 21 42 q15 29 27 32 ZM642 645 q25 -2 79.5 -22.5 q54.5 -20.5 85.5 -30.5 q46 -7 73 -39 q4 -8 4 -17 q0 -14 -14 -14 q-37 4 -134 43.5 q-97 39.5 -109 63.5 q0 16 15 16 ZM677 478 q35 -7 41 -43 q-8 -17 -69.5 -37 q-61.5 -20 -86.5 -22 q-31 0 -38 29 q8 14 69 42 q61 28 84 31 ZM841 333 q6 7 15 7 q45 -10 65 -54 q18 -56 14 -116 q2 -40 -2.5 -129 q-4.5 -89 -32.5 -100 q-15 4 -49 34 q-34 30 -39 44 q29 -6 56 -16 q10 33 12.5 107.5 q2.5 74.5 2.5 116.5 q5 41 -23 67 q-20 6 -26 24 q1 9 8 15 l-1 0 ZM613 315 q75 -12 86 -123 q11 -111 7 -178 q1 -19 -3.5 -53.5 q-4.5 -34.5 -26.5 -38.5 q-34 9 -41 44 l5 5 q6 3 7.5 25.5 q1.5 22.5 1.5 31.5 l0 7 q-80 -15 -162 -12 q2 -12 3 -25 q-1 -8 -3 -16 q-5 -2 -10 -3 q-48 13 -46 66 q-1 43 10.5 147.5 q11.5 104.5 46.5 117.5 q21 -6 17 -30 q0 -23 -4 -46 q22 24 50.5 51.5 q28.5 27.5 61.5 29.5 ZM629 264 q-26 -4 -60 -40 q-34 -36 -45 -61 q57 12 116 17 q5 0 9 2 q0 13 -6 45.5 q-6 32.5 -14 36.5 ZM638 129 q-20 -1 -72 -11.5 q-52 -10.5 -65 -19.5 q-9 -9 -9 -22 q-2 -8 6 -9 q26 0 85 10.5 q59 10.5 66 31.5 q5 18 -11 20 ZM767 291 q29 -7 34.5 -64 q5.5 -57 4.5 -83 q1 -13 0.5 -37.5 q-0.5 -24.5 -13.5 -27.5 q-37 6 -40.5 63 q-3.5 57 -1.5 89 q0 10 2.5 33.5 q2.5 23.5 13.5 26.5 Z" /><glyph glyph-name="uni5929" unicode="&#x5929;" d="M513 689 q51 1 161.5 -4.5 q110.5 -5.5 146.5 -22.5 q25 -15 30 -43 q0 -3 -2 -6 q-3 -2 -8 -2 q-42 0 -85 5 q-151 11 -303 8 q-34 0 -125 0.5 q-91 0.5 -111 4.5 q-27 9 -38 32 q5 9 45.5 13.5 q40.5 4.5 57.5 5.5 q116 8 231 9 ZM479 610 q33 -7 40 -66.5 q7 -59.5 5 -88.5 q-2 -62 -5 -124 q80 -3 160 -1 q59 3 74 -49 q-11 -21 -38 -17 q-105 0 -210 5 q-10 -55 -44 -169.5 q-34 -114.5 -85 -127.5 q-25 4 -27 30 q5 66 38.5 132 q33.5 66 38.5 132 q-2 5 -19.5 6.5 q-17.5 1.5 -24.5 1.5 q-93 -3 -187 -7 q-40 -5 -54 27 l3 7 q24 14 105 21 q81 7 118 7 q14 -1 44 1.5 q30 2.5 36 14.5 q15 77 15 156 q0 17 2.5 60.5 q2.5 43.5 14.5 48.5 ZM696 123 q62 -11 72 -74 q0 -45 -40 -57 q-26 2 -51 29.5 q-25 27.5 -27 52.5 q1 13 17 30 q16 17 29 19 Z" /><glyph glyph-name="uni542C" unicode="&#x542c;" d="M848 659 q17 -1 36 -17 q19 -16 21 -34 q-10 -18 -90.5 -22 q-80.5 -4 -112.5 -3 l-59 0 q-35 -2 -97 6.5 q-62 8.5 -69 48.5 q105 13 210 8 q84 7 161 13 ZM63 547 q26 -10 31 -43 q49 8 97 15 q93 -2 149.5 -60 q56.5 -58 58.5 -151 q1 -45 -12 -70.5 q-13 -25.5 -46 -55.5 q-54 -62 -134 -72 q-43 2 -79 28 l-39 26 q-36 33 -46.5 124.5 q-10.5 91.5 -9.5 142.5 q-1 21 4.5 66 q5.5 45 25.5 50 ZM200 465 q-38 1 -70.5 -15 q-32.5 -16 -34.5 -59 q1 -23 10 -83.5 q9 -60.5 17 -70.5 q29 13 58 25 l1 -3 l-3 -7 q-7 -10 -15.5 -33.5 q-8.5 -23.5 -9.5 -35.5 q3 -10 14 -9 q41 3 86 39 q45 36 67 70 q16 29 13 63 q3 134 -133 119 ZM544 549 q27 -4 33.5 -40.5 q6.5 -36.5 5.5 -59.5 q-1 -71 -9 -142 q55 22 169 55.5 q114 33.5 167 36.5 q41 -4 46 -45 q-10 -20 -91 -37.5 q-81 -17.5 -114 -22.5 q-37 -8 -91 -19 q-54 -11 -89 -6 q-5 -70 -4 -141 q3 -15 -11 -19 q-32 2 -45.5 31 q-13.5 29 -13.5 57 q1 45 13 177 q12 132 20 163 q3 11 14 12 ZM744 242 q-1 11 9 10 q41 -9 56.5 -84 q15.5 -75 14.5 -114 q1 -21 -4 -69 q-5 -48 -26 -54 q-25 2 -36 26 q-11 24 -11 45 q2 31 3 61 q-3 90 -6 179 Z" /><glyph glyph-name="uni6211" unicode="&#x6211;" d="M560 762 q40 -7 49 -45 q-4 -17 -24 -20 q-92 -27 -198 -48 q-106 -21 -201 -22 q-17 0 -41 10.5 q-24 10.5 -26 29.5 q0 12 9 16 q13 1 35.5 5 q22.5 4 31.5 2 l0 1 q8 0 15 3 q37 11 76 14 l0 -1 q61 9 139.5 30.5 q78.5 21.5 134.5 24.5 ZM804 654 q24 -3 39.5 -32.5 q15.5 -29.5 15.5 -52.5 q-3 -43 -46 -49 q-22 2 -39 26.5 q-17 24.5 -18 45.5 q2 50 48 62 ZM347 644 q36 -8 47 -79 q11 -71 10 -106 l18 3 l-1 0 q74 12 144 35 q-14 46 -23 93 q2 12 14 14 q22 -5 36.5 -43 q14.5 -38 21.5 -45 q10 7 22 7 q42 -2 52 -41 q-11 -28 -41 -39 l-8 -4 q3 -23 30.5 -84.5 q27.5 -61.5 41.5 -86.5 q17 18 53 54 q36 36 55 40 q28 -4 29 -34 q-3 -36 -37.5 -72.5 q-34.5 -36.5 -58.5 -63.5 q5 -18 40.5 -58 q35.5 -40 51.5 -45 q27 -12 26 -46 q-2 -15 -18 -14 q-21 4 -53 36 q-32 32 -47 51 l1 0 q-18 21 -37 41 q-55 -44 -121 -59 q-17 2 -36 20.5 q-19 18.5 -21 35.5 q7 17 27 14 q49 10 88 46 l0 -1 l20 20 q-48 87 -79 181 q-2 8 -11 6 q-17 -2 -90.5 -16.5 q-73.5 -14.5 -84.5 -17.5 q-2 -34 -2 -69 q-2 -21 4 -39 q42 22 88 26 q17 2 21 -13 q-4 -38 -43.5 -61 q-39.5 -23 -70.5 -39 q-3 -52 -23.5 -170.5 q-20.5 -118.5 -66.5 -132.5 q-26 4 -49.5 40 q-23.5 36 -25.5 61 l10 4 q18 -16 38 -26 q9 24 17 48 l0 -1 l1 3 q6 18 9 36 q12 51 16 104 q-26 -11 -73 -31 q-47 -20 -70 -22 q-34 7 -44 40 l3 8 q93 41 184 85 q8 8 9.5 40.5 q1.5 32.5 1.5 45.5 l-1 51 q-104 -22 -210 -27 q-51 1 -66 45 q10 21 38 13 q33 2 115 17 q82 15 114 25 q14 15 11 38 q-4 73 -9 144 q1 13 13 15 Z" /><glyph glyph-name="uni4E0B" unicode="&#x4e0b;" d="M872 624 q53 2 68 -43 q0 -10 -10 -15 q-33 -12 -163.5 -19.5 q-130.5 -7.5 -181.5 -7.5 q-3 -179 -4 -358 q0 -32 1 -81.5 q1 -49.5 8 -78.5 q6 -16 8 -34 q1 -11 -9 -12 q-12 1 -23 9 q-40 26 -49 72.5 q-9 46.5 -7 90.5 q-8 199 33 393 q-192 -1 -383 21 q-21 1 -59.5 8.5 q-38.5 7.5 -42.5 29.5 q2 8 12 10 q14 2 80 2 q66 0 86 0 q191 -1 380 -2 q91 -1 181 8 q38 6 75 7 ZM729 332 q26 -3 54 -38.5 q28 -35.5 30 -61.5 q-3 -32 -30 -45 q-32 3 -63.5 36 q-31.5 33 -33.5 65 q4 39 43 44 Z" /><glyph glyph-name="uni5C0F" unicode="&#x5c0f;" d="M442 631 q0 8 7 9 q67 -15 81 -140.5 q14 -125.5 11 -187.5 q2 -51 -7.5 -164 q-9.5 -113 -55.5 -127 q-21 3 -55.5 34.5 q-34.5 31.5 -39.5 53.5 l6 6 q19 -7 36 -12 q23 11 30 103.5 q7 92.5 6 129.5 q-9 148 -19 295 ZM795 400 q19 -4 51 -37.5 q32 -33.5 39 -52.5 q3 -14 3 -29 q1 -20 -5 -46.5 q-6 -26.5 -31 -28.5 q-53 4 -71 50 q-18 46 -17 92 q-6 43 31 52 ZM177 370 q26 -3 35.5 -35.5 q9.5 -32.5 8.5 -55.5 q0 -39 -11.5 -139 q-11.5 -100 -38.5 -112 q-49 4 -55 52 q10 87 31 173 q1 20 7 65.5 q6 45.5 23 51.5 Z" /><glyph glyph-name="uni4E00" unicode="&#x4e00;" d="M783 432 q21 0 45 -12 q24 -12 26 -35 q-8 -14 -70.5 -25 q-62.5 -11 -88.5 -14 q-201 -41 -406 -46 q-34 -1 -79 14.5 q-45 15.5 -49 53.5 q0 16 15 16 q14 -12 78 -24 q189 7 374 48 q77 20 155 24 Z" /><glyph glyph-name="uni5DF2" unicode="&#x5df2;" d="M565 709 q67 1 133 -30 q66 -31 71 -106 q-3 -38 -34.5 -121.5 q-31.5 -83.5 -56.5 -108.5 q-8 -3 -11 -10 q11 -15 21 -37 q-8 -17 -73 -25.5 q-65 -8.5 -91 -9.5 q-25 -1 -85 -7 q-60 -6 -67 -20 q7 -83 23 -167 q-7 -41 33 -44 q54 -5 109 -3 q27 -1 77.5 5.5 q50.5 6.5 56.5 38.5 q-10 50 -36 99 q35 -24 73.5 -64 q38.5 -40 41.5 -83 q-5 -44 -52.5 -54 q-47.5 -10 -84.5 -8 q-40 0 -116 2 q-76 2 -106 13 q-54 28 -65 72.5 q-11 44.5 -11 99.5 q-9 126 -13 253 q0 22 5 43 q17 11 36 11 q20 -4 20.5 -38.5 q0.5 -34.5 -1.5 -52.5 q-4 -30 18 -43 q20 2 39 9 q68 11 137 18 q40 -3 51 29 q5 44 39.5 113 q34.5 69 39.5 130 q-10 34 -48 28 q-195 -10 -388 -20 q-40 -3 -68 24 q58 38 183 51.5 q125 13.5 200 12.5 Z" /><glyph glyph-name="uni518D" unicode="&#x518d;" d="M667 750 q57 -1 71 -52 q0 -3 -2 -7 q-29 -9 -62 -9 q-144 -14 -286 -40 q-124 -29 -250 -39 q-32 5 -45 36 q42 24 270.5 65.5 q228.5 41.5 303.5 45.5 ZM440 614 q29 -2 38 -29.5 q9 -27.5 14 -51.5 q52 21 108 25 q116 -15 133 -162.5 q17 -147.5 11 -244.5 q68 5 135 5 q53 5 66 -40 q-10 -18 -88.5 -25 q-78.5 -7 -111.5 -9 q-3 -36 -19 -88 q-16 -52 -56 -57 q-23 1 -51.5 22 q-28.5 21 -33.5 44 l4 1 q14 -4 30 -8 q28 2 38 30.5 q10 28.5 14 52.5 q-158 -25 -318 -26 q-23 0 -44 -4 l0 -9 q3 -36 5 -73 l-1 -11 q-5 -7 -13 -7 q-36 2 -49.5 33.5 q-13.5 31.5 -16.5 63.5 l-7 0 q-28 -1 -93 5 q-65 6 -73 32 q3 16 30 17 q27 1 41 0 q53 0 104 7 q0 70 22.5 235.5 q22.5 165.5 68.5 185.5 q19 -8 16 -32 q0 -24 -5 -47 q46 35 100 57 l0 43 q0 33 2 65 ZM626 504 q-24 -1 -63 -15.5 q-39 -14.5 -63 -24.5 l4 -34 q1 -14 4 -48 q3 -34 11 -38 q46 13 93 25 q36 -5 49 -37 l-4 -10 q-14 -9 -64 -25.5 q-50 -16.5 -71 -21.5 l-4 -149 q78 15 158 16 q2 38 -2 190 q-4 152 -48 172 ZM440 440 q-69 -34 -98.5 -67.5 q-29.5 -33.5 -28.5 -114.5 q72 28 142 61 q-2 61 -15 121 ZM455 208 q0 21 -4 42 q-69 -37 -147 -43 l0 -98 q81 2 116.5 6.5 q35.5 4.5 34.5 92.5 Z" /><glyph glyph-name="uni5728" unicode="&#x5728;" d="M541 805 q30 -16 25 -50 q-4 -49 -18 -96 q131 -10 262 -6 q28 -15 38 -43 q-9 -23 -81 -23.5 q-72 -0.5 -99 1.5 l-146 0 q-106 -203 -251 -381 q1 -59 7.5 -139 q6.5 -80 30.5 -132 q7 -11 8 -24 q0 -11 -11 -11 q-59 9 -76 94 q-17 85 -28 136 q-13 -7 -28 -9 q-40 2 -51 39 q3 15 33 42 q30 27 45 40 q-5 77 -5 153 q-4 26 12 39 q24 -5 37 -46.5 q13 -41.5 18 -64.5 q89 132 174 267 q-37 3 -125.5 9 q-88.5 6 -110.5 14 q-21 9 -26 32 q0 3 2 6 q146 5 292 5 q9 25 31 82.5 q22 57.5 41 65.5 ZM648 348 q34 -6 40 -47.5 q6 -41.5 18 -47.5 q31 3 61 5 q53 -2 66 -50 q0 -3 -2 -6 q-13 -7 -60.5 -13.5 q-47.5 -6.5 -69.5 -9.5 q-8 -72 -7 -146 q70 16 141 28 q39 -4 47 -41 q-11 -36 -102 -43 q-91 -7 -133 -5 q-31 -1 -88.5 6 q-57.5 7 -64.5 41 q5 16 44 15.5 q39 -0.5 56 -1.5 q28 6 31.5 57 q3.5 51 3.5 76 q-41 0 -82 -1 q-26 -1 -73.5 5.5 q-47.5 6.5 -52.5 33.5 q3 9 29.5 13 q26.5 4 37.5 5 q70 7 139 19 q-1 22 -2 43 q-1 14 3 37.5 q4 23.5 20 26.5 Z" /><glyph glyph-name="uni949F" unicode="&#x949f;" d="M148 767 q36 -8 41 -45 q-4 -61 -29 -119.5 q-25 -58.5 -29 -119.5 l1 -5 q50 12 109.5 34 q59.5 22 107.5 24 q42 -3 54 -42 q-20 -21 -124 -50.5 q-104 -29.5 -143 -32.5 q-70 1 -80 68 q4 33 36.5 147.5 q32.5 114.5 44.5 135.5 q5 4 11 5 ZM293 346 q30 -9 41 -37 q-4 -14 -31.5 -25.5 q-27.5 -11.5 -31.5 -37.5 q2 -34 8 -69 q27 29 62 48 q11 -2 25 -17.5 q14 -15.5 15 -26.5 q-4 -22 -43.5 -50 q-39.5 -28 -60.5 -41 l0 -43 q0 -8 1.5 -26.5 q1.5 -18.5 9.5 -21.5 q21 12 47.5 33.5 q26.5 21.5 48.5 23.5 q14 -7 12 -27 q-2 -33 -30.5 -61 q-28.5 -28 -61.5 -30 q-35 2 -60 31 q-25 29 -26 63 q2 14 -9 19 q-24 -11 -73 -22 q-21 0 -44 13.5 q-23 13.5 -25 35.5 q7 22 30 25 q16 -6 27 -13 q14 2 43.5 18.5 q29.5 16.5 44.5 25.5 l0 51 q0 26 -3 51 q-37 -17 -78 -23 q-36 3 -50 32 q9 12 26 15 q41 17 95.5 49.5 q54.5 32.5 90.5 36.5 ZM674 610 q30 -3 36 -35 q6 -32 5 -57 q76 5 148 -21 q60 -27 86 -84 q1 -5 1 -10 q-4 -44 -44.5 -72 q-40.5 -28 -74.5 -50 q16 -17 22 -38 q-6 -20 -54.5 -28.5 q-48.5 -8.5 -70.5 -11.5 q1 -43 -9.5 -152.5 q-10.5 -109.5 -42.5 -122.5 q-35 14 -33 57 q9 96 17 191 l-4 10 q-27 -4 -55 -9 q-32 5 -51 32 q-9 13 -21 22 q-34 34 -53 107 q-19 73 -19 122 q-2 12 8 16 q28 -14 43 -33 q10 6 18 14 q59 36 128 53 l0 25 q-1 14 2 43 q3 29 18 32 ZM768 463 q-25 0 -50 -4 q5 -71 11 -143 l1 0 q29 4 87 46 q58 42 65 68 q-5 22 -48.5 28 q-43.5 6 -65.5 5 ZM652 448 q-23 -6 -56 -17 q-33 -11 -45 -30 q-4 -18 -21 -13 l-5 -5 q5 -28 17.5 -70.5 q12.5 -42.5 24.5 -67.5 q50 16 97 37 q-1 29 -3.5 87 q-2.5 58 -8.5 79 Z" /><glyph glyph-name="uni732A" unicode="&#x732a;" d="M362 672 q29 -13 40 -42 q-3 -28 -28 -62.5 q-25 -34.5 -41 -60.5 q38 -60 50.5 -90 q12.5 -30 11.5 -104 q1 -51 -19.5 -155 q-20.5 -104 -71.5 -116 q-16 2 -36 22 q-20 20 -22 36 q6 13 22 7 q13 8 34.5 73.5 q21.5 65.5 24.5 90.5 l-2 3 q-17 -11 -86.5 -71.5 q-69.5 -60.5 -124.5 -68.5 q-32 0 -41 28 q6 21 27 32 q125 88 229 200 q-1 43 -21 79 q-28 -30 -97 -97 q-69 -67 -99 -75 q-33 3 -43 35 q22 23 85.5 94 q63.5 71 71.5 86 q-34 9 -105.5 35.5 q-71.5 26.5 -79.5 57.5 q0 8 8 8 q35 -4 101 -34 q66 -30 107 -34 q18 6 52.5 54.5 q34.5 48.5 52.5 68.5 ZM627 786 q30 -4 35 -42 q5 -38 6 -63 q57 6 113 8 q49 0 64 -43 q-4 -9 -14 -10 q-31 -9 -81.5 -12 q-50.5 -3 -84.5 -3 q3 -68 11 -134 q-3 -29 24 -26 q25 4 47 43.5 q22 39.5 36 61.5 q25 -10 31 -37 q-3 -31 -19 -60 q30 2 60 3 q49 0 64 -42 l-4 -9 q-16 -6 -73 -12 q-57 -6 -83 -8 q-17 -21 -60.5 -83.5 q-43.5 -62.5 -50.5 -78.5 q18 -27 31 -55 q46 85 140 95 q85 -7 111.5 -86 q26.5 -79 24.5 -152 q-3 -56 -52 -84.5 q-49 -28.5 -101 -28.5 q-47 0 -112 27.5 q-65 27.5 -71 78.5 q3 38 6 76 q0 52 -2 104 q-22 -32 -73 -91 q-51 -59 -84 -66 q-33 4 -40 34 q1 11 11 17 q53 46 123.5 135.5 q70.5 89.5 111.5 151.5 q-84 -8 -168 -9 l-73 0 q-20 19 -32 39 q14 11 36 9 q31 0 97.5 6.5 q66.5 6.5 90.5 17.5 q-8 68 -17 135 q1 13 -5 21 q-38 -3 -76 -6 q-25 -1 -62.5 5.5 q-37.5 6.5 -41.5 35.5 q12 14 38 10 q20 1 75.5 7 q55.5 6 70.5 11 q0 17 4 60.5 q4 43.5 18 48.5 ZM846 224 q-30 -2 -68.5 -31 q-38.5 -29 -42.5 -59 q3 -6 29.5 -7 q26.5 -1 37.5 -1 q45 2 90 -7 q-1 43 -15 84 q-5 26 -31 21 ZM728 74 q-10 -4 -13.5 -32.5 q-3.5 -28.5 -3.5 -40.5 q6 -24 32 -20 q39 -2 74 8 q18 7 44.5 28 q26.5 21 29.5 40 q-3 14 -31.5 14 q-28.5 0 -40.5 -1 q-45 2 -91 4 Z" /></font>
</defs>
</svg>
