<?xml version="1.0" standalone="no"?><!DOCTYPE svg PUBLIC "-//W3C//DTD SVG 1.1//EN" "http://www.w3.org/Graphics/SVG/1.1/DTD/svg11.dtd" ><svg xmlns="http://www.w3.org/2000/svg"><metadata></metadata><defs><font id="1.000;Aa;AaXiaoliwo (Non-Commercial Use);2016" horiz-adv-x="1000"><font-face font-family="AaXiaoliwo (Non-Commercial Use)" font-weight="400" font-stretch="normal" units-per-em="1000" panose-1="2 1 6 0 1 1 1 1 1 1" ascent="937" descent="-272" x-height="1" bbox="15 -135 997 838" underline-thickness="50" underline-position="-100" unicode-range="U+0021-ff5e" /><missing-glyph horiz-adv-x="262"  /><glyph glyph-name="uniFF0C" unicode="&#xff0c;" d="M268 159 q65 -12 71 -80 q0 -42 -23.5 -95.5 q-23.5 -53.5 -69.5 -58.5 q-13 -1 -15 11 q2 25 16.5 56.5 q14.5 31.5 16.5 47.5 q-3 11 -23 29 q-20 18 -23 51 q9 38 50 39 Z" /><glyph glyph-name="uniFF1B" unicode="&#xff1b;" d="M236 410 q28 -2 50 -26 q22 -24 23 -52 q0 -42 -40 -48 q-69 9 -79 78 q5 42 46 48 ZM251 114 q37 -3 57 -37 q20 -34 20 -68 q0 -87 -82 -101 q-24 0 -24 24 q5 37 28 69 q-28 27 -40 59 q5 41 41 54 Z" /><glyph glyph-name="uniFF5E" unicode="&#xff5e;" d="M404 461 q52 -7 99.5 -56 q47.5 -49 77.5 -56 q31 4 60 32.5 q29 28.5 60 32.5 q35 -3 37 -39 q-2 -41 -38.5 -68.5 q-36.5 -27.5 -76.5 -28.5 q-48 2 -87.5 35.5 q-39.5 33.5 -66.5 70.5 q-17 20 -47 19 q-49 -6 -93 -46.5 q-44 -40.5 -54 -46.5 q-15 8 -13 28 q3 50 48 85.5 q45 35.5 94 37.5 Z" /><glyph glyph-name="exclam" unicode="!" d="M149 726 q32 -4 39 -46.5 q7 -42.5 6 -70.5 q-4 -167 -16 -334 q0 -16 -3 -41.5 q-3 -25.5 -21 -28.5 q-27 2 -45 29 q-18 27 -19 52 q2 54 18 231 q16 177 22 203 q8 7 19 6 ZM117 103 q26 -2 49 -25 q23 -23 24 -49 q-2 -43 -41 -55 q-27 2 -57.5 26.5 q-30.5 24.5 -33.5 51.5 q13 44 59 51 Z" /><glyph glyph-name="quotesingle" unicode="&#39;" d="M114 742 q11 -2 18 -11 q19 -22 16 -51 q2 -88 3 -175 q4 -27 -14 -40 q-43 4 -53 45.5 q-10 41.5 -8 76.5 q-1 26 7 87 q8 61 31 68 Z" /><glyph glyph-name="comma" unicode="," d="M99 142 q65 -12 71 -80 q0 -42 -23.5 -95.5 q-23.5 -53.5 -69.5 -58.5 q-13 -1 -15 11 q2 25 16.5 56.5 q14.5 31.5 16.5 47.5 q-3 11 -23 29 q-20 18 -23 51 q9 38 50 39 Z" /><glyph glyph-name="period" unicode="." d="M77 103 q14 16 33 19 q30 -2 61.5 -33 q31.5 -31 33.5 -61 q-11 -37 -51 -44 q-34 1 -62.5 26 q-28.5 25 -30.5 60 q2 24 20 38 l-4 -5 Z" /><glyph glyph-name="zero" unicode="0" d="M273 699 q80 -5 132 -68 l-1 0 q45 -62 67 -144.5 q22 -82.5 22 -158.5 q1 -57 -15 -113 q-20 -71 -77.5 -140.5 q-57.5 -69.5 -134.5 -74.5 q-105 3 -162.5 70.5 q-57.5 67.5 -58.5 169.5 q-1 152 42.5 251.5 q43.5 99.5 148.5 207.5 l37 0 ZM283 638 q-18 -2 -33 -22.5 q-15 -20.5 -24 -35.5 q-64 -98 -87.5 -182.5 q-23.5 -84.5 -22.5 -201.5 q-2 -54 15 -88.5 q17 -34.5 79 -35.5 q64 3 113 51.5 q49 48.5 72 105.5 q26 73 21 150 q4 77 -18.5 164 q-22.5 87 -114.5 95 Z" /><glyph glyph-name="one" unicode="1" d="M194 715 q27 -3 34 -30.5 q7 -27.5 6 -50.5 q-3 -127 -27.5 -266.5 q-24.5 -139.5 -28.5 -273.5 q1 -15 -2.5 -50.5 q-3.5 -35.5 -19.5 -39.5 q-28 3 -46 32.5 q-18 29.5 -19 56.5 q3 86 37.5 318.5 q34.5 232.5 58.5 299.5 l7 4 Z" /><glyph glyph-name="two" unicode="2" d="M268 705 q83 -3 134 -61.5 q51 -58.5 53 -139.5 q-14 -126 -112.5 -244.5 q-98.5 -118.5 -112.5 -142.5 q6 -14 22 -11 q102 13 203 25 q53 -6 65 -56 q-1 -12 -12 -19 q-35 -14 -188.5 -31.5 q-153.5 -17.5 -207.5 -19.5 q-17 1 -41.5 19 q-24.5 18 -26.5 36 q21 32 171 189.5 q150 157.5 171 283.5 q11 107 -92 114 q-38 1 -74 -12 q-39 -17 -73 -60.5 q-34 -43.5 -36 -86.5 q1 -10 -7 -14 q-14 2 -22 24.5 q-8 22.5 -8 35.5 q4 73 63.5 121 q59.5 48 130.5 50 Z" /><glyph glyph-name="three" unicode="3" d="M288 721 q66 -2 107.5 -49 q41.5 -47 42.5 -112 q-2 -66 -40.5 -124.5 q-38.5 -58.5 -83.5 -104.5 q53 -23 100 -68 q47 -45 50 -106 q-3 -66 -57.5 -108.5 q-54.5 -42.5 -117.5 -44.5 q-24 1 -55.5 21.5 q-31.5 20.5 -37.5 44.5 l7 4 q22 -3 43 -5 q49 2 99.5 42.5 q50.5 40.5 54.5 90.5 q-8 64 -83 68.5 q-75 4.5 -125 0.5 q-28 23 -45 55 q33 22 65 43 q55 37 108 102.5 q53 65.5 57 133.5 q2 54 -48 61 q-96 -3 -165.5 -70 q-69.5 -67 -86.5 -160 q-10 6 -14 31 q-4 25 -4 37 q4 84 75 149 q71 65 154 68 Z" /><glyph glyph-name="four" unicode="4" d="M243 722 l16 11 q25 -10 25 -37 q-11 -60 -87 -206.5 q-76 -146.5 -87 -222.5 q3 -9 14 -8 q49 5 97 21 q80 18 88 36 q8 18 9 96 q3 34 15 136 q12 102 18 121 q4 5 9 6 q26 -3 32 -31 q6 -28 5 -49 q-3 -129 -11 -256 l5 -2 q34 2 66 18 q32 16 63 18 q46 -5 57 -47 q-1 -5 -3 -10 q-18 -14 -76 -33 q-58 -19 -85 -26 l1 0 l-39 -10 q-1 -37 -8 -142 q-7 -105 -14 -129 l-8 -4 q-27 2 -39.5 30 q-12.5 28 -12.5 52 q4 78 8 155 q0 9 -9 9 q-76 -13 -153 -26 q-53 -1 -86 39 l1 0 q-15 19 -16 43 q7 75 80 235 q73 160 125 212 l0 1 Z" /><glyph glyph-name="five" unicode="5" d="M101 731 q19 -2 22 -23 q3 -21 2 -37 q158 3 316 8 q36 -16 46 -50 q0 -8 -5 -13 l0 1 q-22 -6 -62.5 -7.5 q-40.5 -1.5 -65.5 -1.5 q-107 6 -214 11 q-6 0 -13 -2 q-5 -17 -6 -58 q-1 -41 -1 -61 q2 -85 3 -169 q40 2 80 3 q37 0 84.5 -9.5 q47.5 -9.5 78.5 -28.5 l0 1 q36 -30 41 -77 q-5 -57 -67 -133 q-62 -76 -116 -95 l1 0 l-7 -1 q-22 1 -49 20.5 q-27 19.5 -29 42.5 q11 9 29 5 q34 8 95 81 q61 73 68 109 l0 18 q-111 -3 -222 -4 q-44 33 -54.5 56.5 q-10.5 23.5 -8.5 79.5 q-1 52 8.5 185 q9.5 133 45.5 149 Z" /><glyph glyph-name="six" unicode="6" d="M302 738 q24 -3 32 -24 q-5 -19 -21 -32 q-51 -59 -87 -128 q-15 -30 -44.5 -101.5 q-29.5 -71.5 -32.5 -99.5 q3 -14 32.5 -17 q29.5 -3 42.5 -2 q64 0 148.5 -22 q84.5 -22 92.5 -97 q-6 -76 -79.5 -143 q-73.5 -67 -148.5 -71 q-79 3 -135 58 q-64 65 -53 156 q2 124 61 277.5 q59 153.5 157 230.5 q15 13 35 15 ZM232 266 q-50 3 -80 -9.5 q-30 -12.5 -31 -70.5 l0 -31 q-8 -79 68 -85 q61 3 125 56.5 q64 53.5 69 115.5 q-1 5 -3 10 q-19 9 -71 11.5 q-52 2.5 -77 2.5 Z" /><glyph glyph-name="seven" unicode="7" d="M376 696 q32 0 63 -19.5 q31 -19.5 33 -53.5 q-1 -23 -15 -60.5 q-14 -37.5 -24 -60.5 q-73 -182 -122 -374 l-30 -114 q-10 -7 -24 -7 q-12 5 -31 19 q-19 14 -21 27 q4 35 36 152 q32 117 47 161 q6 16 45 118.5 q39 102.5 44 128.5 q-3 7 -24.5 7.5 q-21.5 0.5 -30.5 0.5 q-98 -1 -196 -2 q-22 -1 -53 5 q-31 6 -34 33 q8 15 73.5 21 q65.5 6 92.5 6 q86 8 171 12 Z" /><glyph glyph-name="eight" unicode="8" d="M294 711 q76 -1 137 -45.5 q61 -44.5 65 -124.5 q3 -23 22 -36.5 q19 -13.5 22 -36.5 q0 -3 -2 -7 q-36 -33 -72 -66 l0 1 q-19 -17 -63 -55 q-44 -38 -53 -51 q45 -34 87.5 -61.5 q42.5 -27.5 45.5 -93.5 q-2 -59 -47 -98.5 q-45 -39.5 -103 -40.5 q-49 3 -121.5 44 q-72.5 41 -79.5 91 q9 66 53 118 l-1 0 q15 16 19 36 l-1 3 q-56 29 -104 76 q-48 47 -51 113 q5 90 81.5 160 q76.5 70 165.5 74 ZM344 651 q-82 -3 -155.5 -64 q-73.5 -61 -78.5 -145 q3 -70 71 -93 q30 -17 60 -24 q26 10 113.5 86.5 q87.5 76.5 98.5 99.5 q2 61 -19.5 100 q-21.5 39 -89.5 40 ZM313 245 q-27 -6 -66 -59.5 q-39 -53.5 -43 -82.5 q4 -22 38.5 -31 q34.5 -9 54.5 -9 q40 2 78.5 34 q38.5 32 41.5 73 q-3 32 -38.5 53 q-35.5 21 -65.5 22 Z" /><glyph glyph-name="nine" unicode="9" d="M271 706 q122 3 203 -89 q43 -32 51 -82 q-4 -64 -43 -261.5 q-39 -197.5 -59 -265.5 q-5 -4 -11 -4 q-54 9 -60 65 q4 77 28.5 151.5 q24.5 74.5 28.5 150.5 l-6 3 q-31 -7 -81 -47.5 q-50 -40.5 -125 -46.5 q-57 1 -102 39 q-45 38 -48 96 q1 70 31 133 q26 51 80 102.5 q54 51.5 113 55.5 ZM327 648 q-84 -6 -142 -85.5 q-58 -79.5 -61 -159.5 l0 -55 q18 -2 36 -2 q63 9 169.5 101 q106.5 92 117.5 153 q-5 24 -51 36 q-46 12 -69 12 Z" /><glyph glyph-name="asciicircum" unicode="^" d="M257 711 q60 -14 120.5 -133 q60.5 -119 83.5 -178 l0 1 q1 -6 1 -13 q2 -17 -13 -22 q-42 15 -88 119 q-46 104 -70 120 q-39 -40 -74 -128 q-35 -88 -60 -125 q-5 -2 -10 -3 q-20 2 -40 22 q-20 20 -22 40 q7 47 72.5 166 q65.5 119 99.5 134 Z" /><glyph glyph-name="uni3001" unicode="&#x3001;" d="M46 122 q-2 0 -2 3 l-23 25 q57 -6 150.5 -66.5 q93.5 -60.5 103.5 -116.5 q-3 -32 -37 -33 q-21 7 -93.5 66.5 q-72.5 59.5 -90.5 81.5 q-13 19 -8 40 Z" /><glyph glyph-name="uni3002" unicode="&#x3002;" d="M92 154 q38 -2 104 -43 q66 -41 73 -91 q-6 -94 -100 -101 q-53 2 -94 40 q-41 38 -43 92 q0 28 14.5 64 q14.5 36 45.5 39 ZM133 93 q-18 -3 -25.5 -28.5 q-7.5 -25.5 -7.5 -41.5 q-8 -39 28 -44 q65 6 76 69 q-3 18 -28 31 q-25 13 -43 14 Z" /><glyph glyph-name="uni300A" unicode="&#x300a;" d="M590 599 q8 8 18 9 q28 -8 28 -40 l-1 -12 l0 1 q-23 -50 -83.5 -149 q-60.5 -99 -67.5 -131 q17 -24 133 -82.5 q116 -58.5 133 -105.5 q-2 -5 -8 -6 q-36 8 -135.5 63.5 q-99.5 55.5 -121.5 68.5 q-24 11 -48 28 q-24 17 -26 46 q7 53 74 157.5 q67 104.5 106 151.5 l-1 1 ZM588 601 l2 -2 l-1 -1 l-1 3 ZM817 573 q27 -6 34 -31 q-8 -47 -67.5 -124 q-59.5 -77 -68.5 -103 q12 -28 98.5 -71 q86.5 -43 98.5 -84 q-2 -9 -11 -7 q-47 7 -150.5 75.5 q-103.5 68.5 -115.5 110.5 q9 26 82 121.5 q73 95.5 100 112.5 Z" /><glyph glyph-name="uni300B" unicode="&#x300b;" d="M408 598 q39 -47 106 -151.5 q67 -104.5 74 -157.5 q-2 -28 -26.5 -45 q-24.5 -17 -47.5 -29 q-22 -13 -121.5 -68.5 q-99.5 -55.5 -135.5 -63.5 q-5 2 -8 6 q17 46 133 105 q116 59 133 83 q-7 32 -67.5 131 q-60.5 99 -83.5 149 l0 -1 l-1 12 q0 32 28 40 q11 -1 18 -9 l-1 -1 ZM411 601 l-1 -3 l-1 1 l2 2 ZM364 339 q-12 -42 -115.5 -110.5 q-103.5 -68.5 -150.5 -75.5 q-9 -2 -11 7 q12 41 98.5 84 q86.5 43 98.5 71 q-8 24 -67.5 102.5 q-59.5 78.5 -68.5 124.5 q7 25 34 31 q26 -18 99.5 -113.5 q73.5 -95.5 82.5 -120.5 Z" /><glyph glyph-name="uni7231" unicode="&#x7231;" d="M717 820 q21 0 44 -10.5 q23 -10.5 25 -34.5 q0 -3 -2 -6 q-34 -7 -211.5 -29 q-177.5 -22 -226.5 -25 q-22 -1 -48 7.5 q-26 8.5 -28 34.5 q3 10 27 12 q24 2 34 2 q97 7 192.5 27 q95.5 20 193.5 22 ZM737 669 q42 -8 54 -47 q-12 -35 -53 -37 q-33 -1 -46 25 q1 14 16.5 35.5 q15.5 21.5 28.5 23.5 ZM552 658 q15 -1 34.5 -17.5 q19.5 -16.5 21.5 -32.5 q-1 -13 -13.5 -34 q-12.5 -21 -25.5 -23 q-48 9 -54 58 q3 38 37 49 ZM394 623 q16 2 25 -8 q-6 -19 -13 -38 q11 -28 21 -52 q-6 -12 -19 -14 q-18 2 -49.5 22 q-31.5 20 -34.5 37 q13 52 70 53 ZM708 513 q56 1 100.5 -26 q44.5 -27 46.5 -89 q1 -33 -9 -81 q-10 -48 -49 -53 q-22 1 -76 11.5 q-54 10.5 -61 22.5 q5 11 42 18 q37 7 51 10 q24 9 29.5 36 q5.5 27 4.5 50 q-1 20 -2 40 q-32 2 -64 2 q-191 -14 -367 -94 q-19 -7 -62.5 -24.5 q-43.5 -17.5 -56.5 -19.5 q-22 6 -36 25 q8 -28 25.5 -54.5 q17.5 -26.5 19.5 -52.5 q-1 -11 -12 -11 q-44 8 -71.5 79 q-27.5 71 -28.5 113 q-2 20 15 27 q24 -2 31.5 -23.5 q7.5 -21.5 11.5 -41.5 l6 -23 q1 -4 2 -6 l1 1 q33 29 133.5 68.5 q100.5 39.5 150.5 53.5 q110 37 225 42 ZM488 392 q33 -5 32 -41 q0 -16 -2.5 -56.5 q-2.5 -40.5 -7.5 -51.5 l2 -3 l4 0 q51 9 101 18 q37 -6 48 -40 q-8 -20 -71.5 -33.5 q-63.5 -13.5 -89.5 -16.5 l-10 -90 q43 24 107 55 q64 31 110 34 q68 -6 71 -76 q-2 -25 -18 -56.5 q-16 -31.5 -27 -54.5 q34 -18 43 -51 q0 -11 -11 -12 q-34 12 -54 25 q-19 -11 -47 -21 q-35 4 -46 35 q9 24 31 42 l-72 67 q-47 -23 -69.5 -41.5 q-22.5 -18.5 -34.5 -72.5 q-2 -13 -9.5 -40.5 q-7.5 -27.5 -19.5 -30.5 q-14 2 -31.5 20 q-17.5 18 -19.5 32 q2 57 17 112.5 q15 55.5 17 112.5 q-3 7 -27.5 22 q-24.5 15 -27.5 32 q3 8 29 11.5 q26 3.5 37 3.5 q2 18 11.5 77.5 q9.5 59.5 13.5 72.5 q6 15 21 16 ZM698 105 q-15 -1 -42 -11.5 q-27 -10.5 -43 -17.5 q30 -20 59 -41 q9 4 22 31 q13 27 18 38 l-14 1 Z" /><glyph glyph-name="uni6309" unicode="&#x6309;" d="M240 722 q27 -9 25.5 -74 q-1.5 -65 17.5 -74 q34 3 68 5 q18 1 41 -6.5 q23 -7.5 25 -28.5 q-6 -21 -59 -29 q-53 -8 -77 -10 q1 -14 10.5 -86 q9.5 -72 27.5 -82 q46 8 92 15 q29 1 26 -29 q-7 -28 -59.5 -39.5 q-52.5 -11.5 -60.5 -25.5 l1 -5 q17 -98 14 -198 q1 -20 -4.5 -44.5 q-5.5 -24.5 -29.5 -26.5 q-23 2 -50.5 26.5 q-27.5 24.5 -29.5 48.5 q1 5 4 11 q22 -11 38 -29 q6 26 6 53 q0 21 -2.5 83 q-2.5 62 -7.5 73 q-1 2 -3 2 q-3 0 -5 -1 q-55 -6 -110 -13 q-15 0 -36 7.5 q-21 7.5 -23 24.5 q8 16 75 26 q67 10 93 24 q-6 79 -20 156 q1 23 -17 30 q-35 -1 -106.5 8.5 q-71.5 9.5 -79.5 46.5 q0 3 2 6 q16 5 90.5 5 q74.5 0 100.5 0 q-2 23 -3 45 q-1 18 3.5 59 q4.5 41 22.5 46 ZM642 777 q25 -1 47 -23 q22 -22 23 -47 q-4 -41 -39 -55 q-65 9 -72 75 q1 43 41 50 ZM858 621 q67 -4 82 -67 q-3 -50 -46 -118.5 q-43 -68.5 -94 -75.5 l-7 3 q-4 5 -4 11 q5 36 40 96.5 q35 60.5 41 89.5 l-5 4 q-51 -6 -189 -53.5 q-138 -47.5 -166 -75.5 q-4 -12 -2.5 -46.5 q1.5 -34.5 2.5 -51.5 q3 -19 -11 -27 q-34 3 -46.5 35.5 q-12.5 32.5 -11.5 60.5 q-1 32 0.5 112.5 q1.5 80.5 24.5 90.5 q24 -4 33 -42.5 q9 -38.5 9 -60.5 q77 31 173.5 71 q96.5 40 176.5 44 ZM667 384 q22 -2 34 -26 q12 -24 12 -44 q-2 -41 -14 -80 l21 0 q26 2 29 17.5 q3 15.5 21 17.5 q23 -10 41 -21 q39 7 78 14 q39 -6 50 -43 q-1 -5 -3 -10 q-23 -15 -74.5 -22 q-51.5 -7 -62.5 -21 q-10 -36 -13 -74 l5 -1 q27 4 53 8 q41 -8 48 -50 q-6 -17 -59 -21 q-53 -4 -75 -3 q-13 -28 -36 -64.5 q-23 -36.5 -55 -39.5 q-45 9 -58 53 q1 5 6 7 q6 -4 14 -4 q9 2 22 19.5 q13 17.5 18 26.5 q-27 13 -52.5 30 q-25.5 17 -27.5 51 q4 33 9 65 q-27 1 -85.5 6 q-58.5 5 -65.5 33 q5 16 47 18.5 q42 2.5 59 1.5 l67 1 q18 56 31 113 q3 22 9 37 q4 3 7 5 ZM726 169 q-6 3 -14 2 l-32 0 q-15 -36 -19 -74 q3 -14 19 -12 q23 3 33 33.5 q10 30.5 13 50.5 Z" /><glyph glyph-name="uni5427" unicode="&#x5427;" d="M233 542 q78 -4 110 -63 q32 -59 31 -130 q2 -88 -33 -167 q-18 -31 -57.5 -66 q-39.5 -35 -76.5 -38 q-98 -3 -137.5 25.5 q-39.5 28.5 -38.5 129.5 q0 46 10 145.5 q10 99.5 23 136.5 q3 11 14 13 q25 -12 43 -40 q46 48 112 54 ZM263 480 q-96 -8 -118.5 -97.5 q-22.5 -89.5 -18.5 -169.5 q-1 -33 2 -66 l-1 0 q6 -5 14 -4 q91 11 132 96 q37 95 27 199 q3 41 -37 42 ZM787 596 q95 -3 127.5 -65.5 q32.5 -62.5 30.5 -146.5 q5 -40 -30 -51 q-39 9 -49 46 q4 37 7 73 q2 46 -7.5 64 q-9.5 18 -59.5 17 q-13 0 -44.5 -2 q-31.5 -2 -36.5 -11 q28 -31 33 -53.5 q5 -22.5 4 -63.5 l0 -68 q23 1 52 -5.5 q29 -6.5 32 -34.5 q-6 -21 -58.5 -30 q-52.5 -9 -76.5 -9 q-42 5 -48 46 q0 8 5 14 l-1 0 q21 33 28.5 98.5 q7.5 65.5 6.5 106.5 q-55 -17 -114 -17 q-19 -1 -44.5 5 q-25.5 6 -27.5 28 q3 9 26 14.5 q23 5.5 33 6.5 q105 31 212 38 ZM588 403 q37 -8 34 -50 q-2 -63 -15.5 -125.5 q-13.5 -62.5 -15.5 -126.5 q-2 -23 19 -32 q21 -8 76 -11.5 q55 -3.5 82 -3.5 q74 3 118 62 q9 13 20 24 q31 -22 38 -60 q-5 -45 -59.5 -65 q-54.5 -20 -93.5 -20 q-85 -4 -171.5 23 q-86.5 27 -93.5 129 q1 41 20.5 142.5 q19.5 101.5 41.5 113.5 Z" /><glyph glyph-name="uni767D" unicode="&#x767d;" d="M488 732 q35 -6 41 -41 q-9 -41 -92.5 -106 q-83.5 -65 -126.5 -72 q-21 0 -25 20 q10 32 91 110.5 q81 78.5 112 88.5 ZM249 531 q24 -2 27 -25 q-5 -75 -10 -150 q-1 -22 4.5 -77 q5.5 -55 22.5 -62 q144 15 287 29 q42 -4 54 -43 q-12 -23 -105.5 -33 q-93.5 -10 -130.5 -10 q-47 5 -95 10 q10 -57 31.5 -83.5 q21.5 -26.5 79.5 -38.5 q62 -14 125 -15 q97 -5 141 81 q27 55 43.5 134.5 q16.5 79.5 16.5 140.5 q0 24 -2 48 q-77 -5 -186 -29.5 q-109 -24.5 -181 -52.5 q-12 -5 -35.5 -17.5 q-23.5 -12.5 -32.5 -13.5 q-23 5 -24 29 q21 53 189 99 q168 46 237 49 q55 -3 82 -45 q27 -42 27 -93 q-1 -71 -27 -180 q-26 -109 -69 -164 q-54 -52 -131 -50 q-64 0 -162.5 24.5 q-98.5 24.5 -142.5 69.5 q-19 29 -48 126.5 q-29 97.5 -36 137.5 q-3 26 -3 51 q-1 31 10.5 88.5 q11.5 57.5 43.5 64.5 Z" /><glyph glyph-name="uni4F34" unicode="&#x4f34;" d="M658 762 q4 5 10 6 q34 -9 39.5 -86 q5.5 -77 4.5 -111 l4 -132 q97 21 196 35 q40 -6 50 -45 q-20 -21 -110.5 -36.5 q-90.5 -15.5 -129.5 -20.5 l-1 -56 q0 -28 3 -56 q30 7 91.5 25.5 q61.5 18.5 79.5 20.5 q33 -12 51 -45 q-13 -21 -105 -44.5 q-92 -23.5 -114 -27.5 q-3 -40 -12 -139.5 q-9 -99.5 -39 -111.5 q-35 9 -41 46 q9 96 23 191 q-69 -17 -139 -19 q-23 -1 -57 8.5 q-34 9.5 -38 37.5 q2 9 20 10 q18 1 27 0 q95 7 186 33 l0 114 q-72 -5 -145 -6 q-24 -1 -58.5 9 q-34.5 10 -38.5 37 q3 9 25 10.5 q22 1.5 31 1.5 q87 0 172 17 q13 166 15 334 ZM827 685 q22 -2 41 -23 q19 -21 20 -43 q-2 -21 -23 -49.5 q-21 -28.5 -43 -31.5 q-52 10 -62 61 q1 25 21 54 q20 29 46 32 ZM483 668 q66 -7 77 -72 q-2 -20 -28 -55 q-26 -35 -45 -39 q-31 3 -52 34 q-21 31 -22 60 q6 65 70 72 ZM273 648 q11 -2 26 -18 q15 -16 16 -27 q-5 -18 -47 -79 q-42 -61 -59 -84 q23 -35 24.5 -97 q1.5 -62 -0.5 -106 q-1 -26 2.5 -74 q3.5 -48 22.5 -65 q24 -10 28 -35 q-2 -11 -15 -11 q-20 2 -37 14 q-63 47 -66.5 126 q-3.5 79 -6.5 150 q-11 -12 -33 -39.5 q-22 -27.5 -34 -30.5 q-13 2 -31 20 q-18 18 -20 31 q12 32 106.5 169 q94.5 137 123.5 156 Z" /><glyph glyph-name="uni5305" unicode="&#x5305;" d="M434 816 q23 -11 29 -36 q-5 -32 -47.5 -96.5 q-42.5 -64.5 -65.5 -95.5 q96 27 200.5 56 q104.5 29 203.5 31 q78 -4 96 -59.5 q18 -55.5 15 -120.5 q2 -69 -19 -212 q-21 -143 -90 -160 q-31 3 -95.5 30.5 q-64.5 27.5 -90.5 47.5 q4 10 16 7 q58 -9 116 -18 q57 16 77 150 q20 134 19 195 q-1 40 -6 80 l-30 0 q-85 -4 -169 -27 q-138 -27 -277 -43 q-18 -21 -64.5 -78.5 q-46.5 -57.5 -60.5 -64.5 q-17 1 -35.5 16.5 q-18.5 15.5 -20.5 32.5 q5 19 20 32 q46 54 146 179.5 q100 125.5 133 153.5 ZM462 419 q53 -2 74.5 -41.5 q21.5 -39.5 20.5 -87.5 q1 -34 -5 -72 q-6 -38 -35 -56 q18 -16 25 -37 q-6 -24 -54 -32 q-48 -8 -72 -7 q-34 6 -66 17 q-2 -10 -3.5 -58.5 q-1.5 -48.5 -1.5 -66.5 q-3 -42 38 -44 q36 2 111.5 18 q75.5 16 114.5 27 q25 3 30 26 q-8 33 -17 66 q-2 11 8 15 q24 -6 52.5 -54.5 q28.5 -48.5 30.5 -74.5 q-14 -41 -129 -63.5 q-115 -22.5 -164 -22.5 q-148 10 -143 163 q0 38 11.5 130 q11.5 92 40.5 103 q33 -3 34 -35.5 q1 -32.5 -1 -57.5 l1 -15 q13 7 26 9 q14 -6 30 -13 q33 3 64 11 q-19 12 -25 32 q2 18 12 32 q21 54 18 112 q1 14 -13 11 q-35 -4 -78.5 -32 q-43.5 -28 -61.5 -32 q-26 9 -27 38 q7 31 65 60.5 q58 29.5 89 31.5 Z" /><glyph glyph-name="uni53D8" unicode="&#x53d8;" d="M475 819 q24 -2 43.5 -29.5 q19.5 -27.5 20.5 -50.5 q-5 -36 -40 -52 q-54 20 -64 72 q1 15 12.5 36.5 q11.5 21.5 27.5 23.5 ZM785 625 q37 -2 46 -35 q-7 -28 -63.5 -32 q-56.5 -4 -82.5 -2 q-55 3 -109 -10 q15 -21 19.5 -87 q4.5 -66 3.5 -99 q0 -10 -2 -32 q-2 -22 -13 -25 q-48 5 -51 57.5 q-3 52.5 -1 89.5 l-3 110 l-30 0 l-26 0 q6 -51 7 -103 q1 -28 -3 -95.5 q-4 -67.5 -27 -75.5 q-30 8 -50 33 q12 90 13 182 l0 59 l-34 0 q-39 -2 -136 5 q-97 7 -109 44 q0 4 2 7 q240 1 479 -1 q70 -4 139 6 q15 4 31 4 ZM213 482 q20 -1 40 -18 q20 -17 22 -37 q1 -30 -23 -40 q-48 8 -56 56 q-3 28 17 39 ZM757 469 q51 -7 58 -58 q2 -41 -39 -35 q-50 1 -60 49 q6 36 41 44 ZM410 223 q43 21 91 21 q39 5 77 10 q75 1 88 -69 q-5 -46 -39 -94 q-34 -48 -39 -65 q28 -14 110.5 -22.5 q82.5 -8.5 92.5 -46.5 q-5 -16 -23 -13 q-110 6 -215 44 q-21 -22 -50.5 -48.5 q-29.5 -26.5 -60.5 -28.5 q-39 2 -54 35 q5 6 43.5 31.5 q38.5 25.5 46.5 44.5 q-17 14 -48 36.5 q-31 22.5 -35 42.5 q1 6 6 7 q16 -2 50.5 -22 q34.5 -20 51.5 -31 q19 20 53.5 66 q34.5 46 38.5 70 l-8 4 q-47 -4 -97 -28.5 q-50 -24.5 -92 -28.5 q-43 6 -54 46 q3 12 31 24 q28 12 42 14 l-7 1 Z" /><glyph glyph-name="uni4E0D" unicode="&#x4e0d;" d="M158 666 q24 -8 39 -32 q189 2 378 2 q96 -5 187 12 q14 4 27 5 q21 -1 43 -21 q22 -20 24 -41 q-4 -8 -40 -11 q-36 -3 -51 -3 q-92 -2 -185 -2 l-201 0 q-46 -3 -148 1 q-102 4 -114 58 q10 28 41 32 ZM559 537 q24 -8 31 -31 q-4 -31 -34.5 -74 q-30.5 -43 -34.5 -62 q9 -75 30 -150 q30 -113 40 -228 q4 -16 -11 -20 q-70 18 -81 156 q-11 138 -32 184 q-22 -13 -104 -92 q-82 -79 -125 -90 q-16 1 -34 18.5 q-18 17.5 -20 33.5 q12 36 50 50 q99 59 187.5 165.5 q88.5 106.5 137.5 139.5 ZM777 331 q73 -9 75 -84 q7 -53 -41 -62 q-29 3 -59 37 q-30 34 -32 63 q6 49 57 46 Z" /><glyph glyph-name="uni5E38" unicode="&#x5e38;" d="M494 824 q37 -4 39 -46.5 q2 -42.5 0 -70.5 l0 -90 q166 27 334 32 q8 -7 23 -22.5 q15 -15.5 17 -24.5 q-3 -30 -12 -58 q-5 -30 -16.5 -58.5 q-11.5 -28.5 -47.5 -30.5 q-14 1 -51.5 10.5 q-37.5 9.5 -42.5 19.5 q3 5 27.5 15 q24.5 10 33.5 15 q31 31 32 80 l-29 0 q-85 -3 -170 -18 q-192 -26 -382 -58 q-16 -3 -32 -3 q-21 -2 -31 13 q14 30 126.5 53.5 q112.5 23.5 157.5 24.5 q0 41 -1 82 q-1 20 2.5 74 q3.5 54 22.5 61 ZM293 767 q63 -10 67 -75 q0 -14 -6.5 -34 q-6.5 -20 -22.5 -22 q-31 2 -49.5 32 q-18.5 30 -19.5 59 q-3 37 31 40 ZM676 769 q50 -10 59 -60 q-2 -15 -21.5 -19.5 q-19.5 -4.5 -32.5 -4.5 q-33 8 -43 39 q6 35 38 45 ZM117 618 q11 -1 18 -10 q7 -16 14 -89.5 q7 -73.5 7 -99.5 q0 -10 -10 -9 q-38 4 -49 48.5 q-11 44.5 -10 77.5 q-1 18 3.5 48.5 q4.5 30.5 26.5 33.5 ZM568 508 q85 0 91 -83 q3 -70 -16 -119.5 q-19 -49.5 -101 -51.5 q4 -33 10 -67 q35 7 71 8 q126 -3 120 -131 q8 -76 -63 -86 q-35 1 -56 31 q54 33 53 96 q7 31 -23 33 q-46 -3 -92 -12 l1 -155 q1 -16 -2.5 -57.5 q-3.5 -41.5 -18.5 -46.5 q-24 9 -44 31 l0 75 q1 66 -5 131 q-14 -4 -47 -28.5 q-33 -24.5 -45 -36.5 q-23 -37 -33 -78 q-3 -7 -10 -7 q-34 10 -60 40 l-1 49 q-1 22 3.5 75.5 q4.5 53.5 26.5 60.5 q25 -2 29 -26 q4 -24 6 -44 q63 38 130 66 l0 27 q9 59 -48 60 q-13 -2 -26 -5 q-45 6 -53 63 q-8 57 -6 94 q-5 40 31 45 q24 3 74.5 24.5 q50.5 21.5 103.5 24.5 ZM600 453 q-10 2 -21 2 q-22 0 -59.5 -7.5 q-37.5 -7.5 -56.5 -16.5 q-38 -17 -33 -59 q-2 -23 -0.5 -41.5 q1.5 -18.5 27.5 -19.5 q95 -2 117 26 q22 28 26 116 Z" /><glyph glyph-name="uni957F" unicode="&#x957f;" d="M352 768 q12 -2 21 -12 q14 -29 25 -167.5 q11 -138.5 32 -204.5 q14 5 32.5 18.5 q18.5 13.5 22.5 15.5 q10 -7 4 -22 l5 -4 q118 15 236 30 q16 -1 37.5 -17 q21.5 -16 23.5 -33 q-8 -15 -71.5 -23.5 q-63.5 -8.5 -89.5 -10.5 l-147 -17 q3 -25 4 -50 q-8 -120 -17 -241 q26 24 59.5 51 q33.5 27 69.5 29 q28 2 40 -19 q0 -3 -2 -7 q-22 -29 -77 -89 q-55 -60 -85 -67 q-43 2 -60.5 35.5 q-17.5 33.5 -16.5 72.5 q1 97 14 193 q7 38 9 75 q-40 10 -81 8 q-52 3 -102 -11 q-19 2 -46.5 21 q-27.5 19 -30.5 38 q8 17 75 17 q67 0 95 -1 q17 0 32 3 l1 5 q-1 15 -7 29 q-37 124 -36 254 q-1 20 4 58.5 q5 38.5 27 42.5 ZM678 726 q22 -2 37 -24.5 q15 -22.5 16 -43.5 q-2 -48 -37 -94 q-35 -46 -76 -69 q-24 -15 -49 -23 q-6 3 -6 10 q5 63 45 107.5 q40 44.5 55 109.5 q-1 20 15 27 ZM744 206 q1 11 13 8 q47 -5 65.5 -61.5 q18.5 -56.5 17.5 -97.5 q3 -20 -12 -28 q-13 2 -24 12 q-67 67 -60 167 Z" /><glyph glyph-name="uni8D85" unicode="&#x8d85;" d="M747 682 q116 -12 119 -131 q0 -30 -14 -80 q-14 -50 -47 -55 q-47 11 -80 48 q-5 -18 -20.5 -54.5 q-15.5 -36.5 -31.5 -40.5 q-31 12 -30 50 q1 33 10 66 q13 65 19 132 q-22 0 -45 -1 q-21 -1 -60.5 4 q-39.5 5 -43.5 29 q13 11 35 9 q95 14 189 24 ZM750 629 q-7 0 -26 -1 q-19 -1 -22 -7 q4 -8 10 -14 q21 -29 19.5 -63.5 q-1.5 -34.5 32.5 -72.5 q20 45 26.5 77.5 q6.5 32.5 9.5 81.5 l-50 -1 ZM724 340 q64 -2 115 -46.5 q51 -44.5 54 -109.5 q-2 -58 -45 -89 q-43 -31 -98 -31 q-58 13 -117 26 q-27 2 -48.5 27.5 q-21.5 25.5 -22.5 52.5 q2 65 29 123 q18 27 59 37 q41 10 74 10 ZM738 292 q-100 -6 -88 -109 l0 -41 q26 -13 56 -15 q42 1 79.5 28 q37.5 27 40.5 71 q-13 69 -88 66 ZM258 788 q27 -4 38.5 -40 q11.5 -36 11.5 -61 q-2 -19 7 -30 q34 2 66.5 19 q32.5 17 67.5 19 q35 -7 49 -43 q-9 -22 -77.5 -40.5 q-68.5 -18.5 -97.5 -25.5 q-1 -66 7 -131 q66 16 131 21 q47 -2 60 -44 q-6 -19 -28 -18 q-151 -22 -299 -57 q-44 -13 -90 -16 q-28 4 -39 29 l1 2 q95 38 192 67 q7 66 7 131 q-28 -6 -58 -7 q-34 5 -45 35 q10 14 40.5 24.5 q30.5 10.5 49.5 15.5 q-5 61 -5 121 q-3 20 11 29 ZM305 336 q14 -4 20.5 -40.5 q6.5 -36.5 9.5 -52.5 q19 10 40 30 q21 20 41 22 q10 -2 26.5 -16.5 q16.5 -14.5 18.5 -24.5 q-14 -21 -43 -28 q-43 -15 -55.5 -33.5 q-12.5 -18.5 -11.5 -63.5 l0 -49 q40 -22 97 -50.5 q57 -28.5 101 -31.5 q35 7 70 13 q25 0 25 -24 q-7 -52 -60 -54 q-57 9 -198 83.5 q-141 74.5 -158 99.5 q5 14 21 12 q19 -3 37 -7 l2 1 q-5 58 -9 118 q-1 17 4 54.5 q5 37.5 22 41.5 ZM193 228 q33 -9 30 -46 q-2 -38 -30 -125.5 q-28 -87.5 -61 -98.5 q-30 4 -37 33 q3 16 27.5 71.5 q24.5 55.5 33.5 81.5 q4 14 15 47 q11 33 22 37 Z" /><glyph glyph-name="uni8F66" unicode="&#x8f66;" d="M437 808 q40 -11 39 -57 q-4 -52 -15 -103 l6 -1 q56 2 111 17 q55 15 111 17 q17 -1 37 -17.5 q20 -16.5 22 -33.5 q-4 -8 -32.5 -15 q-28.5 -7 -38.5 -8 q-119 -18 -239 -27 q-44 -132 -74 -269 l20 0 q55 1 109 15 q18 8 17.5 40 q-0.5 32 -1.5 51 q0 7 2 14 q4 2 8 2 q34 -3 42 -35 q8 -32 9 -60 q33 2 66 3 q22 0 46 -10.5 q24 -10.5 26 -35.5 l-3 -7 q-12 -5 -57.5 -11 q-45.5 -6 -64.5 -8 q0 -20 4.5 -77 q4.5 -57 7.5 -70 l4 -1 q18 1 61.5 12.5 q43.5 11.5 59.5 19.5 q13 8 28 24.5 q15 16.5 25 18.5 q35 -14 39 -55 q-9 -45 -92.5 -65 q-83.5 -20 -127.5 -26 l0 -29 q1 -20 -3 -69.5 q-4 -49.5 -24 -55.5 q-45 11 -46 59 q1 41 6 83 q-87 -2 -174 -3 q-28 -1 -65.5 7 q-37.5 8 -41.5 42 q3 26 28 31 q16 -2 19 -14.5 q3 -12.5 32 -14.5 q101 7 201 24 q0 13 -2 73.5 q-2 60.5 -7 72.5 q-1 2 -4 2 q-49 -4 -98 -9 q-42 0 -76.5 21 q-34.5 21 -36.5 66 q4 63 29 124 q25 61 29 115 q-3 6 -26 7.5 q-23 1.5 -32 1.5 q-26 1 -67.5 10.5 q-41.5 9.5 -45.5 38.5 q7 6 18 5 q40 -1 79 -3 q49 1 98 8 q6 26 23.5 91.5 q17.5 65.5 31.5 73.5 Z" /><glyph glyph-name="uni57CE" unicode="&#x57ce;" d="M609 693 q4 7 12 7 q24 -5 37 -48 q13 -43 41 -57 q38 -7 46 -42 q-8 -17 -29 -22 q7 -23 52.5 -117 q45.5 -94 58.5 -112 q4 9 17 30 q13 21 21 24 q35 -5 40 -40 q-9 -47 -40 -88 l23 -43 q15 -23 46 -59 q31 -36 35 -58 q0 -3 -2 -7 q-4 -3 -9 -4 q-34 5 -67.5 50.5 q-33.5 45.5 -51.5 74.5 q-21 -30 -74.5 -106.5 q-53.5 -76.5 -76.5 -85.5 q-34 8 -45 41 q75 112 155 223 q-60 132 -128 261 q-11 0 -23 -4 q-85 -24 -174 -23 q-20 -1 -52 4 q-32 5 -35 29 q2 11 21 13.5 q19 2.5 29 1.5 q27 1 105 14 q78 13 96 23 l1 5 q-14 57 -29 115 ZM869 629 q55 -7 63 -61 q-7 -48 -54 -55 q-53 9 -59 62 q3 49 50 54 ZM160 555 q32 -6 38.5 -58 q6.5 -52 7.5 -80 l24 7 l-1 0 q33 16 67 22 q34 -10 44 -44 q-11 -15 -61.5 -32 q-50.5 -17 -74.5 -23 q1 -78 7 -156 q72 54 158 72 q4 36 9 125 q5 89 34 100 q25 -11 23 -105.5 q-2 -94.5 -4 -134.5 q31 31 100 65.5 q69 34.5 113 37.5 q33 -3 52 -30 l-1 0 q15 -15 18 -34 q-4 -30 -42 -102.5 q-38 -72.5 -61 -81.5 q-38 9 -46 47 q-1 27 18 38 q11 5 34.5 45 q23.5 40 26.5 55 l-5 3 q-42 -3 -117.5 -44.5 q-75.5 -41.5 -83.5 -82.5 q5 -64 9 -129 q0 -11 -10 -12 q-45 8 -54.5 82 q-9.5 74 -7.5 115 l-6 -6 q-45 -51 -110 -76 q-14 -8 -38 -26.5 q-24 -18.5 -30 -20.5 q-21 -2 -44 -18.5 q-23 -16.5 -46 -18.5 q-28 8 -39 36 l20 19 l0 -1 q31 27 67 47 q0 88 -5 175 l-1 0 q-45 -13 -86 -26 q-28 5 -39 30 q13 23 55.5 38 q42.5 15 69.5 22 l0 112 q-1 11 2 29 q3 18 16 20 Z" /><glyph glyph-name="uni6210" unicode="&#x6210;" d="M515 750 q30 -6 41.5 -51 q11.5 -45 25.5 -51 q48 10 94 19 q41 -8 52 -48 q-8 -17 -64.5 -25.5 q-56.5 -8.5 -64.5 -18.5 q6 -27 54.5 -126 q48.5 -99 67.5 -139 q11 13 28 33.5 q17 20.5 32 22.5 q29 -5 34 -35 q-2 -23 -20.5 -50 q-18.5 -27 -30.5 -49 q10 -49 52.5 -120.5 q42.5 -71.5 48.5 -114.5 q0 -8 -8 -8 q-44 8 -79 81.5 q-35 73.5 -51 115.5 q-19 -27 -76.5 -104.5 q-57.5 -77.5 -72.5 -87.5 q-13 2 -31 18.5 q-18 16.5 -20 29.5 q8 18 73 106.5 q65 88.5 88 122.5 q-29 65 -70.5 157 q-41.5 92 -77.5 146 q-163 -21 -327 -19 q-27 -1 -70.5 6.5 q-43.5 7.5 -48.5 38.5 q10 12 30 7 q144 7 287 23 q17 0 60.5 3.5 q43.5 3.5 48.5 15.5 q-7 44 -15 87 q0 12 10 14 ZM858 675 q23 -2 43 -26 q20 -24 21 -47 q-2 -60 -56 -75 q-56 9 -62 66 q1 20 17.5 49.5 q16.5 29.5 36.5 32.5 ZM170 496 q28 -10 29.5 -90 q1.5 -80 -0.5 -114 q-2 -30 6 -59 q63 36 124 77.5 q61 41.5 137 45.5 q35 -1 66.5 -26 q31.5 -25 33.5 -61 q-5 -50 -59.5 -129 q-54.5 -79 -104.5 -87 q-63 14 -64 84 q0 14 4.5 49 q4.5 35 13.5 41 q7 -12 13 -44.5 q6 -32.5 14 -52.5 l1 0 q24 7 66.5 68.5 q42.5 61.5 47.5 89.5 q-3 14 -19 12 q-63 -4 -139.5 -50.5 q-76.5 -46.5 -129.5 -85.5 l0 -44 q7 -70 13 -140 q3 -15 -11 -18 q-52 10 -63.5 95 q-11.5 85 -9.5 131 l0 136 q-1 25 4 94 q5 69 27 78 Z" /><glyph glyph-name="uni5403" unicode="&#x5403;" d="M228 524 q74 -3 103.5 -58 q29.5 -55 28.5 -121 q1 -81 -37.5 -161.5 q-38.5 -80.5 -129.5 -86.5 q-87 -3 -121.5 25 q-34.5 28 -33.5 118 q0 50 7 125.5 q7 75.5 21 121.5 q2 17 16 24 q26 -10 41 -36 q44 44 105 49 ZM255 463 q-87 -7 -108 -89.5 q-21 -82.5 -17 -154.5 q-2 -28 1 -57 q4 -2 9 -2 q99 7 125.5 94 q26.5 87 22.5 170 q4 38 -33 39 ZM498 774 q37 -6 40 -62.5 q3 -56.5 1 -87.5 q0 -8 1 -29.5 q1 -21.5 10 -24.5 q94 13 190 26 q16 0 36.5 -11 q20.5 -11 22.5 -28 q-2 -12 -19.5 -14.5 q-17.5 -2.5 -27.5 -2.5 q-87 -12 -174 -24 q-98 6 -101 105 q0 23 3.5 79.5 q3.5 56.5 10.5 72.5 l7 1 ZM680 341 q28 0 58 -15 q30 -15 32 -46 q-8 -38 -60.5 -101 q-52.5 -63 -60.5 -160 q3 -40 44 -33 q57 -1 108.5 27.5 q51.5 28.5 54.5 91.5 q-2 45 -8 88 q60 -59 67 -140 q-4 -66 -59 -96 q-55 -30 -115 -30 q-61 0 -107.5 32.5 q-46.5 32.5 -49.5 97.5 q2 70 33.5 118.5 q31.5 48.5 65.5 103.5 q-6 3 -11 4 q-50 -3 -96 -22.5 q-46 -19.5 -96 -22.5 q-31 8 -44 37 q20 23 48 27 q50 2 97.5 19.5 q47.5 17.5 98.5 19.5 Z" /><glyph glyph-name="uni5904" unicode="&#x5904;" d="M289 738 q27 4 31 -21 q-5 -67 -43 -140 q-38 -73 -43 -142 q45 15 99.5 37.5 q54.5 22.5 98.5 24.5 q73 -4 81 -76 q-4 -48 -42 -126 q-38 -78 -62 -128 q11 -12 81.5 -41.5 q70.5 -29.5 96.5 -37.5 q52 -17 107 -23 q10 -1 32.5 -4 q22.5 -3 29.5 -8 q10 -8 10 -21 q-3 -31 -34 -32 q-82 3 -177 44.5 q-95 41.5 -168 80.5 q-15 -31 -50 -93.5 q-35 -62.5 -65 -69.5 q-36 4 -46 37 q5 20 41.5 82 q36.5 62 51.5 92 q-18 15 -48 43.5 q-30 28.5 -33 49.5 q0 8 8 8 q19 -2 46.5 -25 q27.5 -23 44.5 -36 q14 22 54.5 109.5 q40.5 87.5 46.5 108.5 l-5 2 q-34 -5 -121.5 -46.5 q-87.5 -41.5 -114.5 -64.5 q-20 -28 -49 -100 q-29 -72 -48 -81 q-39 10 -51 48 q7 19 58.5 153 q51.5 134 67.5 180 q12 41 43.5 123.5 q31.5 82.5 70.5 92.5 ZM760 646 q34 -7 41 -66 q7 -59 5 -89 q-1 -47 -9.5 -168 q-8.5 -121 -16.5 -151 q-4 -12 -17 -13 q-46 12 -48 63 q8 148 22 294 q0 21 3.5 72.5 q3.5 51.5 19.5 57.5 ZM889 446 q24 -2 46 -29 q22 -27 24 -50 q0 -15 -8 -37.5 q-8 -22.5 -25 -24.5 q-64 13 -64 82 q0 14 6 35.5 q6 21.5 21 23.5 Z" /><glyph glyph-name="uni8239" unicode="&#x8239;" d="M263 767 q8 4 15 3 q46 -4 55 -47 q-9 -36 -44 -49 q-42 4 -49 43 q3 28 23 50 ZM354 595 q83 -6 106 -83 q23 -77 20 -147 q1 -77 -9.5 -205 q-10.5 -128 -48.5 -189 q-26 10 -39 29 q11 99 22 197 l-1 5 q-24 -1 -101.5 -12.5 q-77.5 -11.5 -94.5 -17.5 l0 -6 q13 -103 25 -204 q-1 -11 -12 -12 q-41 6 -53.5 60.5 q-12.5 54.5 -14.5 90.5 q-1 10 -4.5 33 q-3.5 23 -8.5 26 q-18 -3 -36 -6 q-16 0 -37 7 q-21 7 -23 26 q4 13 38 21.5 q34 8.5 49 15.5 q6 14 7.5 97.5 q1.5 83.5 1.5 115.5 q-1 20 1 54 q2 34 13 49 q21 -4 28.5 -31.5 q7.5 -27.5 13.5 -33.5 q20 16 57 65 q37 49 101 55 ZM382 538 q-69 -10 -110 -70 q-40 -44 -55.5 -76.5 q-15.5 -32.5 -14.5 -93.5 q-2 -31 5 -60 q103 13 208 38 q3 84 4 168 q1 22 -5 56 q-6 34 -32 38 ZM320 400 q20 -2 27 -23.5 q7 -21.5 7 -38.5 q1 -13 -4 -33 q-5 -20 -21 -22 q-44 14 -47 64 q2 36 36 53 l2 0 ZM300 151 q39 -15 44 -56 q2 -45 -38 -58 q-34 4 -36 39 q1 13 10 42 q9 29 20 33 ZM741 655 q49 -1 86.5 -34.5 q37.5 -33.5 39.5 -82.5 q-4 -80 -8 -161 q2 -21 25 -20.5 q23 0.5 40 2.5 q22 2 22 -20 q-6 -38 -47 -41 q-44 2 -75 37.5 q-31 35.5 -32 78.5 q5 76 10 152 q3 42 -39 38 q-86 -18 -131.5 -147.5 q-45.5 -129.5 -68.5 -147.5 q-35 12 -44 49 q10 96 37 190 q2 14 8.5 45.5 q6.5 31.5 16.5 37.5 l4 0 q22 -1 25 -16.5 q3 -15.5 8 -30.5 q31 27 54.5 48.5 q23.5 21.5 68.5 22.5 ZM764 254 q76 -4 118 -67 q42 -63 43 -135 q1 -20 -7 -38 q-29 -40 -115 -53 q-86 -13 -136 -12 q-65 4 -76.5 54 q-11.5 50 -8.5 102 q-1 25 5.5 66.5 q6.5 41.5 35.5 45.5 q16 -5 29 -17 q33 20 49.5 36.5 q16.5 16.5 62.5 17.5 ZM792 200 q-67 -2 -91 -43 q-24 -41 -23 -100 l1 -49 q34 2 92.5 13 q58.5 11 82.5 32 q13 17 11 38 q1 36 -15.5 71 q-16.5 35 -57.5 38 Z" /><glyph glyph-name="uni6B64" unicode="&#x6b64;" d="M648 678 q33 -4 34 -45.5 q1 -41.5 -1 -67.5 l0 -96 l11 0 q54 4 107 29.5 q53 25.5 104 29.5 q36 -11 48 -47 q-23 -30 -121.5 -47.5 q-98.5 -17.5 -143.5 -21.5 l0 -41 q1 -43 12 -144 q11 -101 26 -133 q9 -16 26 -17 q50 3 73 44.5 q23 41.5 23 87.5 q-2 37 -15.5 71.5 q-13.5 34.5 -15.5 70.5 l2 2 q15 -6 40.5 -49 q25.5 -43 33.5 -62 q19 -42 19 -88 q0 -54 -31.5 -97.5 q-31.5 -43.5 -88.5 -46.5 q-119 13 -146.5 144.5 q-27.5 131.5 -22.5 230.5 q0 47 -0.5 145 q-0.5 98 5.5 130 q0 20 22 18 ZM266 658 q42 -12 41 -58 q-4 -96 -8 -192 q55 13 109 10 q28 1 60.5 -7 q32.5 -8 35.5 -41 q0 -3 -2 -7 q-57 -12 -116 -8 q-47 3 -89 -12 q4 -78 10 -156 l3 -1 q66 4 130.5 30 q64.5 26 132.5 30 q5 0 9 -2 q-2 -12 -16 -31.5 q-14 -19.5 -24 -27.5 q-44 -32 -119.5 -49.5 q-75.5 -17.5 -130.5 -28.5 q-96 -31 -196 -41 q-50 1 -63 46 q2 11 21 17 q19 6 29 8 q1 18 2 36 q-7 117 -15 234 q-2 20 16 21 q18 -2 29 -17 q12 -24 25.5 -110.5 q13.5 -86.5 14.5 -121.5 q-2 -18 16 -19 q12 0 40 5 q28 5 31 15 l-1 4 q-17 101 -13 204 q-1 42 5 149.5 q6 107.5 33 120.5 Z" /><glyph glyph-name="uni4ECE" unicode="&#x4ece;" d="M288 658 q20 -2 31.5 -24.5 q11.5 -22.5 11.5 -41.5 q-8 -72 -86.5 -255.5 q-78.5 -183.5 -125.5 -206.5 q-34 8 -43 42 q5 24 42.5 95.5 q37.5 71.5 53.5 102.5 q50 96 82 199 q4 16 12 50.5 q8 34.5 22 38.5 ZM746 659 q32 -14 37 -51 q-10 -77 -97 -279.5 q-87 -202.5 -134 -277.5 q-4 -10 -15 -13 q-35 6 -44 38 q1 24 16.5 57.5 q15.5 33.5 27.5 55.5 q94 191 165 391 q5 15 17 45 q12 30 27 34 ZM374 347 q25 -2 44 -29 q19 -27 20 -51 q1 -32 -28 -40 q-61 13 -66 77 q-7 39 30 43 ZM853 306 q28 -2 51.5 -28 q23.5 -26 24.5 -53 q1 -13 -3 -32 q-4 -19 -20 -21 q-33 3 -57 39.5 q-24 36.5 -25 68.5 q-1 30 29 26 Z" /><glyph glyph-name="uni9519" unicode="&#x9519;" d="M149 767 q40 -14 38 -62 q-2 -54 -15.5 -106 q-13.5 -52 -15.5 -106 l6 -4 q47 7 119 48 q72 41 88 47 q12 -1 28 -15.5 q16 -14.5 17 -26.5 q-11 -39 -108 -80 q-97 -41 -142 -44 q-29 1 -56 21.5 q-27 20.5 -29 50.5 q2 39 22 125.5 q20 86.5 33 129.5 q1 16 15 22 ZM716 709 q28 -5 35 -43.5 q7 -38.5 23 -43.5 q39 -5 47 -43 q-4 -15 -32.5 -17.5 q-28.5 -2.5 -32.5 -14.5 q-2 -35 -17 -69 q-15 -34 -17 -68 q8 -2 16 -3 q64 -1 125 15 q12 5 24 6 q40 -10 51 -48 l-1 -5 q-14 -18 -85.5 -22.5 q-71.5 -4.5 -100.5 -3.5 q-22 0 -76.5 -2 q-54.5 -2 -68.5 -9 q-12 -8 -27 -3 q-63 -9 -127 -19 q-46 0 -60 39 q12 22 41 16 q56 4 110 21 l0 155 q-17 0 -38.5 9.5 q-21.5 9.5 -23.5 28.5 q3 7 29 11 q26 4 37 4 q0 16 3.5 52 q3.5 36 17.5 40 q29 -3 33.5 -36.5 q4.5 -33.5 3.5 -54.5 q46 4 91 10 q0 15 4.5 54 q4.5 39 15.5 44 ZM605 547 l0 -147 l45 10 q22 68 38 137 l-83 0 ZM326 393 q34 -5 43 -35 q-4 -15 -40 -31.5 q-36 -16.5 -53 -21.5 l0 -39 q0 -19 5 -39 q33 23 66 34 q34 -6 39 -40 q-4 -26 -42.5 -45 q-38.5 -19 -62.5 -28 l0 -31 q-1 -13 1.5 -47.5 q2.5 -34.5 15.5 -38.5 q36 5 61 42.5 q25 37.5 42 42.5 q25 -15 25 -49 q-12 -88 -102 -95 q-63 3 -84 48.5 q-21 45.5 -23 100.5 q-48 -20 -99 -23 q-43 0 -55 38 q5 13 21 11 q21 4 64.5 19.5 q43.5 15.5 59.5 27.5 q9 12 11.5 42.5 q2.5 30.5 2.5 47.5 l-7 0 q-27 -1 -63.5 6.5 q-36.5 7.5 -40.5 39.5 q12 16 37 8 q47 3 94 27.5 q47 24.5 84 27.5 ZM743 284 q60 -3 93 -52.5 q33 -49.5 34 -105.5 q-1 -60 -43 -126.5 q-42 -66.5 -107 -72.5 q-34 2 -62 20 q-75 43 -85 95 q-10 52 -6 131 q-1 17 3 48 q4 31 23 34 q27 -10 34 -41 q42 64 116 70 ZM774 227 q-35 -1 -69 -25.5 q-34 -24.5 -36 -61.5 q0 -9 7 -16 q10 -4 58.5 -5 q48.5 -1 66.5 -1 q4 23 4 47 q1 18 -4 39 q-5 21 -27 23 ZM663 -11 l20 0 q21 2 52.5 24.5 q31.5 22.5 34.5 42.5 q-2 7 -19 9 q-17 2 -24 2 q-32 3 -64 10 l0 -88 Z" /><glyph glyph-name="uni5927" unicode="&#x5927;" d="M531 664 q21 -4 28 -41.5 q7 -37.5 6 -56.5 q-1 -36 -7 -72 q77 -5 153 -5 q59 -2 117 13 q13 5 28 6 q16 -1 35 -17.5 q19 -16.5 21 -32.5 q-28 -31 -109 -32 q-81 -1 -127 1 q-18 0 -67 -1.5 q-49 -1.5 -57 -10.5 q-18 -85 -80.5 -238.5 q-62.5 -153.5 -145.5 -170.5 q-32 1 -38 31 q2 15 14 26 q68 77 110 170 q14 30 39.5 95.5 q25.5 65.5 29.5 92.5 q-29 5 -60 3 q-134 -3 -269 -6 q-34 0 -46 29 q24 36 192.5 40 q168.5 4 199.5 14 q8 24 11 89.5 q3 65.5 22 73.5 ZM706 200 q41 -2 71.5 -36 q30.5 -34 32.5 -74 q4 -45 -37 -52 q-38 2 -70.5 36.5 q-32.5 34.5 -34.5 72.5 q-1 44 38 53 Z" /><glyph glyph-name="uni6234" unicode="&#x6234;" d="M337 830 q4 5 10 5 q21 -2 30 -25.5 q9 -23.5 11 -42.5 q-1 -17 8 -27 q58 15 112 30 q12 -1 30.5 -15.5 q18.5 -14.5 20.5 -25.5 q-6 -19 -54 -30 q-48 -11 -69 -13 q-39 3 -41 -34 l0 -43 q128 14 254 39 q-7 26 -14 51 q3 10 14 7 q38 -11 51 -53 q41 5 82 6 q45 -1 57 -42 l-4 -8 l0 1 q-11 -5 -57.5 -9.5 q-46.5 -4.5 -65.5 -6.5 l-1 -6 q4 -107 28 -211 q1 -10 8 -16 q13 4 37 35.5 q24 31.5 49 35.5 q27 -7 36 -32 q-6 -29 -51.5 -76 q-45.5 -47 -52.5 -71 q1 -15 13 -43 q12 -28 29 -28 l-1 0 q6 2 12 2 q21 -15 20 -47 q1 -22 -21 -24 q-31 3 -60.5 39.5 q-29.5 36.5 -42.5 63.5 q-10 -13 -31 -31 q-21 -18 -37 -20 q-36 6 -49 38 q6 15 21 27 l-1 0 q18 18 37 32 l0 -1 q22 16 39 36 q-8 146 -46 288 q-73 -5 -146 -22 q-190 -37 -383 -45 q-14 0 -34 8.5 q-20 8.5 -22 23.5 q12 16 35 15 q116 9 231 30 q4 25 3 50 l0 25 q-32 -1 -65 -3 q-20 0 -47 8 q-27 8 -30 31 q15 15 41 14 q51 4 101 13 l-1 39 q-2 32 8 59 l-1 -1 ZM884 804 q17 -1 35.5 -19.5 q18.5 -18.5 19.5 -35.5 q-6 -40 -46 -49 q-19 2 -37 21.5 q-18 19.5 -19 38.5 q6 41 47 44 ZM447 498 q124 -3 128 -127 q-1 -59 -26 -83.5 q-25 -24.5 -64 -59.5 q8 -25 11 -52 q17 5 35 5 q34 -7 44 -39 q-4 -14 -35 -20 q-31 -6 -45 -6 l0 -23 q-1 -7 5 -11 q12 2 24 4 q38 -1 49 -35 q-14 -27 -123.5 -41.5 q-109.5 -14.5 -153.5 -14.5 q-20 -1 -57.5 5 q-37.5 6 -41.5 28 q7 18 64.5 21.5 q57.5 3.5 81.5 6.5 l-2 3 l1 0 q-13 21 -8 27.5 q5 6.5 -33 5.5 q-42 -1 -56 33 q4 14 37.5 21.5 q33.5 7.5 48.5 10.5 l0 55 l-14 0 q-7 1 -13 -2 q-4 -9 -14 -8 q-45 4 -55 51.5 q-10 47.5 -8 84.5 l0 70 q-1 21 5.5 48 q6.5 27 31.5 30 q17 -2 24 -18 q79 20 159 30 ZM506 441 q-31 1 -62 2 q-30 5 -28 -26 q-2 -12 8 -19 q33 9 68 11 q11 -2 21 -5 l2 2 q-1 18 -9 35 ZM365 428 q-20 -3 -46.5 -12 q-26.5 -9 -29.5 -33 l0 -13 q32 14 67 15 q11 19 9 43 ZM365 428 l1 0 l-1 0 ZM507 349 q-45 0 -91 -11 q-6 -20 -4 -44 q0 -10 4 -19 q23 2 51 25.5 q28 23.5 40 42.5 l0 6 ZM360 330 q-15 -3 -39.5 -8 q-24.5 -5 -27.5 -24 q1 -17 7 -33 l68 0 q-10 32 -8 65 ZM430 216 q-25 0 -48 -7 q6 -15 6 -31 l7 -15 l1 1 q12 3 25 2 q18 4 13 25 q1 14 -4 25 ZM432 112 q-18 -3 -37 -7 l0 -45 q46 5 37 52 ZM502 -9 q46 -8 55 -54 q-6 -35 -42 -38 q-43 7 -51 51 q4 35 38 41 ZM332 -41 q40 -7 51 -44 q-1 -13 -9 -25 l0 1 q-9 -24 -35 -26 q-50 11 -56 65 q13 30 49 29 Z" /><glyph glyph-name="uni4F46" unicode="&#x4f46;" d="M364 710 q24 -5 31 -28 q-98 -136 -191 -276 l16 -14 q27 -47 35.5 -196 q8.5 -149 43.5 -177 q9 1 20 3 q26 -3 21 -31 q5 -32 -24 -39 q-54 12 -80 64 q-24 51 -37 129.5 q-13 78.5 -13 136.5 q0 26 -4 51 q-18 -9 -41 -63 q-23 -54 -42 -62 q-45 9 -56 54 q14 71 137 248.5 q123 177.5 184 199.5 ZM673 667 q91 -3 172.5 -70.5 q81.5 -67.5 87.5 -161.5 q5 -65 -45 -104 q-107 -79 -240 -80 q-49 4 -98 7 q-10 -2 -10.5 -16.5 q-0.5 -14.5 -12.5 -16.5 q-14 3 -26 11 q-34 23 -37.5 56.5 q-3.5 33.5 -1.5 70.5 q-1 48 5.5 101.5 q6.5 53.5 35.5 92.5 q18 22 34 46 q51 67 136 64 ZM681 604 q-129 -13 -127 -147 q52 1 103 1 q44 3 107.5 0.5 q63.5 -2.5 90.5 -39.5 q13 20 10 44 q-3 80 -57 111 q-54 31 -127 30 ZM626 405 q-37 0 -74 -3 q-5 -14 -4 -29 q-1 -30 8 -58 l47 0 q132 0 235 82 q-106 8 -212 8 ZM908 132 q38 -6 49 -42 q-11 -36 -106.5 -42 q-95.5 -6 -138.5 -4 q-32 -2 -91.5 5.5 q-59.5 7.5 -66.5 44.5 q0 4 2 7 q28 8 142.5 7 q114.5 -1 170.5 14 q19 9 39 10 Z" /><glyph glyph-name="uni86CB" unicode="&#x86cb;" d="M492 369 q23 -2 29 -25 q6 -23 11 -41 q55 9 110 14 q37 0 72.5 -17.5 q35.5 -17.5 38.5 -59.5 q-4 -48 -47 -76.5 q-43 -28.5 -74 -59.5 q-6 -15 -49 -14.5 q-43 0.5 -56 -6.5 q-5 -8 -11 -34.5 q-6 -26.5 -7 -37.5 l2 -3 q16 2 50 17.5 q34 15.5 59 21.5 q16 0 23 11 q1 21 21 24 q33 -7 40.5 -66.5 q7.5 -59.5 6.5 -91.5 q3 -21 -12 -32 q-37 3 -43 39 q-6 36 -10 65 q-32 -16 -75 -34.5 q-43 -18.5 -78 -20.5 q-51 0 -59 49 q9 44 18 87 q-3 6 -25 15.5 q-22 9.5 -25 27.5 l2 5 q50 7 61.5 13 q11.5 6 9.5 64 q0 13 -5 25 q-45 -17 -88 -37 q-2 -33 -2 -67 q0 -9 -2 -28 q-2 -19 -12 -21 q-24 3 -37.5 32 q-13.5 29 -13.5 51 q-1 28 8 79.5 q9 51.5 38 57.5 q29 -2 28 -21 q-1 -19 5 -25 q42 26 88 39 q-5 18 -6 38 q-2 29 16 44 ZM672 268 q-68 -2 -134 -22 q-1 -41 -2 -82 q-3 -20 14 -26 q22 6 76 52.5 q54 46.5 61 67.5 q-5 9 -15 10 ZM661 789 q59 -3 69 -58 q0 -27 -14.5 -68 q-14.5 -41 -44.5 -45 q-32 -1 -42 26 q2 14 16.5 38 q14.5 24 17.5 48 q-5 2 -10 3 q-163 -6 -322 -50 q-46 -15 -93 -19 q-33 2 -39 33 q70 31 226 60.5 q156 29.5 236 31.5 ZM457 627 q29 -3 33 -31.5 q4 -28.5 11 -50.5 l4 -1 q57 14 114 28 q10 -1 27 -14 q17 -13 20 -23 q-20 -19 -75.5 -34 q-55.5 -15 -86.5 -19 l0 -39 q-3 -22 14 -30 q47 3 93 12 q110 13 221 19 q25 -16 37 -42 q-6 -6 -25.5 -8.5 q-19.5 -2.5 -28.5 -3.5 q-195 -29 -392 -43 q-85 1 -164 24 q-8 -18 -30 -60.5 q-22 -42.5 -37 -47.5 q-30 8 -41 36 q7 36 59.5 135 q52.5 99 73.5 111 q28 0 28 -27 q-2 -31 -16.5 -61.5 q-14.5 -30.5 -16.5 -48.5 q13 -10 33 -8 q58 1 115 2 q17 -1 27 5 q0 4 -2 7 q-15 74 -11 153 q0 10 2.5 33.5 q2.5 23.5 13.5 26.5 Z" /><glyph glyph-name="uni5230" unicode="&#x5230;" d="M842 540 q1 8 9 8 q62 -10 78.5 -102.5 q16.5 -92.5 14.5 -145.5 q2 -44 -4 -134.5 q-6 -90.5 -48 -101.5 q-40 5 -75.5 54.5 q-35.5 49.5 -45.5 87.5 q13 -11 42.5 -38.5 q29.5 -27.5 40.5 -30.5 q12 15 15 79.5 q3 64.5 3 90.5 q0 33 -2.5 89 q-2.5 56 -11.5 85 q-13 28 -16 59 ZM651 467 q41 -9 50 -86 q9 -77 7 -114 q1 -15 0.5 -56.5 q-0.5 -41.5 -11.5 -46.5 q-40 4 -51.5 48 q-11.5 44 -10.5 76 l0 114 q0 11 2.5 36.5 q2.5 25.5 13.5 28.5 ZM137 725 q126 -5 251 -11 q27 1 71 -6 q44 -7 49 -39 q-3 -9 -23 -10.5 q-20 -1.5 -28 -1.5 l-103 0 q-41 -2 -126.5 7.5 q-85.5 9.5 -95.5 54.5 l5 6 ZM253 626 q21 -8 29 -29 q-6 -43 -50.5 -127 q-44.5 -84 -51.5 -119 l4 -5 q118 38 236 76 q28 13 29 29 q1 16 14 18 q29 -3 45 -28 q5 -16 14.5 -95 q9.5 -79 10.5 -104 q-1 -17 -18 -17 q-44 4 -48 50.5 q-4 46.5 -11 80.5 l-1 0 q-16 -1 -57.5 -12 q-41.5 -11 -58.5 -17 q8 -59 20 -119 q15 5 29 5 q32 -7 39 -38 q-3 -16 -27.5 -23.5 q-24.5 -7.5 -39.5 -9.5 q-1 -63 -9 -126 q26 14 68 33.5 q42 19.5 69 21.5 q27 -1 32 -27 q-6 -17 -23 -28 q-75 -67 -173 -75 q-18 0 -39.5 12.5 q-21.5 12.5 -23.5 30.5 q2 33 16.5 65.5 q14.5 32.5 16.5 67.5 q1 6 -5 8 q-26 -4 -52 -9 q-40 4 -52 39 q51 28 107 39 q3 59 3 117 q-23 -10 -65 -24 q-42 -14 -64 -15 q-57 4 -70 58 q6 36 58 142.5 q52 106.5 76 136.5 q11 10 23 17 Z" /><glyph glyph-name="uni9053" unicode="&#x9053;" d="M150 700 q27 -3 56 -37.5 q29 -34.5 31 -61.5 q1 -44 -39 -53 q-41 2 -58.5 35 q-17.5 33 -17.5 70 q-6 39 28 47 ZM166 320 q37 -8 43 -45 q-13 -57 -27 -116 q5 -36 36.5 -58.5 q31.5 -22.5 35.5 -59.5 q-10 -37 -22 -72 q21 -10 48 -7 q107 0 213 3 q14 -18 17 -41 q-3 -19 -33 -23.5 q-30 -4.5 -47 -3.5 l-80 0 q-44 -2 -118 13.5 q-74 15.5 -82 67.5 q2 23 18.5 43 q16.5 20 18.5 43 q-4 23 -34 43 q-30 20 -34 75 q0 24 13 78 q13 54 34 60 ZM448 758 q9 11 22 11 q69 -7 74 -76 q0 -9 -4 -17 l1 0 q-8 -8 -5 -21 q-3 -11 -15 -10 q-28 2 -55.5 29.5 q-27.5 27.5 -29.5 55.5 q0 16 11 28 l1 0 ZM681 752 q10 9 22 9 q21 -1 44.5 -19.5 q23.5 -18.5 25.5 -39.5 q-9 -31 -44 -34 q-49 9 -58 58 q0 15 11 26 l-1 0 ZM392 602 q5 6 15 5 q9 0 18 -1 q139 -10 278 -6 q29 1 87 -6 q58 -7 65 -39 q-5 -16 -44.5 -19.5 q-39.5 -3.5 -56.5 -2.5 q-15 0 -52.5 -2 q-37.5 -2 -42.5 -12 q-2 -29 -31.5 -59.5 q-29.5 -30.5 -58.5 -32.5 l-4 1 l1 0 q-19 5 -21 24 q15 46 32 76 l-3 4 q-34 0 -104 18.5 q-70 18.5 -78 51.5 ZM730 442 q70 -6 87 -77.5 q17 -71.5 14 -129.5 q3 -54 -9.5 -147.5 q-12.5 -93.5 -74.5 -103.5 q-37 3 -77 24 q-40 21 -63 24 q-7 -2 -14 -4 q-66 11 -86.5 109 q-20.5 98 -18.5 157 q-1 25 5.5 79.5 q6.5 54.5 31.5 60.5 q22 -6 23 -31 l0 1 l7 -29 q38 19 85.5 42 q47.5 23 89.5 25 ZM733 385 q-26 -4 -94 -41 q-68 -37 -97 -55 q18 0 35 -1 q38 3 75 14 q47 10 95 8 q11 4 9 16 q1 14 -2.5 35.5 q-3.5 21.5 -20.5 23.5 ZM756 242 q0 13 -13 13 q-67 -8 -156 -16 q-25 2 -28 -21 q1 -10 8 -18 q89 19 180 27 q8 6 9 15 ZM635 153 q-31 4 -63 8 l-4 -5 q1 -10 4 -21 q8 -38 16 -47 q8 -9 46 -21 q33 -13 65 -19 q21 5 37 50.5 q16 45.5 21 68.5 q-61 -11 -122 -14 Z" /><glyph glyph-name="uni5F97" unicode="&#x5f97;" d="M296 693 q22 -8 22 -32 q-6 -40 -64.5 -102 q-58.5 -62 -98.5 -68 q-32 5 -46 33 q90 88 187 169 ZM294 463 q35 -8 40 -43 q-4 -22 -41.5 -77 q-37.5 -55 -55.5 -79 q9 -12 28.5 -23.5 q19.5 -11.5 34.5 -49.5 q9 -30 15.5 -91.5 q6.5 -61.5 6.5 -95.5 q3 -18 -11 -25 q-57 14 -57.5 110.5 q-0.5 96.5 -22.5 110.5 q-29 -4 -56.5 -29 q-27.5 -25 -44.5 -29 q-11 2 -29 18 q-18 16 -21 27 q32 54 100.5 141.5 q68.5 87.5 113.5 134.5 ZM645 801 q157 -3 172 -157 q1 -87 -39.5 -144.5 q-40.5 -57.5 -133.5 -59.5 q-30 0 -75 13.5 q-45 13.5 -66 34.5 q-16 24 -15 53 q-1 48 4 105.5 q5 57.5 22 101.5 q10 23 19 25 q9 2 29 10 q37 23 83 18 ZM649 751 q-38 1 -49 -9 q-11 -10 -24 -46 q-8 -15 -11 -31 q6 -11 20 -10 q87 1 167 -25 l0 42 q1 60 -23.5 71 q-24.5 11 -79.5 8 ZM553 614 q0 -16 5.5 -60.5 q5.5 -44.5 10.5 -52.5 q12 -6 26 -5 q57 -1 105 30 q29 25 40 59 q-23 9 -86 13.5 q-63 4.5 -101 15.5 ZM761 387 q19 0 47 -10 q28 -10 31 -31 q-7 -19 -65 -22.5 q-58 -3.5 -79 -12.5 l-3 -7 q7 -42 24 -85 q56 19 111 27 q40 -10 50 -51 q-7 -14 -66.5 -28 q-59.5 -14 -82.5 -16 q1 -31 1 -63 q2 -34 -6.5 -103 q-8.5 -69 -47.5 -77 q-31 2 -67.5 32 q-36.5 30 -39.5 61 l3 6 q11 -7 30.5 -22 q19.5 -15 29.5 -17 q21 9 27 79 q6 70 6 93 q-52 -2 -105 -3 q-23 0 -53.5 11 q-30.5 11 -33.5 37 q1 18 19 20 q15 -8 41 -17 q17 1 66.5 8.5 q49.5 7.5 61.5 12.5 q0 14 -4.5 52 q-4.5 38 -14.5 43 q-36 -5 -72 -10 q-19 0 -43.5 10.5 q-24.5 10.5 -26.5 31.5 q6 11 21 9 q55 3 116.5 21 q61.5 18 124.5 21 ZM465 104 q65 -7 78 -68 q-5 -42 -42 -55 q-63 3 -76 62 q-2 49 40 61 Z" /><glyph glyph-name="uni7684" unicode="&#x7684;" d="M237 661 q59 -10 61 -73 q3 -49 -40 -61 q-23 2 -44.5 27 q-21.5 25 -22.5 48 q0 50 46 59 ZM582 661 q39 -6 39.5 -58.5 q0.5 -52.5 -2.5 -83.5 q-1 -11 6 -16 q26 1 70 10.5 q44 9.5 87 10.5 q71 -2 106 -49 q35 -47 35 -114 l0 -29 q5 -128 -54 -242 q-10 -21 -26.5 -44.5 q-16.5 -23.5 -41.5 -25.5 q-21 2 -43.5 24.5 q-22.5 22.5 -24.5 43.5 q0 4 2 7 q19 -12 34 -20 q18 8 44.5 71 q26.5 63 33.5 89 q17 93 11 188 q0 56 -60 47 q-47 1 -115.5 -10.5 q-68.5 -11.5 -97.5 -49.5 q-7 -17 -23 -23 q-30 9 -31 44 q13 89 36 177 q1 9 5 29.5 q4 20.5 10 23.5 ZM93 459 q22 -2 29 -24.5 q7 -22.5 6 -41.5 q-3 -27 8 -46 q40 28 73 49.5 q33 21.5 88 22.5 q71 -3 104.5 -58.5 q33.5 -55.5 33.5 -120.5 q-4 -50 -52.5 -110.5 q-48.5 -60.5 -98.5 -66.5 q-29 2 -60 23 q-31 21 -53 40 q2 -23 3 -47 q4 -15 -11 -16 q-59 15 -74 145 q-15 130 -13 191 q-1 11 1.5 34 q2.5 23 15.5 26 ZM317 369 q-39 -1 -94.5 -30.5 q-55.5 -29.5 -60.5 -70.5 l2 -5 q106 5 210 27 l1 8 q6 66 -58 71 ZM204 212 q-22 3 -44 8 l-4 -8 q-1 -11 10 -10 q17 -5 31 -39 q14 -34 54 -39 q23 4 60 38 q37 34 42 57 l-8 3 q-70 -5 -141 -10 ZM595 305 q32 -1 61.5 -26.5 q29.5 -25.5 31.5 -58.5 q-3 -43 -47 -46 q-76 14 -76 96 q-3 34 30 35 Z" /><glyph glyph-name="uni7B49" unicode="&#x7b49;" d="M616 833 q20 -3 30.5 -24 q10.5 -21 21.5 -24 q68 4 136 8 q39 2 51 -30 q-8 -30 -75 -29 q-67 1 -97 3 q-20 3 -35 -7 q-11 -21 -21 -75 q-10 -54 -27 -61 q-37 11 -45 48 q2 29 23 100 q21 71 38 91 ZM288 828 q29 -9 33 -40 q-5 -21 -14 -41 q8 -2 16 -2 q87 8 174 15 q45 -1 56 -42 l-3 -7 q-17 -10 -73.5 -13 q-56.5 -3 -81.5 -3 q-58 4 -116 8 q-23 -21 -50 -79 q-27 -58 -46 -65 q-35 9 -44 43 q6 39 62.5 115 q56.5 76 86.5 111 ZM747 678 q46 -3 52 -47 q0 -29 -29 -32 q-48 8 -61 53 q9 25 38 26 ZM376 641 q17 -2 36 -22.5 q19 -20.5 21 -37.5 q-6 -34 -41 -39 q-54 6 -63 59 q12 33 47 40 ZM510 547 q24 -4 36.5 -32.5 q12.5 -28.5 22.5 -32.5 q44 10 87 19 q39 -6 50 -44 q0 -4 -2 -8 q-17 -16 -65.5 -22 q-48.5 -6 -73.5 -6 q-2 -51 -2 -102 q87 17 175 24 q45 -1 57 -42 l-4 -10 q-18 -8 -79 -14.5 q-61 -6.5 -84 -15.5 l0 -1 q1 -12 8.5 -37 q7.5 -25 13.5 -36 q37 11 73 17 q36 -7 44 -42 q-5 -13 -44.5 -26 q-39.5 -13 -56.5 -18 q3 -39 -2 -139 q-5 -100 -54 -112 q-19 1 -47 18 q-28 17 -31 36 l1 3 l4 0 q15 -2 29 -4 q29 7 34 70 q5 63 4 91 q1 11 -2 21 q-69 -16 -139 -22 q-18 0 -44 8.5 q-26 8.5 -29 28.5 q6 6 14 8 q31 7 107.5 21 q76.5 14 85.5 31 q-2 40 -17 79 q-118 -18 -237 -17 q-20 -1 -56 4 q-36 5 -40 28 l3 7 q21 8 115.5 17 q94.5 9 127.5 10 q8 33 6 66 l0 44 q-20 0 -40 -1 q-20 -1 -53 4.5 q-33 5.5 -37 29.5 q6 14 56.5 19.5 q50.5 5.5 70.5 5.5 l0 12 q0 10 2 34.5 q2 24.5 12 27.5 ZM420 35 q61 -9 73 -68 q1 -25 -23 -27 q-23 2 -49.5 24.5 q-26.5 22.5 -28.5 45.5 q3 25 28 25 Z" /><glyph glyph-name="uni4F4E" unicode="&#x4f4e;" d="M272 651 q34 -10 39 -46 q-7 -37 -63 -127 q-56 -90 -82 -134 q89 -38 100.5 -117.5 q11.5 -79.5 6.5 -164.5 q1 -14 -2 -50 q-3 -36 -15 -41 q-55 13 -56 73 q3 53 5 105 q1 20 -2.5 69.5 q-3.5 49.5 -17.5 55.5 q-32 -2 -56 -18 q-24 -16 -38 -18 q-16 1 -33.5 18.5 q-17.5 17.5 -19.5 33.5 q11 27 97 169.5 q86 142.5 113 178.5 q9 13 24 13 ZM737 707 q43 -1 53 -41 q-3 -12 -27.5 -16 q-24.5 -4 -36.5 -5 q-106 -18 -208 -53 q-6 -121 -25 -241 l2 0 q6 1 10 4 q107 40 216 75 q-2 43 -16.5 85.5 q-14.5 42.5 -16.5 85.5 q-2 10 7 12 q34 -10 54.5 -83.5 q20.5 -73.5 36.5 -83.5 q48 14 96 27 q32 -2 40 -32 q-6 -23 -58 -39.5 q-52 -16.5 -78 -22.5 q7 -41 30 -119.5 q23 -78.5 64 -87.5 q22 4 35 33 q13 29 26 35 q20 -35 21 -74 q1 -47 -45 -53 q-83 7 -125.5 90.5 q-42.5 83.5 -59.5 156.5 l-1 0 q-27 -3 -118 -32 q-91 -29 -128 -42 q-5 -76 -6 -152 q-1 -26 4 -50 q38 7 71.5 49 q33.5 42 47.5 48 q26 -15 26 -50 q-3 -42 -43 -75.5 q-40 -33.5 -81 -35.5 q-54 2 -72 39.5 q-18 37.5 -17 85.5 q-1 197 45 388 q12 44 14 89 q13 24 117.5 53 q104.5 29 145.5 32 ZM774 107 q30 -1 44 -22 q-4 -11 -10 -23 q20 -22 20 -51 q-2 -60 -59 -71 q-30 2 -50 28.5 q-20 26.5 -21 55.5 q7 72 76 83 Z" /><glyph glyph-name="uni5730" unicode="&#x5730;" d="M227 543 q23 -3 24 -34.5 q1 -31.5 -1 -49.5 q1 -27 6 -54 q44 7 87 10 q34 -3 42 -35 q-5 -23 -50 -26.5 q-45 -3.5 -67 -4.5 q-8 0 -12 -7 q0 -43 4 -115 q4 -72 13 -112 l6 -8 q24 2 69 20 q45 18 72 28 l1 -5 q-2 -34 -23 -62 q-26 -21 -106.5 -43.5 q-80.5 -22.5 -117.5 -24.5 q-32 4 -43 31 q3 14 32 23 q29 9 44 12 q1 131 -8 262 q-27 -1 -86.5 7 q-59.5 8 -66.5 33 q8 17 70 16.5 q62 -0.5 80 13.5 l-1 0 q6 20 6.5 69.5 q0.5 49.5 25.5 55.5 ZM716 594 q32 -6 35.5 -55.5 q3.5 -49.5 1.5 -76.5 l27 0 q42 3 81 -8 q73 -43 74 -129 q1 -28 -6 -78 q-7 -50 -39 -56 q-15 1 -36 15.5 q-21 14.5 -23 30.5 q1 8 8 13 q13 16 19 48 q6 32 6 53 q8 42 -28 53 q-42 -3 -83 -14 q2 -30 2 -61 q1 -15 -2.5 -55 q-3.5 -40 -17.5 -45 q-30 2 -40 28.5 q-10 26.5 -11 52.5 q0 8 -2.5 27.5 q-2.5 19.5 -9.5 21.5 q-5 -1 -36.5 -11 q-31.5 -10 -43.5 -14 q-4 -148 13 -294 q8 -4 15 -3 q41 5 82 10 q26 1 29 -24 q-3 -27 -35 -37.5 q-32 -10.5 -55 -10.5 q-103 12 -114 135 q-11 123 -5 207 q-20 2 -49 10.5 q-29 8.5 -32 31.5 q4 9 34 14.5 q30 5.5 42 5.5 q-1 22 3.5 77 q4.5 55 23.5 62 q23 -5 34 -47.5 q11 -42.5 16 -64.5 q45 13 86 32 l0 17 q-1 25 4.5 79 q5.5 54 31.5 60 Z" /><glyph glyph-name="uni7B2C" unicode="&#x7b2c;" d="M640 796 q30 -2 33 -32 q-9 -33 -19 -53 l2 -1 q53 14 108 27 q28 -8 37 -34 q-9 -15 -81 -36 q-72 -21 -100 -28 q-4 -16 -12.5 -56 q-8.5 -40 -21.5 -45 q-34 12 -44 47 q3 37 35 119 q32 82 63 92 ZM242 744 q22 -9 34 -28 q-3 -13 -7 -27 l4 -1 q44 3 88.5 20.5 q44.5 17.5 90.5 20.5 q42 -6 54 -46 q-2 -6 -18 -8 q-16 -2 -23 -2 q-23 -4 -114 -24.5 q-91 -20.5 -104 -23.5 q-26 -24 -42 -91 q-16 -67 -38 -75 q-33 8 -43 40 q4 40 46 136.5 q42 96.5 72 108.5 ZM378 630 q63 -4 74 -66 q-8 -47 -56 -54 q-59 9 -70 68 q4 48 52 52 ZM695 621 q47 -4 60 -48 q-9 -27 -39 -31 q-57 0 -70 50 q2 12 20 20.5 q18 8.5 29 8.5 ZM626 499 q27 0 58 -16.5 q31 -16.5 34 -46.5 q-1 -20 -15 -59.5 q-14 -39.5 -34 -44.5 q-34 3 -39 36 q11 38 21 72 q-1 8 -10 7 q-13 0 -48 -7 q-35 -7 -39 -16 q3 -29 24.5 -55.5 q21.5 -26.5 24.5 -36.5 q-10 -20 -37 -21 l8 -70 q72 11 152 16 q37 0 74 0 q76 -29 77 -110 q1 -38 -16 -83 q-17 -45 -61 -49 q-44 8 -74 42 l14 0 q46 3 62 45 q16 42 15 83 q0 20 -20 18 q-47 1 -106.5 -3.5 q-59.5 -4.5 -102.5 -20.5 q-13 -24 -11 -149 q2 -125 -25 -142 q-36 11 -41 51 q4 96 8 193 q1 12 -2 23 q-91 -39 -186 -50 q-54 2 -66.5 38 q-12.5 36 -10.5 81 q-1 14 3 36 q4 22 21 24 q21 -8 22 -61.5 q1 -53.5 20 -61.5 q27 3 91.5 26.5 q64.5 23.5 99.5 34.5 l4 77 q-48 -9 -96 -13 q-18 0 -43 8.5 q-25 8.5 -28 28.5 q5 13 20 9 q75 6 147 30 l0 29 q-1 15 -4 29 q-34 -2 -67 -15.5 q-33 -13.5 -68 -15.5 q-38 -1 -47 34 q43 19 147.5 46 q104.5 27 149.5 30 ZM455 72 q31 -10 37 -42 q-4 -24 -45.5 -62 q-41.5 -38 -66.5 -42 q-16 1 -34.5 16.5 q-18.5 15.5 -20.5 31.5 q2 25 21 35 q12 -6 21 -12 q14 5 42.5 37.5 q28.5 32.5 45.5 37.5 Z" /><glyph glyph-name="uni70B9" unicode="&#x70b9;" d="M460 784 q35 -6 38 -57 q3 -51 1 -81 q-2 -16 4 -31 q89 14 177 24 q52 -1 66 -47 q-4 -14 -39 -18 q-35 -4 -50 -4 q-78 -1 -153 -24 q2 -79 8 -159 q48 4 95 7 q48 0 96.5 -25 q48.5 -25 52.5 -78 q-4 -33 -43.5 -62 q-39.5 -29 -68.5 -44 q27 -23 40 -49 q-7 -20 -65 -27 q-58 -7 -82 -7 q-53 4 -67 52 q14 30 111 80 q97 50 111 90 q-2 9 -22.5 12 q-20.5 3 -29.5 3 q-47 0 -109 -14 q-62 -14 -102 -37 q-41 -20 -39 -65 q4 -48 7 -96 q3 -20 -13 -27 q-6 1 -12 3 q-35 16 -45.5 67 q-10.5 51 -15.5 87 q-16 73 -19 148 q-5 32 19 44 q20 -6 31.5 -58.5 q11.5 -52.5 15.5 -75.5 l2 -1 q15 5 26 15 q42 27 88 46 q-33 36 -36.5 90 q-3.5 54 -1.5 102 q-1 35 0.5 121 q1.5 86 23.5 96 ZM793 72 q79 -8 92 -85 q-8 -40 -49 -45 q-77 9 -89 85 q1 45 46 45 ZM152 50 q70 -7 82 -76 q3 -50 -46 -54 q-71 10 -82 81 q-2 49 46 49 ZM577 33 q24 -1 48.5 -19.5 q24.5 -18.5 26.5 -42.5 q-2 -29 -31 -31 q-26 1 -52.5 21 q-26.5 20 -28.5 47 q7 27 37 25 ZM378 23 q23 -2 44 -24 q21 -22 22 -45 q0 -21 -19 -25 q-27 1 -55.5 19.5 q-28.5 18.5 -30.5 46.5 q11 24 39 28 Z" /><glyph glyph-name="uni9876" unicode="&#x9876;" d="M822 722 q23 1 51 -9 q28 -10 31 -36 q-7 -21 -30 -31 q-82 -54 -135 -136 q-12 -18 -34.5 -56.5 q-22.5 -38.5 -25.5 -55.5 l2 -2 q31 3 73 22 q42 19 89 22 q99 -2 113 -95 q-1 -40 -32 -96 q-31 -56 -73 -62 q-32 3 -47 29 q6 14 44.5 66 q38.5 52 44.5 87 q-5 10 -18 8 q-88 -3 -152.5 -51.5 q-64.5 -48.5 -123.5 -104.5 q-15 2 -32 19 q-17 17 -19 32 q7 67 73 185.5 q66 118.5 112 173.5 q5 6 9 12 q-33 2 -105 7.5 q-72 5.5 -81 38.5 q4 8 34 11 q30 3 42 4 q94 12 190 18 ZM421 653 q38 -6 49 -42 q-10 -22 -77.5 -38 q-67.5 -16 -77.5 -30 q5 -35 16 -70 q11 -86 9 -172 q2 -49 -7.5 -155.5 q-9.5 -106.5 -57.5 -119.5 q-44 5 -81.5 57.5 q-37.5 52.5 -39.5 95.5 q-1 25 18 36 l5 -9 q3 -19 26.5 -65.5 q23.5 -46.5 36.5 -52.5 q10 4 17.5 35 q7.5 31 9.5 44 q15 90 11 182 q3 97 -10 192 q-40 0 -81 -1 q-29 -1 -85.5 7.5 q-56.5 8.5 -63.5 44.5 l1 3 q9 3 36.5 3 q27.5 0 40.5 0 q123 0 239 38 q32 14 66 17 ZM752 325 q38 -6 35 -46 q-4 -63 -59.5 -183.5 q-55.5 -120.5 -114.5 -134.5 q-32 4 -44 33 q6 18 20 33 q92 116 135 256 q4 31 28 42 ZM858 93 q26 -3 52.5 -32.5 q26.5 -29.5 28.5 -55.5 q2 -28 -25 -32 q-31 2 -54.5 30.5 q-23.5 28.5 -24.5 59.5 q-1 26 23 30 Z" /><glyph glyph-name="uni5B9A" unicode="&#x5b9a;" d="M430 773 q61 -3 69 -62 q-1 -37 -36 -44 q-71 1 -86 67 q10 39 53 39 ZM129 681 q36 -18 33 -61 q-2 -33 -4 -66 q-2 -9 6 -17 q30 2 98 21.5 q68 19.5 105 29.5 q184 59 376 69 q48 1 99.5 -18.5 q51.5 -19.5 55.5 -75.5 q-6 -45 -67 -66 q-61 -21 -102 -21 q-18 -2 -28 9 q8 20 65.5 52.5 q57.5 32.5 65.5 55.5 q-13 9 -32 7 q-175 -7 -330 -54.5 q-155 -47.5 -313 -57.5 q9 -61 11 -122 q0 -10 -11 -9 q-41 5 -50.5 53 q-9.5 48 -7.5 82 q-1 31 3.5 105 q4.5 74 26.5 84 ZM615 409 q25 -20 37 -45 q-8 -17 -73 -18.5 q-65 -1.5 -91 -2.5 q8 -82 29 -162 l7 -1 q44 4 87 7 q51 2 59 -48 q-18 -11 -73.5 -12.5 q-55.5 -1.5 -80.5 -0.5 l0 -28 q0 -27 4 -55 q0 -32 33 -33 q35 -5 109.5 -6.5 q74.5 -1.5 83.5 -36.5 q-3 -19 -29 -23 q-26 -4 -42 -3 q-68 7 -135 14 q-12 -1 -22 -4 q-32 13 -80.5 29.5 q-48.5 16.5 -80.5 18.5 q-12 -6 -23 -49.5 q-11 -43.5 -28 -49.5 q-38 8 -44 47 q3 30 24 132 q21 102 27 117 q5 2 9 3 q30 -3 33 -35.5 q3 -32.5 1 -55.5 l0 -63 q50 -8 99 -16 q-4 162 -15 322 l-31 -1 q-22 -1 -56 5 q-34 6 -38 31 q3 11 32 14 q29 3 41 3 q114 5 227 6 Z" /><glyph glyph-name="uni51AC" unicode="&#x51ac;" d="M458 758 q31 -7 43 -35 q-32 -44 -72 -82 q23 11 76 17.5 q53 6.5 81 6.5 q46 0 105.5 -26 q59.5 -26 65.5 -76 q-6 -41 -60.5 -90 q-54.5 -49 -87.5 -80 l17 -9 l-2 0 q37 -10 127.5 -45.5 q90.5 -35.5 116.5 -54.5 q16 -13 18 -32 q-1 -7 -5 -12 q-75 12 -162 50.5 q-87 38.5 -162 66.5 q-61 -44 -166.5 -125 q-105.5 -81 -168.5 -90 q-14 1 -32.5 18 q-18.5 17 -20.5 32 q7 26 36 21 q37 8 129.5 76.5 q92.5 68.5 132.5 99.5 q-19 3 -66 13.5 q-47 10.5 -53 22.5 q2 13 21 17 q19 4 30 4 q58 -3 113 -23 q24 18 95.5 84.5 q71.5 66.5 80.5 81.5 q-5 12 -45.5 15.5 q-40.5 3.5 -56.5 3.5 q-39 -1 -116 -12.5 q-77 -11.5 -109 -26.5 q-32 -26 -80 -97.5 q-48 -71.5 -72 -80.5 q-12 2 -31.5 18 q-19.5 16 -21.5 29 q15 47 135.5 175.5 q120.5 128.5 166.5 144.5 ZM499 176 q11 7 23 7 q64 -10 72 -74 q0 -29 -27 -32 q-26 2 -49.5 27.5 q-23.5 25.5 -25.5 51.5 q0 11 7 19 l0 1 ZM511 8 q7 5 16 4 q31 -1 59.5 -23 q28.5 -22 30.5 -54 q-3 -26 -28 -29 q-28 2 -56 27 q-28 25 -30 54 q0 11 8 20 l0 1 Z" /><glyph glyph-name="uni61C2" unicode="&#x61c2;" d="M728 816 q21 -2 33.5 -28 q12.5 -26 12.5 -45 q20 -8 41 -4 q53 4 67 -42 q-2 -9 -21.5 -11.5 q-19.5 -2.5 -28.5 -2.5 q-56 -3 -61 -24.5 q-5 -21.5 -9 -70.5 q17 -2 39.5 -10.5 q22.5 -8.5 24.5 -28.5 q-6 -13 -54.5 -23.5 q-48.5 -10.5 -68.5 -14.5 q4 -7 12.5 -24.5 q8.5 -17.5 15.5 -19.5 q40 5 79 9 q40 0 49 -35 q-8 -19 -66.5 -24.5 q-58.5 -5.5 -66.5 -18.5 q15 -4 32 -4 q66 -2 95 -49 q29 -47 28 -108 q5 -126 -119 -139 q-25 3 -25 -21 q4 -30 37 -18 q37 -3 46 -36 q-5 -19 -43 -19 q-38 0 -45 -37 q41 6 82 7 q46 5 58 -33 q-7 -22 -63.5 -27.5 q-56.5 -5.5 -82.5 -13.5 q-1 -11 -12 -11 q-18 3 -36 7 q-41 -6 -83 -11 q-34 2 -46 32 q8 17 62.5 26.5 q54.5 9.5 62.5 28.5 q-2 12 -19.5 11 q-17.5 -1 -26.5 -2 q-19 -1 -44.5 6 q-25.5 7 -27.5 30 q11 11 31 12 q44 6 87 15 l0 25 l0 25 q-54 11 -108 15 q-7 -2 -7 -12.5 q0 -10.5 -8 -12.5 q-39 4 -48 44.5 q-9 40.5 -7 72.5 q-3 93 9 100 q12 7 74 39 q15 8 52.5 23.5 q37.5 15.5 42.5 25.5 q-2 5 -8 6 q-83 -13 -166 -26 q-23 3 -32 24 q10 18 87 34.5 q77 16.5 108 25.5 q7 5 13.5 26 q6.5 21 7.5 32 l-6 1 q-85 -8 -170 -17 q-20 2 -23 21 q4 11 36.5 20 q32.5 9 46.5 12 q-19 30 -22 42.5 q-3 12.5 -2 47.5 q-60 -11 -120 -12 q-16 -1 -38 3 q-22 4 -24 23 q4 9 39.5 16 q35.5 7 49.5 10 q22 3 56 9.5 q34 6.5 38 28.5 q0 18 -1 36 q-5 36 23 47 q30 -5 27.5 -43.5 q-2.5 -38.5 16.5 -44.5 q56 4 108 19 l-1 35 q0 7 1.5 27.5 q1.5 20.5 8.5 23.5 ZM715 667 q-57 -11 -114 -19 l4 -91 q63 7 126 19 q-18 32 -17.5 44.5 q0.5 12.5 1.5 46.5 ZM755 342 q-26 1 -23 -26 q5 -44 41.5 -39 q36.5 5 41.5 -37 q-5 -16 -39 -13 q-34 3 -39 -31 l0 -44 q54 10 69 46 q15 36 13 85 q6 69 -64 59 ZM681 301 q2 15 -9 20 q-27 -2 -72.5 -28 q-45.5 -26 -50.5 -53 q-1 -7 6 -8 q11 2 59 15 q48 13 59 18 q12 14 8 36 ZM680 189 q0 11 -4 21 l-83 -21 q-32 1 -38 -29 l0 -17 l123 2 q1 22 2 44 ZM297 523 q29 -8 32 -75 q3 -67 5 -97 q46 24 93 43 q10 -2 25 -16 q15 -14 17 -24 q-7 -15 -62 -44.5 q-55 -29.5 -77 -39.5 q0 -50 0 -100 q1 -23 -2.5 -84 q-3.5 -61 -17.5 -69 q-22 13 -43 36 q2 48 2 95 l0 94 q-13 -8 -40 -19 q-27 -11 -41 -12 q-42 3 -56.5 43 q-14.5 40 -13.5 75 q-1 30 0.5 83.5 q1.5 53.5 16.5 71.5 q28 -5 33.5 -51 q5.5 -46 4.5 -71 q0 -11 3 -43.5 q3 -32.5 5 -38.5 l2 -1 q14 2 42.5 16.5 q28.5 14.5 45.5 21.5 q4 52 4 104 q-1 17 2.5 57 q3.5 40 19.5 45 Z" /><glyph glyph-name="uni90FD" unicode="&#x90fd;" d="M293 767 q5 4 11 4 q34 -3 42 -40 q8 -37 10 -65 q33 8 66 9 q42 -1 53 -40 q-12 -20 -51 -28.5 q-39 -8.5 -63 -10.5 l0 -33 q1 -40 9 -79 q11 14 36 47 q25 33 36 37 q21 -8 24 -32 q-2 -20 -10 -38 q38 11 77 14 q36 -1 41 -37 q-15 -26 -72 -37 q-57 -11 -88 -13 q-37 -39 -118.5 -116 q-81.5 -77 -123.5 -86 q-27 5 -37 29 q11 20 86.5 82.5 q75.5 62.5 87.5 89.5 q-17 2 -95.5 5 q-78.5 3 -89.5 43 q5 13 45.5 13.5 q40.5 0.5 53.5 -0.5 l96 0 q-20 52 -26 107 q-26 -1 -52 -2 q-23 -1 -64.5 5 q-41.5 6 -46.5 32 q8 18 71.5 23.5 q63.5 5.5 88.5 7.5 l0 36 q-1 37 3 73 ZM498 330 q47 -2 66 -38.5 q19 -36.5 18 -78.5 q2 -63 -21.5 -166 q-23.5 -103 -93.5 -114 q-44 1 -113.5 33 q-69.5 32 -76.5 77 l6 6 q9 12 7 29 q2 22 -9 39 q-9 3 -10 12 q2 11 12 14 q17 18 18.5 69 q1.5 51 23.5 57 q22 -8 30 -16 q15 5 56.5 38.5 q41.5 33.5 86.5 38.5 ZM507 261 q-32 -4 -71.5 -45 q-39.5 -41 -56.5 -70 l90 0 q54 5 47 63 q3 26 -5 51 l-4 1 ZM491 85 q-61 5 -122 7 q-5 -32 -5 -64 q2 -41 45 -33 q76 11 82 90 ZM838 585 q33 0 66 -19.5 q33 -19.5 36 -54.5 q-7 -46 -28 -91 q57 -66 62 -154 q1 -29 -11 -59 q-12 -30 -46 -32 q-18 1 -45 13.5 q-27 12.5 -30 30.5 q8 12 25 15 q41 22 39 69 q-4 51 -30.5 84 q-26.5 33 -30.5 76 q7 28 13 48 q0 7 -7 6 q-89 3 -176 -19 q-9 -3 -19 -3 q-22 6 -27 28 q10 29 92 45.5 q82 16.5 117 16.5 ZM724 420 q16 -3 26 -16 q21 -40 23.5 -190.5 q2.5 -150.5 1.5 -216.5 q1 -17 -2 -65.5 q-3 -48.5 -18 -54.5 q-38 3 -47.5 40.5 q-9.5 37.5 -7.5 69.5 q0 59 2.5 227 q2.5 168 7.5 196 q4 9 14 10 Z" /><glyph glyph-name="uni6BB5" unicode="&#x6bb5;" d="M385 746 q40 -5 53 -41 q-14 -23 -113.5 -42 q-99.5 -19 -121.5 -22 q-5 -96 -6 -193 q81 21 164 29 q43 -4 54 -43 q-3 -9 -31 -14 q-28 -5 -40 -7 q-78 -13 -154 -39 l0 -33 l0 -30 q61 2 120 15 q13 5 28 6 q37 -4 47 -38 q-9 -27 -86 -35 q-77 -8 -109 -7 l0 -90 q83 9 164 24 q27 7 56 8 q35 -1 34 -37 q-12 -36 -109.5 -45.5 q-97.5 -9.5 -138.5 -8.5 l0 -18 q10 -62 20 -124 q0 -12 -11 -13 q-46 6 -60 63.5 q-14 57.5 -15 97.5 q-15 4 -38.5 14 q-23.5 10 -26.5 26 q3 9 28 11 q25 2 35 2 l0 122 q6 176 22 352 q-17 -1 -39 3.5 q-22 4.5 -24 25.5 q3 12 16 15 q37 13 142.5 38 q105.5 25 139.5 28 ZM580 724 q18 -2 30 -19 q12 -17 21 -19 q51 13 104 26 q63 -4 73 -55 q10 -51 7 -101 q-2 -19 7 -33 q22 -8 65.5 -6 q43.5 2 48.5 -28 q-2 -15 -23.5 -20.5 q-21.5 -5.5 -34.5 -5.5 q-74 4 -114 68 q-19 43 -12 92 q3 23 -16 30 q-22 -2 -45 -11 q-45 -13 -56 -29.5 q-11 -16.5 -12 -63.5 q0 -19 -4.5 -61 q-4.5 -42 -24.5 -47 q-37 9 -46 47 q0 35 7 118 q7 83 14 112 q3 6 11 6 ZM737 346 q81 4 95 -71 q-2 -22 -23.5 -67.5 q-21.5 -45.5 -33.5 -68.5 q28 -4 74 -16.5 q46 -12.5 51 -41.5 q-2 -16 -19 -15 q-61 12 -117 24 q-13 -7 -32 -52.5 q-19 -45.5 -44 -52.5 q-36 6 -52 36 q27 50 50 102 q-14 7 -37.5 18.5 q-23.5 11.5 -26.5 27.5 q3 14 17 14 q31 -8 61 -16 q11 16 32 62 q21 46 24 62 q-7 6 -15 5 q-62 -11 -125 -22 q-34 4 -43 36 q0 4 2 8 q15 8 77 17.5 q62 9.5 85 10.5 Z" /><glyph glyph-name="uni5BF9" unicode="&#x5bf9;" d="M329 573 q83 -2 94 -82 q-5 -45 -54 -134 q-49 -89 -78 -132 q20 -14 70 -37.5 q50 -23.5 56 -38.5 q-5 -21 -29 -19 q-66 11 -117 57 q-13 -28 -42.5 -94 q-29.5 -66 -50.5 -74 q-36 6 -44 41 q3 30 31.5 90 q28.5 60 45.5 90 q-14 14 -51.5 52.5 q-37.5 38.5 -42.5 50.5 q3 6 11 5 q25 -2 54.5 -26.5 q29.5 -24.5 48.5 -42.5 q20 36 69 121 q49 85 55 111 q-5 7 -13 5 q-76 -5 -156 -37.5 q-80 -32.5 -111 -37.5 q-28 8 -39 33 q14 31 130.5 63.5 q116.5 32.5 162.5 35.5 ZM749 608 q28 -4 37 -38.5 q9 -34.5 12 -58.5 q53 5 106 6 q51 -2 65 -47 q-1 -4 -3 -9 q-18 -12 -78.5 -15 q-60.5 -3 -87.5 -2 q27 -176 20 -356 q1 -26 -5.5 -68.5 q-6.5 -42.5 -36.5 -47.5 q-41 5 -64 55 q-23 50 -23 88 q0 4 2 7 q24 -26 45 -56 q11 16 12.5 52 q1.5 36 0.5 57 q-2 132 -14 264 q-70 -6 -140 -8 q-25 0 -67 11.5 q-42 11.5 -47 39.5 q15 16 42 13 q103 8 208 13 q-1 22 -2 43 q-1 11 2 32.5 q3 21.5 16 24.5 ZM590 328 q32 -3 46.5 -34.5 q14.5 -31.5 14.5 -60.5 q3 -38 -27 -52 q-33 2 -52.5 30 q-19.5 28 -20.5 59 q-1 46 39 58 Z" /><glyph glyph-name="uni591A" unicode="&#x591a;" d="M599 827 q30 -3 38 -30 q-4 -19 -38 -48.5 q-34 -29.5 -52 -42.5 q82 9 144 -40 q28 -26 31 -62 q-7 -49 -77.5 -151 q-70.5 -102 -113.5 -114 q-15 1 -35.5 17 q-20.5 16 -22.5 32 q2 12 13 16 q39 27 100.5 109.5 q61.5 82.5 67.5 126.5 q-3 9 -26 11 q-23 2 -33 2 q-62 2 -91.5 -7.5 q-29.5 -9.5 -68.5 -59.5 q-35 -41 -66 -85 q-9 -17 -24 -29 q-42 8 -52 47 q13 59 129.5 176.5 q116.5 117.5 176.5 131.5 ZM457 539 q18 -1 40 -14.5 q22 -13.5 24 -32.5 q-7 -30 -38 -37 q-46 10 -54 57 q2 26 28 27 ZM525 296 q38 -8 45 -47 q-2 -9 6 -12 q42 8 84 15 q54 -13 62 -68 q-11 -62 -109.5 -178.5 q-98.5 -116.5 -158.5 -129.5 q-41 6 -54 44 q5 19 25 25 q49 27 85 70 q-49 16 -56 64 q-1 18 15 21 q46 -10 68 -55 q18 24 59 77 q41 53 47 72 q-4 2 -9 3 q-105 -9 -161 -71 q-56 -62 -72 -71 q-42 7 -50 48 q9 27 79 105 q70 78 95 88 Z" /><glyph glyph-name="uni800C" unicode="&#x800c;" d="M685 648 q17 -1 36 -16 q19 -15 21 -32 q-7 -17 -67 -21 q-60 -4 -87 -3 q-50 9 -68 -35 q-28 -100 -72 -196 q0 -1 2 -1 q10 1 41 11 q31 10 47 14 q121 30 245 32 q58 2 96.5 -20.5 q38.5 -22.5 39.5 -86.5 q-2 -48 -40 -133 q-38 -85 -85 -94 q-42 5 -71 38 q38 15 60 49 q19 29 45 88.5 q26 59.5 29 92.5 q-8 16 -29 12 q-55 -1 -183 -20.5 q-128 -19.5 -167 -43.5 q5 -41 9 -82 q4 -94 -17 -186 q-2 -12 -11 -18 q-41 10 -51 51 q9 94 17 187 q2 24 -8 38 q-94 -6 -187 -28 q-20 -34 -23 -130 q-3 -96 -33 -108 q-54 14 -56 74 q0 57 26.5 183.5 q26.5 126.5 81.5 141.5 q31 0 47 -22 q-39 -31 -45 -82 l3 -5 q17 1 47 8.5 q30 7.5 46 14.5 q8 2 9 8 l-2 4 q10 20 27 36 q70 87 101 196 q-108 -7 -216 -7 q-31 -2 -95 5.5 q-64 7.5 -71 41.5 q2 6 17.5 6.5 q15.5 0.5 20.5 0.5 q31 -1 62 -2 q55 0 155 6.5 q100 6.5 148 19.5 q23 6 44 2 q81 6 161 11 ZM595 285 q32 -2 40.5 -31.5 q8.5 -29.5 7.5 -56.5 q0 -34 -14 -121 q-14 -87 -35 -98 q-41 4 -47 44 q2 50 16 99.5 q14 49.5 16 99.5 q0 11 2.5 36 q2.5 25 13.5 28 Z" /><glyph glyph-name="uni8033" unicode="&#x8033;" d="M815 686 q-1 -8 -8 -12 q-29 -6 -191 -12.5 q-162 -6.5 -205 -8.5 q18 -21 17 -50 q-5 -57 -11 -114 q6 -2 11 -3 q89 3 177 11 l0 17 q-1 21 3 73 q4 52 25 58 q30 -5 36.5 -51 q6.5 -46 5.5 -72 q4 -166 -13 -331 q81 8 161 10 q47 1 59 -41 q-12 -26 -105.5 -31.5 q-93.5 -5.5 -120.5 -4.5 q-2 -33 -14.5 -111 q-12.5 -78 -41.5 -87 q-46 6 -55 52 q2 26 18 62.5 q16 36.5 18 73.5 q-59 8 -119 6 q-13 0 -36.5 -1 q-23.5 -1 -33.5 -9 q-2 -6 -8 -8 l-21 7 q-42 8 -119 12.5 q-77 4.5 -92 45.5 q10 10 76 13.5 q66 3.5 93 3.5 q4 107 15.5 233 q11.5 126 42.5 226 l1 4 q-4 8 -34 10 q-30 2 -42 2 q-30 -1 -87 7 q-57 8 -63 40 l1 3 q193 8 386 19 q77 7 154 6 q30 2 73 -4 q43 -6 47 -44 ZM605 423 q-1 15 -17 12 q-89 0 -178 -5 q0 -43 -8 -85 l196 0 q6 39 7 78 ZM397 297 q-1 -58 -7 -116 q28 0 103.5 3.5 q75.5 3.5 93.5 6.5 l10 91 q-100 5 -200 15 Z" /><glyph glyph-name="uni65B9" unicode="&#x65b9;" d="M459 755 q34 1 70 -10 q36 -11 39 -52 q-2 -23 -25 -51 q-23 -28 -46 -30 q-31 2 -51.5 32 q-20.5 30 -21.5 59 q-6 47 35 52 ZM485 475 q16 -8 59 -17 q175 7 350 14 q24 0 52.5 -11 q28.5 -11 31.5 -38 q-2 -11 -24 -13 q-22 -2 -33 -1 q-196 -4 -392 -19 l-9 -128 q38 2 75 2 q157 -2 155 -161 q1 -47 -19.5 -100.5 q-20.5 -53.5 -73.5 -58.5 q-29 1 -55.5 23.5 q-26.5 22.5 -28.5 52.5 l4 5 q20 -13 45 -21 q33 6 50 60.5 q17 54.5 17 85.5 q4 42 -31 64 q-22 -1 -76.5 -4.5 q-54.5 -3.5 -67.5 -10.5 q-12 -26 -37.5 -133 q-25.5 -107 -62.5 -121 q-33 11 -44 45 q5 25 18 48 q33 74 51.5 170.5 q18.5 96.5 18.5 177.5 q-141 -9 -283 -9 q-30 -2 -80 6 q-50 8 -55 44 q3 11 15 9 q33 -2 65 -5 q65 0 174 5.5 q109 5.5 168 18.5 q6 18 23 20 Z" /><glyph glyph-name="uni5206" unicode="&#x5206;" d="M579 737 q27 -2 57.5 -26.5 q30.5 -24.5 50.5 -43.5 q94 -84 202 -150 q19 -11 47.5 -32 q28.5 -21 31.5 -43 q-2 -12 -14 -10 q-13 0 -40 6 q-27 6 -30 18 q-2 9 -22.5 24 q-20.5 15 -30.5 21 q-91 63 -172 137 q-13 13 -36.5 33.5 q-23.5 20.5 -40.5 22.5 q-12 -1 -25 -2 q-21 -2 -28 14 q2 12 20 21.5 q18 9.5 30 9.5 ZM376 701 q31 -12 38 -44 q-4 -15 -41 -54.5 q-37 -39.5 -53 -55.5 q-108 -113 -205 -236 q-11 -20 -33 -26 q-14 1 -31 17.5 q-17 16.5 -19 30.5 q14 40 130.5 166.5 q116.5 126.5 163.5 166.5 q24 19 50 35 ZM423 370 q21 -2 21.5 -19.5 q0.5 -17.5 9.5 -20.5 q86 14 171 27 q54 -2 74 -40 q20 -38 19 -87 q-1 -50 -26.5 -168 q-25.5 -118 -66.5 -132 q-45 5 -81.5 57.5 q-36.5 52.5 -38.5 96.5 q0 7 5 12 q37 -47 75 -93 q57 128 62 267 q5 21 -15 23 q-85 -12 -171 -24 q-25 0 -55.5 14 q-30.5 14 -33.5 42 q11 38 51 45 ZM472 261 q33 -10 32 -48 q-11 -123 -94 -218 q-51 16 -61 65 q0 13 9.5 36 q9.5 23 24.5 20 q21 10 43.5 73 q22.5 63 45.5 72 Z" /><glyph glyph-name="uni98CE" unicode="&#x98ce;" d="M682 633 q36 1 43.5 -1.5 q7.5 -2.5 35.5 -17.5 q95 -37 96 -138 q-3 -75 -25 -151.5 q-22 -76.5 -25 -169.5 q-1 -38 5.5 -44 q6.5 -6 36.5 -4 q37 -12 45 -52 q-6 -21 -31 -19 q-72 11 -108 78 q-24 53 -19 112 q3 75 26.5 145.5 q23.5 70.5 26.5 143.5 q-3 38 -35.5 47.5 q-32.5 9.5 -63.5 8.5 q-89 1 -194.5 -7.5 q-105.5 -8.5 -189.5 -34.5 q-18 -9 -35 -16 q-15 -1 -16 15 q20 74 186 91 q166 17 241 14 ZM174 554 q57 -8 69.5 -81.5 q12.5 -73.5 10.5 -121.5 l0 -16 q0 -102 -35 -197 q-7 -27 -26.5 -78 q-19.5 -51 -46.5 -57 q-39 5 -44 45 q3 19 29 85 q26 66 36 99 q24 125 17 252 q-2 30 -13 38.5 q-11 8.5 -13 17.5 q1 15 16 14 ZM565 346 q33 -15 32 -57 q-2 -64 -35 -118 q7 -15 54 -33.5 q47 -18.5 54 -51.5 q-3 -11 -16 -10 q-65 12 -119 55 q-23 -23 -57 -50 q-34 -27 -67 -29 q-40 3 -57 41 q57 42 112 86 q-12 10 -36 30.5 q-24 20.5 -27 33.5 q0 9 9 9 q16 -2 41 -16.5 q25 -14.5 41 -24.5 q10 23 32 76 q22 53 39 59 Z" /><glyph glyph-name="uni51E4" unicode="&#x51e4;" d="M572 395 q81 -5 94 -82 q-4 -37 -38.5 -103.5 q-34.5 -66.5 -54.5 -106.5 q28 -5 66.5 -19 q38.5 -14 42.5 -46 q-1 -16 -18 -17 q-31 2 -60 16 q-29 14 -58 17 q-14 -40 -54 -48 q-38 4 -42 42 q9 31 17 45 q-6 10 -44.5 45 q-38.5 35 -44.5 57 q-1 10 8 12 q14 -3 47.5 -26.5 q33.5 -23.5 50.5 -34.5 q12 11 53.5 85 q41.5 74 47.5 93 q-3 5 -10 4 q-87 -7 -163.5 -54.5 q-76.5 -47.5 -91.5 -54.5 q-18 2 -19 21 q10 64 109.5 108.5 q99.5 44.5 161.5 46.5 ZM702 686 q172 1 186 -167 q-3 -81 -24.5 -164.5 q-21.5 -83.5 -24.5 -183.5 q-1 -12 1.5 -35.5 q2.5 -23.5 16.5 -26.5 q10 2 22 4 q38 -14 45 -56 q-5 -23 -31 -21 q-72 15 -106 85 q-23 54 -19 113 q3 85 26.5 165 q23.5 80 26.5 162 q-2 41 -31.5 51.5 q-29.5 10.5 -63.5 8.5 q-101 1 -215 -9.5 q-114 -10.5 -210 -40.5 q-28 -10 -55 -15 q-10 -1 -12 9 q2 20 24.5 40 q22.5 20 40.5 28 q80 35 196.5 44.5 q116.5 9.5 206.5 8.5 ZM149 601 q57 -9 69.5 -92 q12.5 -83 10.5 -132 l0 -16 q-1 -58 -31 -202.5 q-30 -144.5 -76 -162.5 q-39 9 -43 50 q3 23 28.5 93.5 q25.5 70.5 35.5 108.5 q24 137 17 276 q-2 32 -13 41.5 q-11 9.5 -13 20.5 q2 14 15 15 Z" /><glyph glyph-name="uni611F" unicode="&#x611f;" d="M501 792 q-1 9 8 11 q30 -14 50 -47 q57 13 114 15 q47 -5 61 -47 l-3 -7 l1 0 q-13 -5 -69 -15.5 q-56 -10.5 -77 -13.5 q7 -25 58 -106.5 q51 -81.5 67 -93.5 q8 13 28 39 q20 26 34 29 q32 -8 38 -40 q-2 -21 -20.5 -51.5 q-18.5 -30.5 -32.5 -48.5 q20 -20 64.5 -68.5 q44.5 -48.5 49.5 -68.5 q-5 -11 -17 -8 q-22 5 -65 48 q-43 43 -62 64 l-20 -20 l0 1 q-21 -30 -55 -36 q-35 4 -44 36 q3 13 28.5 39 q25.5 26 36.5 40 q-10 22 -63.5 115.5 q-53.5 93.5 -72.5 124.5 q-76 -8 -166 -32.5 q-90 -24.5 -167 -45.5 q-23 -3 -35 -18 l1 -6 q15 -84 14 -169 q1 -30 -5 -102.5 q-6 -72.5 -32 -81.5 q-42 12 -49 56 q1 20 9 38 q12 47 9 97 q1 50 -3.5 137 q-4.5 87 -20.5 128 q-5 7 -6 16 q2 10 12 9 q41 -12 57 -56 q16 5 32 12 q158 60 327 82 q-12 21 -14 45 ZM831 741 q10 9 22 11 q20 -2 35.5 -23 q15.5 -21 16.5 -40 q-4 -35 -33 -49 q-50 7 -57 58 q1 24 16 42 l0 1 ZM514 565 q40 -8 51 -46 q-12 -22 -112 -48.5 q-100 -26.5 -139 -28.5 q-44 1 -59 37 q3 11 15 13 q78 23 157 46 q16 6 44.5 16 q28.5 10 42.5 11 ZM450 409 q45 0 84 -24 q39 -24 42 -73 q-6 -45 -64 -83.5 q-58 -38.5 -100 -51.5 q-9 -3 -28.5 -11.5 q-19.5 -8.5 -25.5 -9.5 q-18 3 -29 18 l0 -1 q-28 27 -34 79 q-6 52 -5 90 q-1 15 3.5 38 q4.5 23 22.5 25 q15 -2 19.5 -19 q4.5 -17 8.5 -22 l12 8 l-1 0 q39 39 95 37 ZM489 358 q-104 -2 -108 -107 l7 -9 q28 4 76 38.5 q48 34.5 53 60.5 q-6 20 -28 17 ZM625 208 q51 -4 63 -50 q-15 -25 -27 -52 l0 1 q-1 -24 -24 -28 q-47 11 -55 59 q0 19 11 43.5 q11 24.5 32 26.5 ZM449 125 q33 -5 40.5 -53.5 q7.5 -48.5 10.5 -77.5 l20 0 q40 10 80 19 q31 -2 34 -33 q-3 -26 -33.5 -36 q-30.5 -10 -53.5 -9 q-68 2 -92.5 46.5 q-24.5 44.5 -23.5 105.5 q-4 29 18 38 ZM765 98 q66 -11 68 -80 q0 -37 -31 -49 q-32 2 -48 30.5 q-16 28.5 -16 57.5 q-7 36 27 41 ZM286 77 q5 7 12 7 q32 -5 35 -38 q-2 -26 -30.5 -79 q-28.5 -53 -52.5 -59 q-11 1 -28 14 q-17 13 -19 25 q4 14 36.5 63.5 q32.5 49.5 45.5 66.5 l1 0 Z" /><glyph glyph-name="uni521A" unicode="&#x521a;" d="M850 577 q1 9 10 8 q70 -13 85 -129.5 q15 -116.5 12 -179.5 q2 -40 -6 -127.5 q-8 -87.5 -47 -97.5 q-44 5 -79.5 60 q-35.5 55 -47.5 96 l1 0 q10 -5 39.5 -38 q29.5 -33 45.5 -38 q12 17 15.5 86.5 q3.5 69.5 3.5 97.5 q0 38 -2.5 100 q-2.5 62 -12.5 96 q-14 32 -17 66 ZM653 496 q43 -10 52 -97.5 q9 -87.5 7 -127.5 q1 -15 0.5 -59.5 q-0.5 -44.5 -11.5 -50.5 q-43 5 -55 57 q-12 52 -10 87 l1 50 q0 19 1 73.5 q1 54.5 5 63.5 q4 4 10 4 ZM100 607 q19 -2 28.5 -19.5 q9.5 -17.5 13.5 -19.5 q5 1 9 3 q104 29 213 27 q75 2 136 -25 q61 -27 65 -112 q0 -80 -13 -195 q-13 -115 -32 -192 q-6 -46 -46 -59 q-15 1 -34.5 14 q-19.5 13 -21.5 29 q2 16 14 26 q30 49 47.5 192.5 q17.5 143.5 17.5 213.5 q-2 30 -28 38 q-26 8 -51 7 q-148 2 -290 -39 q-13 -210 -7 -422 q1 -13 0 -38.5 q-1 -25.5 -14 -28.5 q-47 11 -54 106.5 q-7 95.5 -4 136.5 q-2 56 6 197.5 q8 141.5 45 159.5 ZM325 412 q34 -9 34 -46 q-1 -33 -16 -77.5 q-15 -44.5 -26 -78.5 q21 -11 54.5 -27 q33.5 -16 36.5 -41 q-4 -16 -21 -15 q-46 11 -90 30 q-9 -27 -34 -83 q-25 -56 -51 -63 q-41 9 -51 50 q37 69 68 139 q-14 11 -42 36 q-28 25 -31 40 q1 9 10 9 q40 -12 78 -39 q9 31 32 95 q23 64 49 71 Z" /><glyph glyph-name="uni544A" unicode="&#x544a;" d="M558 781 q39 -13 32 -61 q-1 -81 -7 -162 q74 20 151 27 q38 -1 49 -35 q-7 -26 -70 -41.5 q-63 -15.5 -91 -19.5 q-32 -4 -41 -11.5 q-9 -7.5 -11 -40.5 q-5 -40 -11 -80 q130 14 261 24 q46 -2 59 -43 q-12 -26 -110.5 -35.5 q-98.5 -9.5 -137.5 -11.5 q-168 -15 -337 -15 q-26 -1 -89 4 q-63 5 -71 29 q5 17 45.5 19 q40.5 2 57.5 1 q107 2 214 18 q16 1 31 6 q3 10 7.5 54 q4.5 44 4.5 60 q-75 -6 -150 -12 q-42 0 -82.5 21 q-40.5 21 -43.5 68 q0 29 14.5 97.5 q14.5 68.5 38.5 76.5 q38 -12 46 -53 q-11 -69 -23 -139 l30 0 q92 5 183 21 q-1 38 9.5 130.5 q10.5 92.5 41.5 103.5 ZM604 218 q67 -2 119 -46.5 q52 -44.5 55 -112.5 q-4 -60 -57.5 -100 q-53.5 -40 -111.5 -41 q-47 2 -82 18.5 q-35 16.5 -63 20.5 q-6 -25 -25 -33 q-20 2 -38 21.5 q-18 19.5 -19 39.5 q2 95 63.5 162.5 q61.5 67.5 158.5 70.5 ZM629 159 q-58 -1 -107 -40 q-49 -39 -52 -100 q4 -22 40.5 -32 q36.5 -10 56.5 -10 q43 2 94 34.5 q51 32.5 55 78.5 q-8 75 -87 69 Z" /><glyph glyph-name="uni9694" unicode="&#x9694;" d="M458 799 q51 -1 102 -7 q114 -8 227 -12 q26 -20 36 -48 q-7 -16 -27 -13 q-58 -2 -211 9.5 q-153 11.5 -172 56.5 q2 10 19 12 q17 2 26 2 ZM74 733 l3 1 q30 -2 100 -21.5 q70 -19.5 101 -32.5 q30 -12 58.5 -33 q28.5 -21 30.5 -56 q-6 -22 -55.5 -68 q-49.5 -46 -71.5 -65 q21 -39 34 -60.5 q13 -21.5 13 -70.5 q0 -26 -12.5 -62 q-12.5 -36 -41.5 -40 q-20 1 -40 18.5 q-20 17.5 -22 37.5 q3 14 17 9 q21 2 26 27 q5 25 4 42 q-3 46 -22.5 76 q-19.5 30 -22.5 53 q8 25 60.5 71.5 q52.5 46.5 60.5 57.5 q-14 17 -112 42.5 q-98 25.5 -112 66.5 l4 7 ZM510 646 q18 -8 32 -27 q42 22 89 26 q48 -2 82 -36 q34 -34 36 -82 q-4 -64 -37 -117 q-28 -40 -78 -34 q-22 1 -42 4 q-65 4 -94.5 14 q-29.5 10 -29.5 89 q-1 28 7.5 91.5 q8.5 63.5 34.5 71.5 ZM652 594 q-75 -1 -95.5 -44 q-20.5 -43 -17.5 -109 q28 0 55 -1 q24 -2 44 4 q17 11 29.5 48.5 q12.5 37.5 13.5 58.5 q11 44 -29 43 ZM95 433 q37 -15 37 -61 q35 -164 45 -331 q3 -14 -11 -17 q-37 11 -54 48 q-11 33 -24 156 q-13 123 -14 168 q-5 30 21 37 ZM817 356 q66 -1 87 -40.5 q21 -39.5 19 -98.5 q2 -49 -12.5 -127 q-14.5 -78 -71.5 -86 q-15 1 -36 12 q-21 11 -27 25 q10 6 19 8 q41 22 54 85.5 q13 63.5 12 107.5 l0 56 l-17 0 q-50 -4 -210.5 -37 q-160.5 -33 -207.5 -50 q1 -69 1 -138 q0 -16 -0.5 -43.5 q-0.5 -27.5 -4.5 -40.5 l1 0 l-8 -4 q-40 4 -49.5 49 q-9.5 45 -7.5 79 l0 41 q-1 29 5 100.5 q6 71.5 33 80.5 q24 -2 26 -27 q2 -25 0 -44 q39 18 193 53 q154 35 202 39 ZM698 244 q46 -12 49 -62 q-4 -22 -27 -24 q-43 11 -51 56 q3 27 29 30 ZM568 210 q49 -1 50 -51 q0 -28 -28 -31 q-17 1 -36.5 17.5 q-19.5 16.5 -21.5 34.5 q7 28 36 30 ZM729 139 q15 -1 35.5 -14 q20.5 -13 22.5 -29 q-5 -16 -44 -29 q-39 -13 -57 -19 q0 -13 -7 -81 q-7 -68 -23 -77 q-18 2 -32.5 22.5 q-14.5 20.5 -15.5 38.5 q1 41 7 83 q-13 0 -26 -1 q-21 0 -48 11 q-27 11 -30 33 q13 23 43 15 q45 3 95.5 23.5 q50.5 20.5 79.5 23.5 Z" /><glyph glyph-name="uni4E2A" unicode="&#x4e2a;" d="M477 742 q19 0 22 -18 q-3 -20 -29.5 -51.5 q-26.5 -31.5 -42.5 -48.5 l1 0 q-133 -155 -253 -321 q-12 -18 -48 -65.5 q-36 -47.5 -48 -53.5 q-36 5 -46 39 q22 74 198.5 283.5 q176.5 209.5 245.5 235.5 ZM626 659 q28 -3 67.5 -30.5 q39.5 -27.5 63.5 -46.5 q70 -51 152 -80 q15 -5 38 -17.5 q23 -12.5 25 -29.5 q-6 -16 -25 -16 q-58 4 -131.5 51.5 q-73.5 47.5 -118.5 86.5 q-33 34 -78 49 q-23 1 -36 16 q16 20 43 17 ZM507 519 q23 -5 36 -26 q-15 -180 -15 -360 q0 -27 -1 -109 q-1 -82 -4 -97 q-3 -5 -10 -6 q-19 4 -32 21 l0 -1 l-22 20 l0 107 q-1 75 5.5 228 q6.5 153 26.5 210 q4 12 16 13 Z" /><glyph glyph-name="uni7ED9" unicode="&#x7ed9;" d="M347 734 q22 -2 30 -20 q-15 -26 -121 -108.5 q-106 -82.5 -121 -165.5 q2 -25 28 -22 q103 3 190 56 q28 -15 36 -43 q-9 -31 -75.5 -104 q-66.5 -73 -76.5 -112 l4 -4 q33 9 66 16 q30 -2 39 -29 q-4 -24 -44 -39 q-40 -15 -63 -15 q-28 1 -53.5 23 q-25.5 22 -27.5 51 q2 37 25 70 q23 33 40 65 q-52 7 -99 29.5 q-47 22.5 -50 82.5 q9 75 104 168 q95 93 169 101 ZM385 118 q12 3 16 -7 q-4 -40 -49.5 -70 q-45.5 -30 -84.5 -31 q-16 0 -39 10.5 q-23 10.5 -25 27.5 q16 13 40 15 q30 8 73.5 30 q43.5 22 68.5 25 ZM658 754 q29 -11 29 -44 q-1 -26 -13 -49 q-28 -59 -80 -135 q-52 -76 -94 -130 q-10 -15 -23 -25 q-35 5 -43 38 q7 35 68 123 q61 88 89 128 q25 42 52 82 q5 10 15 12 ZM645 558 q32 -4 60 -21 q82 -35 172 -47 q26 -3 51 -9 q33 -12 43 -43 q-5 -13 -20 -11 q-53 1 -116.5 18 q-63.5 17 -110.5 40 q-17 8 -52 29 q-35 21 -39 37 q4 7 12 7 ZM784 379 q12 -1 31 -14.5 q19 -13.5 21 -25.5 q-9 -19 -80.5 -23.5 q-71.5 -4.5 -99.5 -3.5 q-24 -1 -57.5 5.5 q-33.5 6.5 -36.5 34.5 q4 5 10 6 q49 10 100 12 q55 8 112 9 ZM549 241 q22 -5 24.5 -39 q2.5 -34 10.5 -39 q11 4 42 33 q31 29 87 33 q58 -2 98 -44 q40 -42 42 -100 q-2 -52 -40.5 -77.5 q-38.5 -25.5 -86.5 -25.5 q-71 2 -133 37 q1 -17 2 -35 q4 -26 -17 -35 q-43 5 -53 58.5 q-10 53.5 -8 90.5 q-1 26 3.5 81.5 q4.5 55.5 28.5 61.5 ZM738 175 q-44 -2 -86.5 -38 q-42.5 -36 -45.5 -81 q14 -21 44 -17 q50 -3 92 10 q42 13 45 73 q4 54 -49 53 Z" /><glyph glyph-name="uni66F4" unicode="&#x66f4;" d="M658 757 q24 0 52 -11.5 q28 -11.5 31 -37.5 q-4 -6 -9 -6 q-50 -12 -105 -13 q-162 -12 -325 -19 q-22 -1 -62.5 4 q-40.5 5 -44.5 31 q8 17 29 15 q78 2 155 14 q139 21 279 23 ZM510 621 q9 -14 83 -28 q155 2 187.5 -57.5 q32.5 -59.5 25.5 -202.5 q0 -19 -1 -49 q-1 -30 -9 -46 q-34 -40 -128 -54.5 q-94 -14.5 -150 -22.5 q-7 -42 -9 -85 q16 -32 126.5 -37.5 q110.5 -5.5 126.5 -63.5 q-3 -11 -15 -10 q-62 7 -123 21 q-63 5 -126 15 q-7 -29 -18 -55.5 q-11 -26.5 -46 -28.5 q-14 0 -35.5 10.5 q-21.5 10.5 -24.5 24.5 q12 13 29 22 q17 9 19 30 q-3 8 -13 8 q-25 3 -70 8.5 q-45 5.5 -50 34.5 q2 13 20 16.5 q18 3.5 29 2.5 q49 -2 97 -8 q10 48 13 96 q-66 -9 -133 -13 q-76 7 -126 66 q-6 90 -8 180 q-1 36 8.5 116.5 q9.5 80.5 43.5 90.5 q17 -2 18.5 -22.5 q1.5 -20.5 0.5 -34.5 q-3 -17 9 -26 q28 3 112.5 28 q84.5 25 120.5 37 q1 24 16 37 ZM684 539 q-68 -2 -135 -17 q-6 -71 -17 -143 q75 14 150 14 q30 2 56 -9 q2 6 2 12 q0 20 -4 73.5 q-4 53.5 -14 64.5 q-18 7 -38 5 ZM484 483 q-9 14 -29 11 q-42 0 -118.5 -21.5 q-76.5 -21.5 -84.5 -65.5 q1 -38 3 -76 q100 30 205 35 q9 6 16.5 52 q7.5 46 7.5 65 ZM740 327 q0 9 -4 14 q-103 -10 -205 -30 q-3 -33 -5 -67 q-2 -16 13 -18 q45 1 119 28.5 q74 27.5 82 72.5 ZM464 294 q-1 9 -10 8 q-99 -9 -199 -31 l0 -23 q3 -50 55 -41 q72 4 142 13 q9 36 12 74 Z" /><glyph glyph-name="uni59D1" unicode="&#x59d1;" d="M737 631 q-1 26 4 51 q39 -7 49 -69.5 q10 -62.5 9 -97.5 q5 -2 9 -3 q37 5 73 9 q11 -1 26.5 -16 q15.5 -15 17.5 -26 q-6 -15 -58.5 -22.5 q-52.5 -7.5 -73.5 -9.5 q-5 -14 -14 -74.5 q-9 -60.5 -13 -84.5 q34 4 68 8 q92 -13 93 -108 q-10 -46 -20 -91 q3 -7 12 -6 q17 -1 39.5 -11 q22.5 -10 24.5 -28 q-3 -13 -32 -13.5 q-29 -0.5 -42 0.5 q-37 3 -71 -10 q-9 -9 -22 -12 q-13 1 -31 16.5 q-18 15.5 -20 28.5 l1 5 q9 7 53 43 q44 36 50 100 q0 18 -2 36 q-74 1 -128 -49 q-12 -17 -31 -21 q-7 1 -15 2 q-20 -5 -20 -45 q0 -40 1 -59 q4 -26 -12 -40 q-34 6 -49 62 q-15 56 -15 88 q3 39 35 41.5 q32 2.5 53 33.5 q8 21 21 86.5 q13 65.5 14 89.5 q-70 -4 -140 -9 q-20 -1 -42 6 q-22 7 -24 31 l1 5 q30 4 117 18 q87 14 102 21 q3 11 2.5 58 q-0.5 47 -0.5 66 ZM314 664 q16 -2 29.5 -21 q13.5 -19 14.5 -34 q-3 -37 -33 -101 q-30 -64 -50 -100 q23 3 59 11 q36 8 54 20 q7 7 15 8 q25 0 58.5 -12 q33.5 -12 36.5 -39 q-5 -14 -20 -14 q-52 -9 -60 -25.5 q-8 -16.5 -23 -63.5 l-30 -79 l42 1 q26 1 74 -6 q48 -7 53 -37 q-5 -17 -44 -16 q-39 1 -55 2 l-96 0 q-14 -27 -46 -82 q-32 -55 -58 -61 q-39 9 -49 47 q1 6 6 8 q44 39 72 97 q-32 13 -68.5 37.5 q-36.5 24.5 -39.5 61.5 q3 34 12 67 q-22 -2 -81.5 -1 q-59.5 1 -66.5 33 l1 4 q83 18 168 23 q27 52 68 129.5 q41 77.5 45 130.5 q-2 14 12 12 ZM339 357 q-13 -1 -48 -7 q-35 -6 -44 -11 q-7 -9 -16.5 -39 q-9.5 -30 -11.5 -44 q-1 -7 -1 -14 q3 -14 29.5 -19 q26.5 -5 40.5 -7 q9 19 31.5 71.5 q22.5 52.5 25.5 66.5 l-6 3 Z" /><glyph glyph-name="uni5E7F" unicode="&#x5e7f;" d="M462 792 q72 -10 84 -81 q-3 -51 -52 -59 q-34 2 -58 30 q-24 28 -25 61 q5 46 51 49 ZM118 505 q7 6 29 6.5 q22 0.5 32 0.5 q300 -5 599 -11 q20 0 40 4 q7 7 17 7 q19 -1 38.5 -18.5 q19.5 -17.5 21.5 -36.5 q-2 -17 -24 -21 q-22 -4 -36 -3 q-86 1 -356 12.5 q-270 11.5 -315 17.5 q-33 13 -46 42 ZM231 314 q-2 31 6 58 q38 -13 51.5 -120 q13.5 -107 12.5 -152 q0 -34 -16 -102 q-16 -68 -50 -76 q-48 5 -60 59.5 q-12 54.5 -10 94.5 q0 9 3 17 q5 -12 18.5 -39 q13.5 -27 22.5 -32 q28 71 27 147 q-2 73 -5 145 Z" /><glyph glyph-name="uni8FC7" unicode="&#x8fc7;" d="M712 715 q39 -8 47 -78.5 q8 -70.5 8 -106.5 q25 -4 66.5 -18.5 q41.5 -14.5 46.5 -41.5 q-1 -14 -16 -12 q-49 3 -99 12 q4 -52 4 -104 q0 -51 -17 -179.5 q-17 -128.5 -54 -144.5 q-59 14 -65 77 q-1 9 3 16 q11 -10 24 -15 q17 36 29 166 q12 130 16 187 q-100 -11 -202 -8 q-23 -1 -78 3.5 q-55 4.5 -62 27.5 l4 8 q30 11 154.5 19 q124.5 8 175.5 12 q0 37 -1 74 q-1 15 1.5 58 q2.5 43 14.5 48 ZM464 347 q61 -7 73 -67 q-2 -39 -40 -44 q-29 1 -54 24 q-25 23 -27 53 q9 34 48 34 ZM176 722 q27 -3 56 -37 q29 -34 31 -61 q0 -45 -40 -55 q-41 2 -58.5 34.5 q-17.5 32.5 -17.5 69.5 q-6 40 29 49 ZM191 351 q37 -8 44 -46 q-13 -56 -26 -113 q4 -35 35 -56 q31 -21 35 -60 q-10 -38 -21 -70 q38 -7 121.5 -5.5 q83.5 1.5 130.5 3.5 q15 -19 18 -42 q-7 -25 -65.5 -27 q-58.5 -2 -85.5 0 q-43 -1 -94.5 5.5 q-51.5 6.5 -85.5 35.5 q-20 15 -24 39 q2 21 18.5 43 q16.5 22 18.5 40 q-4 21 -33 42.5 q-29 21.5 -33 72.5 q0 24 13 78 q13 54 34 60 Z" /><glyph glyph-name="uni54C8" unicode="&#x54c8;" d="M228 512 q74 -3 103.5 -58 q29.5 -55 28.5 -121 q1 -81 -37.5 -161.5 q-38.5 -80.5 -129.5 -86.5 q-87 -3 -121.5 25 q-34.5 28 -33.5 118 q0 50 7 125.5 q7 75.5 21 121.5 q2 17 16 24 q26 -10 41 -36 q44 44 105 49 ZM255 451 q-87 -7 -108 -89.5 q-21 -82.5 -17 -154.5 q-2 -28 1 -57 q4 -2 9 -2 q99 7 125.5 94 q26.5 87 22.5 170 q4 38 -33 39 ZM646 752 q30 -11 30 -46 q-12 -60 -102 -197 q-90 -137 -114 -153 q-35 6 -44 40 q9 41 83.5 147.5 q74.5 106.5 107.5 155.5 q11 21 24 41 q5 10 15 12 ZM633 549 q33 -4 62 -21 q85 -36 177 -49 q27 -1 53 -9 q34 -13 44 -45 q-5 -13 -21 -11 q-54 1 -120 19 q-66 18 -114 41 q-18 8 -53.5 30 q-35.5 22 -39.5 38 q4 7 12 7 ZM776 364 q12 -1 32 -15 q20 -14 22 -26 q-9 -20 -85 -24.5 q-76 -4.5 -106 -3.5 q-23 -1 -56 6.5 q-33 7.5 -36 34.5 q4 5 10 6 q51 10 104 13 q58 8 115 9 ZM535 221 q21 -5 24 -40.5 q3 -35.5 12 -40.5 q11 4 43.5 34.5 q32.5 30.5 88.5 34.5 q60 -2 101 -46 q41 -44 43 -103 q-2 -54 -42.5 -80.5 q-40.5 -26.5 -90.5 -26.5 q-72 2 -135 39 l0 -61 q0 -14 -15 -12 q-45 5 -55 59 q-10 54 -8 92 q-1 28 3.5 86 q4.5 58 30.5 65 ZM729 153 q-45 -2 -89 -39 q-44 -37 -47 -83 q2 -13 20.5 -16 q18.5 -3 29.5 -2 q51 -3 92.5 10 q41.5 13 43.5 75 q5 56 -50 55 Z" /><glyph glyph-name="uni5BD2" unicode="&#x5bd2;" d="M485 813 q52 -9 61 -60 q-11 -43 -55 -53 q-62 5 -71 66 q3 14 27 30 q24 16 38 17 ZM772 707 q141 2 151 -135 q6 -48 -37 -61 q-32 3 -47 26 q11 23 22 75 q3 39 -34 38 q-58 -1 -205.5 -15 q-147.5 -14 -187.5 -28 q29 -38 21 -89 l27 0 q35 2 44 32.5 q9 30.5 18 59.5 q54 -27 40 -89 q22 -2 57 -11 q35 -9 39 -35 l-1 -5 q-33 -4 -67 -2 q-56 0 -50 -61 q2 -14 16 -20 q14 -6 16 -20 q-3 -17 -27.5 -18.5 q-24.5 -1.5 -28.5 -48.5 q2 -4 23 -5.5 q21 -1.5 30 -1.5 l5 0 q20 1 46 -5 q26 -6 28 -31 q-4 -12 -36 -14.5 q-32 -2.5 -44 -1.5 q-64 -1 -221 4 q-157 5 -183 32 q17 17 65.5 17.5 q48.5 0.5 74.5 -0.5 q23 -1 45 3 l5 4 l0 1 q-4 51 -35.5 51.5 q-31.5 0.5 -35.5 29.5 q14 11 37 12 q53 -1 41 52 q-4 7 -35.5 13 q-31.5 6 -35.5 30 q3 16 33.5 19 q30.5 3 45.5 4 q8 50 21 99 q-93 -12 -186 -13 q-38 -1 -53 30 q14 12 39 11 q187 15 371 47 q94 18 189 20 ZM504 465 q-63 11 -62 -51 q1 -15 17 -13 q57 4 45 64 ZM463 345 q-39 1 -33 -39 q2 -14 18 -12 l36 0 q1 26 3 51 l-24 0 ZM100 676 q-2 9 6 11 q35 -5 48 -52 q13 -47 12 -78 q0 -10 -1.5 -34 q-1.5 -24 -10.5 -27 q-37 8 -46 77.5 q-9 69.5 -8 102.5 ZM346 230 q21 -6 20 -31 q-6 -38 -64.5 -112 q-58.5 -74 -93.5 -83 q-26 5 -35 29 q10 23 82.5 104.5 q72.5 81.5 90.5 92.5 ZM727 217 q20 -1 40 -21 q20 -20 21 -40 q-6 -25 -33 -27 q-17 1 -45.5 18 q-28.5 17 -31.5 33 q19 28 49 37 ZM513 177 q22 -1 49.5 -18.5 q27.5 -17.5 30.5 -40.5 q-12 -34 -52 -32 q-22 0 -49 14.5 q-27 14.5 -30 38.5 q13 34 51 38 ZM510 15 q26 -1 58.5 -19.5 q32.5 -18.5 35.5 -46.5 q-10 -39 -54 -37 q-30 0 -61 18.5 q-31 18.5 -34 50.5 q12 37 55 34 Z" /><glyph glyph-name="uni597D" unicode="&#x597d;" d="M272 674 q53 -11 56 -67 q-12 -103 -52 -201 q39 -2 77 -8 q2 18 8 48 q6 30 26 33 q26 -3 29.5 -31.5 q3.5 -28.5 2.5 -49.5 q19 -2 51 -9.5 q32 -7.5 36 -27.5 q-3 -19 -29.5 -23.5 q-26.5 -4.5 -42.5 -3.5 q-23 5 -23 -18 q-12 -47 -14 -95 q29 -2 77 -12.5 q48 -10.5 53 -43.5 q-8 -15 -67.5 -13 q-59.5 2 -74.5 3 q-3 -34 -15 -119.5 q-12 -85.5 -39 -95.5 q-35 9 -45 44 q9 85 26 169 q-56 4 -103.5 17.5 q-47.5 13.5 -50.5 82.5 q3 46 16 90 q-39 -2 -78 -3 q-18 -1 -43 3.5 q-25 4.5 -28 25.5 q8 16 73.5 23 q65.5 7 91.5 8 q16 44 41 116 q25 72 28 112 q-2 14 -5 27 q4 15 18 19 ZM341 337 q-44 2 -89 9 q-19 -61 -27 -125 l97 0 q12 58 19 116 ZM588 640 q68 3 180 -17.5 q112 -20.5 124 -97.5 q-8 -58 -63 -93.5 q-55 -35.5 -63 -60.5 q3 -23 27 -22 q61 4 122 8 q53 5 64 -42 q-1 -5 -4 -11 q-17 -5 -84 -12.5 q-67 -7.5 -94 -10.5 l0 -9 q2 -48 -8 -158 q-10 -110 -57 -123 q-23 2 -51.5 25 q-28.5 23 -31.5 46 q0 7 8 7 q21 -6 40 -14 q15 15 25 103 q10 88 10 121 q-82 -5 -166 -6 q-38 -5 -60 22 q-5 8 -7 16 q4 6 10 7 q59 16 121 17 q46 2 90 11 q-18 35 -26 69 q8 29 64 63.5 q56 34.5 64 67.5 q-16 21 -126 32.5 q-110 11.5 -126 46.5 q1 17 18 15 Z" /><glyph glyph-name="uni4F55" unicode="&#x4f55;" d="M287 649 q34 -10 39 -46 q-7 -37 -63 -127 q-56 -90 -82 -134 q89 -38 100.5 -117.5 q11.5 -79.5 6.5 -164.5 q1 -14 -2 -50 q-3 -36 -15 -41 q-55 13 -56 73 q3 53 5 105 q1 20 -2.5 69.5 q-3.5 49.5 -17.5 55.5 q-32 -2 -56 -18 q-24 -16 -38 -18 q-16 1 -33.5 18.5 q-17.5 17.5 -19.5 33.5 q11 26 97.5 169.5 q86.5 143.5 112.5 178.5 q10 12 24 13 ZM863 741 q45 -6 58 -47 q-3 -14 -28 -20.5 q-25 -6.5 -38 -8.5 q-89 -20 -201.5 -42 q-112.5 -22 -200.5 -24 q-21 -1 -46 5.5 q-25 6.5 -27 31.5 q2 11 22 13.5 q20 2.5 30 1.5 q110 6 215.5 45 q105.5 39 215.5 45 ZM847 523 q41 -11 53 -104.5 q12 -93.5 11 -136.5 q0 -61 -28 -205.5 q-28 -144.5 -81 -161.5 q-35 3 -92 43.5 q-57 40.5 -63 75.5 q0 14 11 18 q9 -4 41 -35.5 q32 -31.5 62 -37.5 q42 34 63 170.5 q21 136.5 21 198.5 q-4 77 -9 153 q-3 16 11 22 ZM537 448 q36 2 69 -8 q74 -34 84 -115 q-3 -54 -49.5 -108.5 q-46.5 -54.5 -101.5 -58.5 q-45 7 -82 34 q-1 -16 -2.5 -38.5 q-1.5 -22.5 -20.5 -24.5 q-31 11 -51 42 l3 106 q0 25 5 86 q5 61 24 69 q17 -3 33 -6 q42 11 89 22 ZM619 387 q-26 1 -52 2 q-97 1 -107 -92 l0 -33 l19 1 q19 3 28 -10 q-2 -15 -6 -28 q6 -5 14 -5 q32 5 67.5 52 q35.5 47 38.5 80 q0 17 -2 33 Z" /><glyph glyph-name="uni5F88" unicode="&#x5f88;" d="M285 711 q23 -9 23 -34 q-6 -41 -66 -105.5 q-60 -64.5 -101 -71.5 q-33 5 -46 34 q34 41 90.5 90 q56.5 49 99.5 87 ZM283 470 q35 -9 40 -45 q-4 -22 -42 -80 q-38 -58 -56 -83 q11 -16 29.5 -28 q18.5 -12 34.5 -49 q9 -29 16 -95.5 q7 -66.5 7 -100.5 q3 -20 -12 -27 q-58 15 -58.5 116.5 q-0.5 101.5 -23.5 116.5 q-29 -4 -56.5 -30.5 q-27.5 -26.5 -45.5 -30.5 q-11 2 -29.5 19 q-18.5 17 -21.5 28 q31 52 103.5 147.5 q72.5 95.5 114.5 141.5 ZM679 748 q98 -3 100 -101 q-1 -34 -12.5 -138 q-11.5 -104 -20.5 -124 q-4 -3 -9 -3 q-47 8 -49 58 q1 32 7 63 q-29 -10 -74.5 -33 q-45.5 -23 -70.5 -41 l-8 -126 q18 15 59.5 48.5 q41.5 33.5 58.5 37.5 q30 -11 36 -45 q-7 -16 -64 -57 q-57 -41 -79 -54 q-19 -12 -16 -36 q-1 -34 4.5 -108.5 q5.5 -74.5 36.5 -83.5 q36 6 60.5 45.5 q24.5 39.5 44.5 45.5 q28 -11 27 -45 q-1 -42 -30 -74.5 q-29 -32.5 -72 -34.5 q-88 7 -110 93 q-22 86 -19 159 q0 178 23 355 q8 4 16 3 q29 -15 33 -54 q26 17 60 36.5 q34 19.5 64 21.5 q9 -2 17 -4 q7 3 7 11 q7 24 10 64 q3 40 3 66 q-110 -33 -221 -48 q-30 5 -40 32 q36 24 110.5 46.5 q74.5 22.5 117.5 24.5 ZM859 334 q35 -9 42 -46 q-52 -64 -110 -122 q20 -9 64 -24 q44 -15 49 -33 q-3 -23 -27 -23 q-52 5 -140 64.5 q-88 59.5 -98 109.5 q3 11 15 10 q19 -2 37 -24 q18 -22 29 -37 q20 25 66.5 72.5 q46.5 47.5 72.5 52.5 Z" /><glyph glyph-name="uni8861" unicode="&#x8861;" d="M426 814 q25 -10 25 -36 q-7 -50 -25 -99 q56 16 114 24 q28 -1 56.5 -20.5 q28.5 -19.5 30.5 -49.5 q-13 -59 -66 -99 q62 -37 77 -82 q15 -45 13 -113 q0 -48 -27 -98.5 q-27 -50.5 -74 -69.5 q-24 -2 -22 -26 l0 -39 q26 2 52 3 q29 -3 36 -30 q-10 -17 -43.5 -21.5 q-33.5 -4.5 -53.5 -6.5 q-4 -13 -22.5 -65.5 q-18.5 -52.5 -30.5 -64.5 q-36 15 -38 54 q6 32 17 63 q-17 3 -34 2 q-15 0 -35 5.5 q-20 5.5 -22 22.5 q5 10 47.5 15 q42.5 5 59.5 14 q6 9 12.5 44 q6.5 35 6.5 49 q-28 -5 -56 -6 q-28 5 -36 30 q3 11 26 17 q23 6 34 8 l2 80 q-31 -9 -63 -11 q-13 -5 -10.5 -43 q2.5 -38 -16.5 -43 q-44 6 -56.5 67.5 q-12.5 61.5 -11.5 100.5 q-1 20 4.5 46 q5.5 26 29.5 28 q15 -2 18.5 -20 q3.5 -18 4.5 -30 l23 30 q31 47 82 71 q16 10 58 58.5 q42 48.5 47 65.5 q-4 7 -12 7 q-38 -3 -84.5 -27.5 q-46.5 -24.5 -77.5 -28.5 q-40 9 -49 50 q4 25 39 95 q35 70 51 79 ZM553 485 q-13 0 -40.5 -4.5 q-27.5 -4.5 -30.5 -17.5 q5 -39 15 -78 l20 1 q40 -1 55 -33 q-3 -14 -29.5 -17 q-26.5 -3 -39.5 -5 q-5 -24 -5 -50 l0 -31 q68 17 82 59 q14 42 11 105 q1 22 -5.5 45.5 q-6.5 23.5 -32.5 25.5 ZM444 440 q-15 -3 -35 -33 q-20 -30 -23 -47 l5 -5 q30 6 59 17 q-3 34 -6 68 ZM230 661 q26 -5 28 -33 q-7 -31 -68 -99 q-61 -68 -91 -76 q-33 4 -43 34 q9 25 79 95 q70 70 95 79 ZM890 506 q42 -1 54 -38 q-7 -22 -65 -28 q-58 -6 -82 -5 q-22 -1 -52 7.5 q-30 8.5 -33 34.5 l1 4 q20 4 89 14 q69 10 88 11 ZM237 402 q17 -9 22 -30 q-4 -36 -46.5 -92.5 q-42.5 -56.5 -69.5 -85.5 q61 -58 72.5 -114 q11.5 -56 8.5 -136 q5 -22 -13 -29 q-44 10 -49 99 q-5 89 -14 132 q-24 -5 -49 -5 q-33 7 -43 37 q21 30 94.5 121 q73.5 91 86.5 103 ZM911 315 q36 -5 49 -36 q-6 -17 -51 -28.5 q-45 -11.5 -51 -23.5 q11 -56 21 -113 q0 -34 -16.5 -96.5 q-16.5 -62.5 -51.5 -69.5 q-43 4 -55 47 q-12 43 -11 80 q0 8 3 16 q19 -34 39 -66 q16 7 27.5 58.5 q11.5 51.5 11.5 72.5 q2 63 -11.5 66.5 q-13.5 3.5 -67.5 -0.5 q-22 -1 -52.5 8 q-30.5 9 -33.5 35 q2 9 19.5 10.5 q17.5 1.5 26.5 1.5 q52 2 102.5 19 q50.5 17 101.5 19 ZM581 8 q20 -2 35 -23.5 q15 -21.5 16 -40.5 q2 -31 -24 -40 q-47 10 -53 60 q-1 33 26 44 Z" /><glyph glyph-name="uni5019" unicode="&#x5019;" d="M356 459 q24 -7 38 -29 q-5 -74 -6 -149 q4 -49 8 -99 q-1 -5 -3 -10 q-4 -2 -8 -2 q-41 4 -51 49 q-10 45 -8 79 q-1 26 4 89.5 q5 63.5 26 71.5 ZM270 696 q32 -7 39 -39 q-9 -50 -75 -154 q-66 -104 -75 -139 q3 -9 14 -11 q68 -42 67 -126 q6 -76 4 -152 q1 -15 -2.5 -50.5 q-3.5 -35.5 -19.5 -39.5 q-24 7 -43 28 q2 101 3 202 q0 12 -1.5 45 q-1.5 33 -10.5 37 q-8 -2 -31 -16 q-23 -14 -35 -16 q-40 9 -50 47 q11 42 97 194.5 q86 152.5 119 189.5 ZM711 788 q70 -5 77 -75 q-6 -65 -16 -131 q47 10 94 16 q38 -2 46 -38 q-11 -23 -104 -36.5 q-93 -13.5 -131 -17.5 q-131 -27 -265 -35 q-30 5 -40 34 l1 2 q38 16 148.5 33 q110.5 17 165.5 27 q33 75 39 154 q-1 14 -15 11 q-84 -10 -168 -21 q-14 0 -37 7 q-23 7 -26 22 q4 10 33.5 16 q29.5 6 42.5 8 q77 20 155 24 ZM530 422 q31 -11 25 -47 q-1 -50 -4 -100 q41 14 136 45.5 q95 31.5 125 35.5 q36 -2 40 -38 q-7 -14 -65 -34 q-58 -20 -81 -25 q2 -35 8 -71 l78 29 l2 0 q40 -3 46 -43 q-7 -16 -62 -33.5 q-55 -17.5 -77 -23.5 q-2 -16 -17 -93 q-15 -77 -30 -87 q-36 8 -43 44 q7 58 19 115 q-52 -19 -105 -24 q-29 4 -39 30 q10 13 59 30.5 q49 17.5 70 24.5 q32 12 35.5 33.5 q3.5 21.5 5.5 51.5 q-21 -8 -58 -19.5 q-37 -11.5 -57 -12.5 q-48 3 -58 49 q1 25 17 90 q16 65 30 73 ZM862 88 q61 -8 72 -67 q-1 -39 -39 -43 q-60 10 -67 72 q1 35 34 38 Z" /><glyph glyph-name="uni540E" unicode="&#x540e;" d="M819 453 q47 -5 59 -49 l-3 -6 q-31 -15 -133.5 -21.5 q-102.5 -6.5 -148.5 -6.5 q-123 -3 -245 -25 q-21 -5 -43 -5 q-33 -3 -38 29 q10 12 28 14 q155 40 315 47 q103 0 199 20 q5 2 10 3 ZM703 756 q33 -3 42 -34 q-19 -49 -174 -72 q-155 -23 -218 -23 q-30 -1 -85.5 9.5 q-55.5 10.5 -61.5 41.5 q1 2 3 3 q32 6 66 4 l14 0 q178 0 346 54 q33 14 68 17 ZM194 461 q0 5 5 7 q40 -7 53.5 -68.5 q13.5 -61.5 12.5 -98.5 q-2 -51 -28.5 -182 q-26.5 -131 -53.5 -147 q-39 8 -41 50 q7 78 32 153 q25 95 28 193 q-4 47 -8 93 ZM584 209 q62 -1 122.5 -38 q60.5 -37 65.5 -104 q-4 -50 -34.5 -65 q-30.5 -15 -36.5 -22 q6 -8 7 -18 q-10 -23 -38 -18 q-93 -1 -182 27 l-4 1 q-6 -2 -6 -13 q0 -11 -14 -13 q-47 4 -60.5 50 q-13.5 46 -11.5 85 q-1 16 2.5 47 q3.5 31 20.5 35 q15 -5 29 -13 q8 6 15 13 q54 47 125 46 ZM613 152 q-59 2 -94 -14.5 q-35 -16.5 -36 -82.5 q-1 -21 4 -43 q49 -7 98 -12 q26 15 73 42.5 q47 27.5 52 54.5 q-3 35 -35 45.5 q-32 10.5 -62 9.5 Z" /><glyph glyph-name="uni51F0" unicode="&#x51f0;" d="M442 674 q20 -1 42 -14.5 q22 -13.5 24 -34.5 q-2 -19 -23 -37.5 q-21 -18.5 -40 -19.5 q-44 4 -54 46 q7 11 5 23 q8 36 46 37 ZM620 566 q82 -2 101.5 -52.5 q19.5 -50.5 16.5 -120.5 q4 -54 -6.5 -106 q-10.5 -52 -76.5 -56 q-107 8 -215 28 q-22 1 -48 9 q-26 8 -28 35 q-11 48 -22 95 q-1 22 3.5 75.5 q4.5 53.5 23.5 59.5 q26 -3 38 -25 q38 4 96 29 q58 25 117 29 ZM671 511 q-14 0 -29 1 q-40 -1 -132.5 -28.5 q-92.5 -27.5 -103.5 -62.5 q-3 -29 14 -44 q49 3 97.5 21 q48.5 18 99.5 21 q33 -7 47 -37 l-7 -6 l0 1 q-29 -18 -118.5 -33.5 q-89.5 -15.5 -112.5 -24.5 q19 -11 97.5 -21.5 q78.5 -10.5 109.5 -11.5 q33 3 36.5 37 q3.5 34 1.5 62 l0 126 ZM704 210 q35 -3 41 -37 q-8 -25 -67.5 -24.5 q-59.5 0.5 -68.5 -28.5 l0 -15 q19 4 37 4 q39 1 46 -34 q-5 -22 -41.5 -25.5 q-36.5 -3.5 -41.5 -16.5 q0 -9 4 -16 q21 8 43 13 l-1 0 q25 8 49 12 q8 -2 20 -17.5 q12 -15.5 13 -24.5 q-11 -22 -100 -43.5 q-89 -21.5 -124 -23.5 q-41 0 -61 36 q4 16 39 23.5 q35 7.5 52 7.5 q0 19 2 38 q-20 -1 -53 5.5 q-33 6.5 -37 29.5 q4 8 40 13 q36 5 50 5 l0 40 q-28 -1 -86 6 q-58 7 -65 37 q3 8 28 9 q25 1 34 0 q124 14 248 27 ZM718 768 q75 1 129.5 -35 q54.5 -36 57.5 -117 q-3 -75 -25 -151.5 q-22 -76.5 -25 -169.5 q-1 -37 5.5 -43.5 q6.5 -6.5 36.5 -4.5 q37 -12 45 -52 q-6 -21 -31 -19 q-72 11 -108 78 q-24 53 -19 112 q3 75 26.5 145.5 q23.5 70.5 26.5 143.5 q-2 37 -33 46.5 q-31 9.5 -62 8.5 q-219 7 -432 -46 q-29 -10 -57 -14 q-10 -1 -12 8 q2 17 26 35.5 q24 18.5 40 26.5 q79 34 200.5 41.5 q121.5 7.5 210.5 6.5 ZM156 691 q57 -8 69.5 -81.5 q12.5 -73.5 10.5 -121.5 l0 -16 q0 -102 -35 -197 q-7 -27 -26.5 -78 q-19.5 -51 -46.5 -57 q-39 5 -44 45 q3 19 29 85 q26 66 36 99 q24 125 17 252 q-2 30 -13 38.5 q-11 8.5 -13 17.5 q1 15 16 14 Z" /><glyph glyph-name="uni56DE" unicode="&#x56de;" d="M422 450 q12 -1 20 -8 q31 -11 64 -5 q62 -1 115 -42 q53 -41 56 -105 q0 -37 -29 -60 l0 1 q-9 -5 -11 -14 q5 -8 11 -22 q-14 -21 -59 -27 q-45 -6 -71 -5 q-79 1 -90.5 41 q-11.5 40 -11.5 106 q-6 58 -7 116 q-2 19 13 24 ZM544 380 q-28 -1 -55 -11 l-1 -84 q0 -8 2 -24.5 q2 -16.5 11 -18.5 q27 2 66.5 26.5 q39.5 24.5 43.5 50.5 q-3 62 -67 61 ZM591 678 q36 0 86 -1 q50 -1 83 -10 q119 -43 145 -165.5 q26 -122.5 21 -235.5 q3 -65 -11.5 -167.5 q-14.5 -102.5 -88.5 -113.5 q-68 6 -137 12 q-7 -1 -12 -4 q-40 -17 -106.5 -22.5 q-66.5 -5.5 -112.5 -4.5 q-25 -1 -84.5 4 q-59.5 5 -66.5 30 q6 14 53 17 q47 3 66 3 q76 -1 150 15 l-1 5 q14 9 35 8 q66 -3 132 -7 q29 -2 56 5 q37 25 45.5 124 q8.5 99 7.5 147 q0 51 -10.5 147 q-10.5 96 -36.5 133 q-20 18 -62 22 q-42 4 -68 3 q-112 8 -221 -10 q-65 -14 -122 -48 q-11 -9 -25 -10 q-11 0 -12 11 q2 16 22 37 q20 21 34 30 q46 27 116.5 37 q70.5 10 124.5 9 ZM197 616 q12 -3 20 -13 q0 -33 -4 -64 q-9 -109 -7 -220 q3 -159 6 -316 q4 -24 -14 -33 q-27 6 -48 27 q-11 16 -13 67 q-2 51 -1 73 q-3 84 3.5 270.5 q6.5 186.5 57.5 208.5 Z" /><glyph glyph-name="uni4F1A" unicode="&#x4f1a;" d="M483 772 q19 0 22 -18 q-3 -20 -29.5 -51.5 q-26.5 -31.5 -42.5 -48.5 l1 0 q-133 -155 -253 -321 q-12 -18 -48 -65.5 q-36 -47.5 -48 -53.5 q-36 5 -46 39 q22 74 198.5 283.5 q176.5 209.5 245.5 235.5 ZM632 689 q28 -3 67.5 -30.5 q39.5 -27.5 63.5 -46.5 q70 -51 152 -80 q15 -5 38 -17.5 q23 -12.5 25 -29.5 q-6 -16 -25 -16 q-58 4 -131.5 51.5 q-73.5 47.5 -118.5 86.5 q-33 34 -78 49 q-23 1 -36 16 q16 20 43 17 ZM645 422 q10 -2 23 -17 q13 -15 14 -25 q-11 -31 -100.5 -48 q-89.5 -17 -126.5 -17 q-26 -1 -64.5 10 q-38.5 11 -42.5 40 q4 10 36 10.5 q32 0.5 44 -0.5 q93 2 180 36 q18 9 37 11 ZM637 248 q44 -6 55 -47 q-7 -16 -66 -28.5 q-59 -12.5 -83 -15.5 q-34 4 -45 -26 q-24 -69 -43 -138 l4 -1 q42 6 131.5 59.5 q89.5 53.5 132.5 83.5 q22 -2 36 -24.5 q14 -22.5 14 -43.5 q1 -24 -4.5 -84.5 q-5.5 -60.5 -23.5 -67.5 q-39 8 -46 47 q2 29 4 59 q1 7 -2 14 q-49 -24 -112 -63 q-63 -39 -114 -43 q-77 0 -89 72 q2 29 18.5 69.5 q16.5 40.5 30.5 68.5 q-29 1 -87.5 10 q-58.5 9 -65.5 39 q3 15 31 15.5 q28 0.5 40 -0.5 q60 0 138.5 10.5 q78.5 10.5 133.5 31.5 q6 2 12 3 Z" /><glyph glyph-name="uni706B" unicode="&#x706b;" d="M501 647 q6 7 14 7 q17 -2 29 -13 q64 -51 59 -135 q1 -44 -9 -86 q-20 -73 -97 -208.5 q-77 -135.5 -147 -150.5 q-23 1 -49.5 20 q-26.5 19 -28.5 42 q10 24 36 32 q14 -6 24 -12 q18 9 32 27 q55 61 112 168 q57 107 61 189 l0 24 q-2 53 -19 67 q-17 14 -19 23 q0 3 2 6 ZM795 557 q29 -1 53 -25 q24 -24 26 -53 q-11 -61 -74 -66 q-23 2 -50 24.5 q-27 22.5 -29 45.5 q1 12 11.5 14.5 q10.5 2.5 11.5 16.5 q12 36 51 43 ZM225 532 q76 -11 85 -89 q-6 -62 -67 -74 q-73 11 -83 85 q4 65 65 78 ZM756 205 q39 -3 64 -41 q25 -38 26 -75 q-1 -31 -31 -36 q-42 1 -79 29.5 q-37 28.5 -40 71.5 q12 45 60 51 Z" /><glyph glyph-name="uni673A" unicode="&#x673a;" d="M258 721 q5 4 11 5 q34 -8 42 -75.5 q8 -67.5 10 -100.5 q49 5 98 6 q37 -3 46 -38 q-7 -24 -65.5 -25.5 q-58.5 -1.5 -82.5 0.5 q9 -146 8 -292 l-1 -223 q1 -13 -12 -13 q-30 11 -52 39 l0 191 q7 152 -14 301 q-41 10 -120 13 q-79 3 -88 53 q2 12 15 11 q6 0 12 -2 q94 -15 190 -19 l0 56 q-1 57 3 113 ZM776 499 q86 -6 95 -91 q-1 -48 -13 -94 q-17 -87 -17 -178 q0 -14 2 -47 q2 -33 11 -38 q9 15 24.5 44 q15.5 29 30.5 32 q15 -3 21.5 -26.5 q6.5 -23.5 6.5 -37.5 q0 -27 -12.5 -52.5 q-12.5 -25.5 -42.5 -27.5 q-65 5 -87.5 69.5 q-22.5 64.5 -21.5 120.5 q14 125 28 249 q1 14 -13 12 q-45 -2 -101.5 -26 q-56.5 -24 -92.5 -53 q6 -50 7 -100 q0 -35 -8.5 -117 q-8.5 -82 -26.5 -92 q-16 1 -34.5 17 q-18.5 16 -20.5 32 l1 11 q21 150 24 303 q40 6 104 45 q64 39 136 45 ZM420 357 q59 -13 60 -77 q0 -15 -5 -40.5 q-5 -25.5 -22 -28.5 q-64 15 -65 86 q0 16 6.5 37 q6.5 21 25.5 23 ZM165 325 q31 -9 25 -45 q-2 -43 -35.5 -121.5 q-33.5 -78.5 -75.5 -87.5 q-36 8 -49 42 q5 21 24 34 q40 46 62 102 q6 13 22 42.5 q16 29.5 27 33.5 Z" /><glyph glyph-name="uni53CA" unicode="&#x53ca;" d="M610 730 q37 2 70 -5 q58 -24 65 -86 q-2 -55 -22.5 -108 q-20.5 -53 -34.5 -106 l6 -1 q44 8 88 15 q98 -8 107 -105 q-2 -78 -41.5 -139 q-39.5 -61 -86.5 -120 q12 -18 74 -37.5 q62 -19.5 71 -49.5 q-4 -18 -24 -17 q-81 13 -147 66 q-21 -23 -57.5 -54.5 q-36.5 -31.5 -66.5 -34.5 q-29 2 -53 29.5 q-24 27.5 -25 56.5 q-1 12 9 16 q17 -14 37 -35 q51 31 91 80 q-86 82 -164 173 q1 7 8 7 q34 -6 94.5 -61.5 q60.5 -55.5 90.5 -84.5 q39 47 76 106.5 q37 59.5 40 121.5 q2 16 -13 16 q-59 -11 -119 -23 q-67 3 -79 66 q4 63 35 120 q31 57 35 119 q-3 20 -24 16 q-88 -2 -214 -28.5 q-126 -26.5 -213 -54.5 q-18 -5 -51.5 -19 q-33.5 -14 -37.5 -32 q1 -10 -8 -12 q-29 13 -32 47 q25 62 229 109 q204 47 287 49 ZM342 573 q38 -14 42 -58 q-3 -118 -27.5 -234.5 q-24.5 -116.5 -27.5 -235.5 q-1 -14 -15 -14 q-34 2 -43.5 30.5 q-9.5 28.5 -8.5 57.5 q0 52 6 104 q6 45 30 181.5 q24 136.5 33 161.5 q4 6 11 7 Z" /><glyph glyph-name="uni7EA7" unicode="&#x7ea7;" d="M329 729 q33 -7 42 -40 q-14 -26 -115.5 -92.5 q-101.5 -66.5 -115.5 -101.5 q8 -7 24 -6 q45 2 90 3 q29 0 60 -15.5 q31 -15.5 33 -48.5 q-8 -31 -75 -92 q-67 -61 -98 -89 l7 -3 q47 8 95 16 q36 -6 40 -43 q-6 -17 -58.5 -27 q-52.5 -10 -73.5 -10 q-31 0 -65 14.5 q-34 14.5 -37 50.5 q10 45 79.5 101 q69.5 56 79.5 76 q-3 6 -28 6 q-25 0 -35 0 q-36 -2 -81 7.5 q-45 9.5 -49 53.5 q13 52 120.5 141 q107.5 89 160.5 99 ZM800 601 q47 -29 51 -83 q-11 -74 -39 -146 q30 5 60 9 q71 -5 79 -75 q-4 -50 -45.5 -113.5 q-41.5 -63.5 -71.5 -106.5 q21 -16 60 -47.5 q39 -31.5 43 -53.5 q2 -10 -7 -12 q-24 3 -61 32 q-37 29 -57 47 q-28 -47 -75 -62 q-44 6 -58 46 q3 11 14 9 q16 2 30.5 22 q14.5 20 21.5 34 q-24 15 -69.5 55.5 q-45.5 40.5 -50.5 64.5 q0 8 6 11 q17 -5 67 -44 q50 -39 72 -55 q18 25 58 86.5 q40 61.5 45 82.5 q0 5 -4 7 q-46 -21 -93 -43 q-20 1 -40 20.5 q-20 19.5 -21 40.5 q4 52 33 103.5 q29 51.5 33 102.5 q0 10 -9 11 q-29 -1 -114 -14 q-85 -13 -101 -22 q10 -25 8 -53 q0 -58 -4 -221.5 q-4 -163.5 -13 -196.5 l-9 -4 q-31 2 -41.5 29.5 q-10.5 27.5 -9.5 54.5 q4 193 20 384 l0 9 q-2 10 -19 19 q-17 9 -19 28 l1 3 q55 13 164 26.5 q109 13.5 165 14.5 ZM437 152 q20 -4 18 -26 q-10 -58 -101.5 -109.5 q-91.5 -51.5 -148.5 -55.5 q-20 0 -43.5 13 q-23.5 13 -25.5 34 q2 19 19 18.5 q17 -0.5 31 -1.5 q51 8 132.5 63.5 q81.5 55.5 118.5 63.5 Z" /><glyph glyph-name="uni8BB0" unicode="&#x8bb0;" d="M230 689 q12 16 32 16 q58 -9 68 -67 q-3 -43 -47 -46 q-23 1 -44.5 22.5 q-21.5 21.5 -23.5 44.5 q1 18 14 31 l1 -1 ZM59 361 q4 3 7 2 q41 -3 82 -6 q38 1 75 1 q72 4 87 -61 q-1 -28 -8 -57 q-17 -100 -19 -201 l25 0 q14 6 36 49 q22 43 39 49 q16 -8 17 -29 q-2 -37 -33 -92.5 q-31 -55.5 -69 -61.5 q-45 4 -64 51.5 q-19 47.5 -18 87.5 q7 90 13 180 q-5 21 -50.5 28 q-45.5 7 -68.5 13 q-35 15 -51 47 ZM723 645 q74 2 133 -30 q59 -32 62 -116 q-5 -101 -77 -174 q6 -10 8 -22 q-11 -21 -98 -34.5 q-87 -13.5 -121 -13.5 q-6 -95 -6 -191 q54 -12 110 -10 q25 -1 59 5.5 q34 6.5 37 37.5 q-10 56 -37 107 l1 0 q34 -6 68 -62 q34 -56 37 -90 q-3 -43 -42 -52.5 q-39 -9.5 -75 -7.5 q-69 -3 -144 17.5 q-75 20.5 -81 102.5 q11 95 22 186 q0 20 20 21 q89 15 178 32 q21 40 42 91 q21 51 23 95 q-5 51 -59 42 q-73 1 -143 -17 q-30 -11 -61 -15 q-32 6 -39 37 q9 27 80.5 43.5 q71.5 16.5 102.5 17.5 Z" /><glyph glyph-name="uni714E" unicode="&#x714e;" d="M176 73 q30 -3 46 -33 q16 -30 16 -57 q1 -42 -35 -53 q-31 2 -50 32 q-19 30 -19 59 q-1 46 42 52 ZM403 61 q53 -3 61 -55 q0 -39 -36 -44 q-23 2 -44 23.5 q-21 21.5 -22 44.5 q6 33 41 31 ZM854 45 q60 -17 74 -73 q-3 -22 -25 -22 q-25 2 -52 26 q-27 24 -29 49 q9 18 32 20 ZM635 25 q24 -2 44 -25.5 q20 -23.5 21 -47.5 q-1 -29 -28 -36 q-26 2 -49 25.5 q-23 23.5 -25 49.5 q4 32 37 34 ZM616 789 q39 -9 48 -48 q-4 -28 -34 -29 q-43 6 -56 45 q11 27 42 32 ZM380 769 q32 5 41 -21 q7 -26 13 -53 q0 -28 -28 -30 q-52 10 -63 61 q4 35 37 43 ZM850 604 q12 -2 29 -17.5 q17 -15.5 19 -26.5 q-3 -13 -30 -16 q-27 -3 -39 -2 q-90 -1 -180 -2 q-185 1 -370 1 q-60 -3 -118 3 q-19 2 -47 10.5 q-28 8.5 -31 29.5 l6 4 q61 10 176.5 9 q115.5 -1 187.5 -1 q199 6 397 8 ZM268 513 q26 -4 32 -43.5 q6 -39.5 7 -62.5 q58 60 137 74 q92 -13 111.5 -135.5 q19.5 -122.5 15.5 -201.5 q4 -29 -25 -31 q-31 3 -64 35.5 q-33 32.5 -55 55.5 q-28 -7 -56 -9 q-16 1 -29 10 q-3 8 -5 16 q11 25 84.5 34 q73.5 9 83.5 27 l0 8 q2 14 -9 19 q-13 -3 -55 -23.5 q-42 -20.5 -85 -23.5 q-21 5 -40 10 l-1 -3 q9 -74 17 -148 q0 -8 -3 -16 l-8 -5 q-53 16 -65.5 151 q-12.5 135 -10.5 194 q-1 15 2.5 40 q3.5 25 20.5 28 ZM465 425 q-33 -3 -91 -40.5 q-58 -37.5 -64 -69.5 q1 -8 10 -7 q37 3 82.5 27.5 q45.5 24.5 66.5 27.5 q16 -3 32 -12 q-4 17 -10.5 44 q-6.5 27 -25.5 30 ZM512 208 q2 15 -6 24 q-7 -3 -12 -8 q-25 -11 -54 -17 q30 -22 61 -33 q14 7 11 25 l0 9 ZM741 463 q44 -11 59.5 -105 q15.5 -94 14.5 -141 q1 -17 -4.5 -37.5 q-5.5 -20.5 -25.5 -22.5 q-19 4 -46.5 36.5 q-27.5 32.5 -39.5 50.5 q24 -13 50 -21 q3 17 2 33 q0 28 -5 85.5 q-5 57.5 -19 75.5 q-8 4 -8 13 q1 24 22 33 ZM626 368 q0 9 8 11 q28 -3 42 -37 q14 -34 14 -59 q3 -16 -11 -21 q-32 4 -43 41 q-11 37 -10 65 Z" /></font>
</defs>
</svg>
